<?xml version="1.0" encoding="utf-8"?>
<!-- Generator: Adobe Illustrator 19.1.0, SVG Export Plug-In . SVG Version: 6.00 Build 0)  -->
<svg version="1.1" id="Layer_1" xmlns="http://www.w3.org/2000/svg" xmlns:xlink="http://www.w3.org/1999/xlink" x="0px" y="0px"
	 viewBox="-105 197 400 400" style="enable-background:new -105 197 400 400;" xml:space="preserve">
<style type="text/css">
	.st0{fill:#77BDE1;}
	.st1{fill:none;stroke:#B0DC07;stroke-width:12;stroke-miterlimit:10;}
	.st2{fill:#FFFFFF;}
	.st3{fill:#B0DC07;}
	.st4{fill:none;stroke:#E3221B;stroke-width:12;stroke-miterlimit:10;}
</style>
<path class="st0" d="M179.7,520.5L179.7,520.5c-3.1,3.1-8.2,3.1-11.3,0L63.7,415.7c-3.1-3.1-3.1-8.2,0-11.3l0,0
	c3.1-3.1,8.2-3.1,11.3,0l104.7,104.8C182.8,512.3,182.8,517.4,179.7,520.5z"/>
<path class="st0" d="M192,545.8c-3.5,0-6.7-1.3-9.2-3.8l-84.7-84.8l18.4-18.4l84.7,84.8c2.4,2.4,3.8,5.7,3.8,9.2s-1.3,6.7-3.8,9.2
	S195.5,545.8,192,545.8z"/>
<g>
	<g>
		<path class="st1" d="M142.5,480.8l-49.3,57.3c-2.6,2.6-6.1,4-9.8,4L-50.7,542"/>
		<g>
			<g>
				<circle class="st2" cx="141.7" cy="481.8" r="22.6"/>
				<path class="st3" d="M122.3,465.2c-9.2,10.7-8,26.9,2.7,36c10.7,9.2,26.9,8,36-2.7c9.2-10.7,8-26.9-2.7-36
					C147.7,453.3,131.5,454.5,122.3,465.2C113.1,475.8,131.5,454.5,122.3,465.2z M156.5,494.6c-7,8.2-19.4,9.1-27.6,2.1
					c-8.2-7-9.1-19.4-2.1-27.6s19.4-9.1,27.6-2.1S163.5,486.4,156.5,494.6C149.5,502.8,163.5,486.4,156.5,494.6z"/>
			</g>
		</g>
		<g>
			<g>
				<circle class="st2" cx="-49.4" cy="542" r="22.6"/>
				<path class="st3" d="M-49.4,516.5c14.1,0,25.6,11.5,25.5,25.6c0,14.1-11.5,25.6-25.6,25.5c-14,0-25.5-11.5-25.5-25.6
					S-63.5,516.5-49.4,516.5S-63.5,516.5-49.4,516.5z M-49.5,561.6c10.8,0,19.6-8.8,19.6-19.5c0-10.7-8.8-19.6-19.5-19.6
					c-10.8,0-19.6,8.8-19.6,19.5C-69,552.8-60.2,561.6-49.5,561.6C-38.7,561.6-60.2,561.6-49.5,561.6z"/>
			</g>
		</g>
	</g>
</g>
<g>
	<path class="st3" d="M-55.2,533.7c1-0.2,2.5-0.4,4.1-0.4c2.3,0,3.7,0.4,4.8,1.3c0.9,0.7,1.5,1.7,1.5,3.1c0,1.7-1.1,3.2-3,3.8v0.1
		c1.7,0.4,3.6,1.8,3.6,4.4c0,1.5-0.6,2.7-1.5,3.5c-1.2,1.1-3.2,1.6-6.1,1.6c-1.6,0-2.8-0.1-3.5-0.2v-17.2H-55.2z M-52.9,540.9h2.1
		c2.4,0,3.8-1.2,3.8-2.9c0-2.1-1.6-2.9-3.8-2.9c-1,0-1.6,0.1-2,0.2L-52.9,540.9L-52.9,540.9z M-52.9,549.3c0.4,0.1,1.1,0.1,1.9,0.1
		c2.3,0,4.5-0.9,4.5-3.4c0-2.4-2.1-3.4-4.5-3.4h-1.9V549.3z"/>
</g>
<circle class="st0" cx="44.8" cy="385.5" r="78.5"/>
<path class="st2" d="M93.3,434c-26.7,26.7-70.2,26.7-96.9,0s-26.7-70.2,0-96.9s70.2-26.7,96.9,0S120,407.3,93.3,434z"/>
<path class="st4" d="M158.3,390.2H91.5c-5.6,0-10.2,4.5-10.2,10.2v20.1c0,5.3-4.3,9.5-9.5,9.5l0,0c-5.3,0-9.5-4.3-9.5-9.5v-47.8
	c0-4.6-3.7-8.3-8.2-8.3l0,0c-4.7-0.1-8.5,3.7-8.5,8.4v35.7c0,4.8-3.9,8.7-8.7,8.7l0,0c-4.8,0-8.7-3.9-8.7-8.8l0.3-45.4
	c0-5.4-4.4-9.8-9.8-9.8l0,0c-4.8,0-8.6,3.9-8.6,8.6l0.1,18.4c0,5.6-4.5,10.2-10.2,10.2h-59.3"/>
<path class="st0" d="M100.4,330c-30.7-30.7-80.4-30.7-111.1,0s-30.7,80.4,0,111.1s80.4,30.7,111.1,0C131,410.4,131,360.6,100.4,330z
	 M93.3,434c-26.7,26.7-70.2,26.7-96.9,0s-26.7-70.2,0-96.9s70.2-26.7,96.9,0S120,407.3,93.3,434z"/>
<g>
	<g>
		<path class="st1" d="M47.5,309.4v-39.7c0-6.6,5.4-12,12-12h161"/>
		<g>
			<g>
				<circle class="st2" cx="47.5" cy="308.1" r="22.6"/>
				<path class="st3" d="M73,308.1c0-14.1-11.5-25.6-25.6-25.6S21.8,294,21.8,308.1s11.5,25.6,25.6,25.6
					C61.6,333.7,73,322.2,73,308.1S73,322.2,73,308.1z M27.9,308.1c0-10.8,8.8-19.6,19.6-19.6s19.6,8.8,19.6,19.6
					c0,10.8-8.8,19.6-19.6,19.6S27.9,318.9,27.9,308.1C27.9,297.3,27.9,318.9,27.9,308.1z"/>
			</g>
		</g>
		<g>
			<g>
				<circle class="st2" cx="219.2" cy="257.7" r="22.6"/>
				<path class="st3" d="M219.2,283.2c-14.1,0-25.6-11.5-25.6-25.6s11.5-25.6,25.6-25.6s25.6,11.5,25.6,25.6
					S233.3,283.2,219.2,283.2C205.1,283.2,233.3,283.2,219.2,283.2z M219.2,238.1c-10.8,0-19.6,8.8-19.6,19.6
					c0,10.8,8.8,19.6,19.6,19.6c10.8,0,19.6-8.8,19.6-19.6C238.8,246.9,230,238.1,219.2,238.1C208.4,238.1,230,238.1,219.2,238.1z"
					/>
			</g>
		</g>
	</g>
</g>
<g>
	<path class="st3" d="M224.7,266.4c-0.8,0.4-2.5,0.8-4.6,0.8c-4.9,0-8.7-3.1-8.7-8.9c0-5.5,3.7-9.2,9.2-9.2c2.2,0,3.6,0.5,4.2,0.8
		l-0.5,1.8c-0.9-0.4-2.1-0.7-3.5-0.7c-4.1,0-6.8,2.6-6.8,7.2c0,4.3,2.5,7,6.7,7c1.4,0,2.8-0.3,3.7-0.7L224.7,266.4z"/>
</g>
</svg>
