<?xml version="1.0" encoding="utf-8"?>
<!-- Generator: Adobe Illustrator 19.1.0, SVG Export Plug-In . SVG Version: 6.00 Build 0)  -->
<svg version="1.1" id="Layer_1" xmlns="http://www.w3.org/2000/svg" xmlns:xlink="http://www.w3.org/1999/xlink" x="0px" y="0px"
	 viewBox="0 0 400 400" style="enable-background:new 0 0 400 400;" xml:space="preserve">
<style type="text/css">
	.st0{fill:#77BDE1;}
	.st1{fill:none;stroke:#B0DC07;stroke-width:12;stroke-miterlimit:10;}
	.st2{fill:#FFFFFF;}
	.st3{fill:#B0DC07;}
	.st4{fill:#D6E3E8;}
	.st5{fill:none;stroke:#E3221B;stroke-width:12;stroke-miterlimit:10;}
</style>
<path class="st0" d="M284.7,323.5L284.7,323.5c-3.1,3.1-8.2,3.1-11.3,0L168.7,218.7c-3.1-3.1-3.1-8.2,0-11.3v0
	c3.1-3.1,8.2-3.1,11.3,0l104.7,104.8C287.8,315.3,287.8,320.4,284.7,323.5z"/>
<path class="st0" d="M297,348.8c-3.5,0-6.7-1.3-9.2-3.8l-84.7-84.8l18.4-18.4l84.7,84.8c2.4,2.4,3.8,5.7,3.8,9.2s-1.3,6.7-3.8,9.2
	S300.5,348.8,297,348.8z"/>
<g>
	<g>
		<path class="st1" d="M247.5,283.8l-49.3,57.3c-2.6,2.6-6.1,4-9.8,4L54.3,345"/>
		<g>
			<g>
				<circle class="st2" cx="246.7" cy="284.8" r="22.6"/>
				<path class="st3" d="M227.3,268.2c-9.2,10.7-8,26.9,2.7,36c10.7,9.2,26.9,8,36-2.7c9.2-10.7,8-26.9-2.7-36
					C252.7,256.3,236.5,257.5,227.3,268.2C218.1,278.8,236.5,257.5,227.3,268.2z M261.5,297.6c-7,8.2-19.4,9.1-27.6,2.1
					c-8.2-7-9.1-19.4-2.1-27.6c7-8.2,19.4-9.1,27.6-2.1S268.5,289.4,261.5,297.6C254.5,305.8,268.5,289.4,261.5,297.6z"/>
			</g>
		</g>
		<g>
			<g>
				<circle class="st2" cx="55.6" cy="345" r="22.6"/>
				<path class="st3" d="M55.6,319.5c14.1,0,25.6,11.5,25.5,25.6c0,14.1-11.5,25.6-25.6,25.5C41.5,370.6,30,359.1,30,345
					S41.5,319.5,55.6,319.5C69.7,319.5,41.5,319.5,55.6,319.5z M55.5,364.6c10.8,0,19.6-8.8,19.6-19.5s-8.8-19.6-19.5-19.6
					c-10.8,0-19.6,8.8-19.6,19.5C36,355.8,44.8,364.6,55.5,364.6C66.3,364.6,44.8,364.6,55.5,364.6z"/>
			</g>
		</g>
	</g>
</g>
<g>
	<path class="st3" d="M49.8,336.7c1-0.2,2.5-0.4,4.1-0.4c2.3,0,3.7,0.4,4.8,1.3c0.9,0.7,1.5,1.7,1.5,3.1c0,1.7-1.1,3.2-3,3.8v0.1
		c1.7,0.4,3.6,1.8,3.6,4.4c0,1.5-0.6,2.7-1.5,3.5c-1.2,1.1-3.2,1.6-6.1,1.6c-1.6,0-2.8-0.1-3.5-0.2V336.7z M52.1,343.9h2.1
		c2.4,0,3.8-1.2,3.8-2.9c0-2.1-1.6-2.9-3.8-2.9c-1,0-1.6,0.1-2,0.2V343.9z M52.1,352.3c0.4,0.1,1.1,0.1,1.9,0.1
		c2.3,0,4.5-0.9,4.5-3.4c0-2.4-2.1-3.4-4.5-3.4h-1.9V352.3z"/>
</g>
<circle class="st0" cx="149.8" cy="188.5" r="78.5"/>
<path class="st2" d="M198.3,237c-26.7,26.7-70.2,26.7-96.9,0s-26.7-70.2,0-96.9c26.7-26.7,70.2-26.7,96.9,0S225,210.3,198.3,237z"/>
<path class="st4" d="M101.5,237.1C101.5,237.1,101.5,237.2,101.5,237.1c26.9,27,70.2,26.8,97,0c26.7-26.7,26.9-70,0.1-96.9
	c-0.1-0.1-0.1-0.1-0.1-0.1L101.5,237.1z"/>
<path class="st5" d="M263.3,193.2h-66.8c-5.6,0-10.2,4.5-10.2,10.2v20.1c0,5.3-4.3,9.5-9.5,9.5h0c-5.3,0-9.5-4.3-9.5-9.5v-47.8
	c0-4.6-3.7-8.3-8.2-8.3h0c-4.7-0.1-8.5,3.7-8.5,8.4l0,35.7c0,4.8-3.9,8.7-8.7,8.7l0,0c-4.8,0-8.7-3.9-8.7-8.8l0.3-45.4
	c0-5.4-4.4-9.8-9.8-9.8h0c-4.8,0-8.6,3.9-8.6,8.6l0.1,18.4c0,5.6-4.5,10.2-10.2,10.2H45.7"/>
<path class="st0" d="M205.4,133c-30.7-30.7-80.4-30.7-111.1,0c-30.7,30.7-30.7,80.4,0,111.1c30.7,30.7,80.4,30.7,111.1,0
	C236,213.4,236,163.6,205.4,133z M198.3,237c-26.7,26.7-70.2,26.7-96.9,0c-26.7-26.7-26.7-70.2,0-96.9c26.7-26.7,70.2-26.7,96.9,0
	S225,210.3,198.3,237z"/>
<g>
	<g>
		<path class="st1" d="M152.5,112.4V72.7c0-6.6,5.4-12,12-12h161"/>
		<g>
			<g>
				<circle class="st2" cx="152.5" cy="111.1" r="22.6"/>
				<path class="st3" d="M178,111.1c0-14.1-11.5-25.6-25.6-25.6s-25.6,11.5-25.6,25.6c0,14.1,11.5,25.6,25.6,25.6
					C166.6,136.7,178,125.2,178,111.1C178,97,178,125.2,178,111.1z M132.9,111.1c0-10.8,8.8-19.6,19.6-19.6
					c10.8,0,19.6,8.8,19.6,19.6c0,10.8-8.8,19.6-19.6,19.6C141.7,130.7,132.9,121.9,132.9,111.1
					C132.9,100.3,132.9,121.9,132.9,111.1z"/>
			</g>
		</g>
		<g>
			<g>
				<circle class="st2" cx="324.2" cy="60.7" r="22.6"/>
				<path class="st3" d="M324.2,86.2c-14.1,0-25.6-11.5-25.6-25.6s11.5-25.6,25.6-25.6c14.1,0,25.6,11.5,25.6,25.6
					S338.3,86.2,324.2,86.2C310.1,86.2,338.3,86.2,324.2,86.2z M324.2,41.1c-10.8,0-19.6,8.8-19.6,19.6s8.8,19.6,19.6,19.6
					c10.8,0,19.6-8.8,19.6-19.6S335,41.1,324.2,41.1C313.4,41.1,335,41.1,324.2,41.1z"/>
			</g>
		</g>
	</g>
</g>
<g>
	<path class="st3" d="M329.7,69.4c-0.8,0.4-2.5,0.8-4.6,0.8c-4.9,0-8.7-3.1-8.7-8.9c0-5.5,3.7-9.2,9.2-9.2c2.2,0,3.6,0.5,4.2,0.8
		l-0.5,1.8c-0.9-0.4-2.1-0.7-3.5-0.7c-4.1,0-6.8,2.6-6.8,7.2c0,4.3,2.5,7,6.7,7c1.4,0,2.8-0.3,3.7-0.7L329.7,69.4z"/>
</g>
</svg>
