<?xml version="1.0" encoding="utf-8"?>
<!-- Generator: Adobe Illustrator 19.1.0, SVG Export Plug-In . SVG Version: 6.00 Build 0)  -->
<svg version="1.1" id="Layer_1" xmlns="http://www.w3.org/2000/svg" xmlns:xlink="http://www.w3.org/1999/xlink" x="0px" y="0px"
	 viewBox="0 0 400 400" style="enable-background:new 0 0 400 400;" xml:space="preserve">
<style type="text/css">
	.st0{fill:#77BDE1;}
	.st1{fill:#FFFFFF;}
	.st2{fill:#D6E3E8;}
	.st3{fill:none;stroke:#E3221B;stroke-width:12;stroke-miterlimit:10;}
	.st4{fill:none;stroke:#B0DC07;stroke-width:12;stroke-miterlimit:10;}
	.st5{fill:#B0DC07;}
	.st6{font-family:'MyriadPro-Regular';}
	.st7{font-size:26px;}
</style>
<g>
	<path class="st0" d="M352,185.8H44c-6.6,0-12-5.4-12-12v-49.1c0-6.6,5.4-12,12-12h308c6.6,0,12,5.4,12,12v49.1
		C364,180.4,358.6,185.8,352,185.8z"/>
	<path class="st1" d="M354,174c0,1.1-0.9,2-2,2H44c-1.1,0-2-0.9-2-2v-49c0-1.1,0.9-2,2-2h308c1.1,0,2,0.9,2,2V174z"/>
	<path class="st2" d="M355,174c0,1.1-0.9,2-2,2H210l67.7-53H353c1.1,0,2,0.9,2,2V174z"/>
	<rect x="101" y="143.9" class="st0" width="237.6" height="14.4"/>
	<rect x="51.7" y="132" class="st0" width="35" height="35"/>
	<polyline class="st3" points="59.1,138.5 70.7,154.4 108,128.1 	"/>
</g>
<g>
	<path class="st0" d="M352,278.8H44c-6.6,0-12-5.4-12-12v-49.1c0-6.6,5.4-12,12-12h308c6.6,0,12,5.4,12,12v49.1
		C364,273.4,358.6,278.8,352,278.8z"/>
	<path class="st1" d="M354,267c0,1.1-0.9,2-2,2H44c-1.1,0-2-0.9-2-2v-49c0-1.1,0.9-2,2-2h308c1.1,0,2,0.9,2,2V267z"/>
	<path class="st2" d="M355,267c0,1.1-0.9,2-2,2H210l67.7-53H353c1.1,0,2,0.9,2,2V267z"/>
	<rect x="101" y="236.9" class="st0" width="237.6" height="14.4"/>
	<rect x="51.7" y="225" class="st0" width="35" height="35"/>
	<polyline class="st3" points="59.1,231.5 70.7,247.4 108,221.1 	"/>
</g>
<g>
	<path class="st0" d="M352,368.8H44c-6.6,0-12-5.4-12-12v-49.1c0-6.6,5.4-12,12-12h308c6.6,0,12,5.4,12,12v49.1
		C364,363.4,358.6,368.8,352,368.8z"/>
	<path class="st1" d="M354,357c0,1.1-0.9,2-2,2H44c-1.1,0-2-0.9-2-2v-49c0-1.1,0.9-2,2-2h308c1.1,0,2,0.9,2,2V357z"/>
	<path class="st2" d="M355,357c0,1.1-0.9,2-2,2H210l67.7-53H353c1.1,0,2,0.9,2,2V357z"/>
	<rect x="101" y="326.9" class="st0" width="237.6" height="14.4"/>
	<rect x="51.7" y="315" class="st0" width="35" height="35"/>
	<polyline class="st3" points="59.1,321.5 70.7,337.4 108,311.1 	"/>
</g>
<g>
	<g>
		<path class="st4" d="M203,112.4V72.7c0-6.6-5.4-12-12-12H56.3"/>
		<g>
			<g>
				<circle class="st1" cx="203" cy="111.1" r="22.6"/>
				<path class="st5" d="M228.6,111.1c0-14.1-11.5-25.6-25.6-25.6s-25.6,11.5-25.6,25.6c0,14.1,11.5,25.6,25.6,25.6
					C217.1,136.7,228.6,125.2,228.6,111.1C228.6,97,228.6,125.2,228.6,111.1z M183.4,111.1c0-10.8,8.8-19.6,19.6-19.6
					c10.8,0,19.6,8.8,19.6,19.6c0,10.8-8.8,19.6-19.6,19.6S183.4,121.9,183.4,111.1C183.4,100.3,183.4,121.9,183.4,111.1z"/>
			</g>
		</g>
		<g>
			<g>
				<circle class="st1" cx="57.6" cy="60.7" r="22.6"/>
				<path class="st5" d="M57.6,35.1c14.1,0,25.6,11.5,25.6,25.6S71.7,86.2,57.6,86.2C43.5,86.2,32,74.8,32,60.7S43.5,35.1,57.6,35.1
					C71.7,35.1,43.5,35.1,57.6,35.1z M57.6,80.2c10.8,0,19.6-8.8,19.6-19.6s-8.8-19.6-19.6-19.6C46.8,41.1,38,49.9,38,60.7
					S46.8,80.2,57.6,80.2C68.3,80.2,46.8,80.2,57.6,80.2z"/>
			</g>
		</g>
	</g>
</g>
<text transform="matrix(1 0 0 1 48.7185 69.9769)" class="st5 st6 st7">C</text>
</svg>
