<?xml version="1.0" encoding="utf-8"?>
<!-- Generator: Adobe Illustrator 19.1.0, SVG Export Plug-In . SVG Version: 6.00 Build 0)  -->
<svg version="1.1" id="Layer_1" xmlns="http://www.w3.org/2000/svg" xmlns:xlink="http://www.w3.org/1999/xlink" x="0px" y="0px"
	 viewBox="-105 197 400 400" style="enable-background:new -105 197 400 400;" xml:space="preserve">
<style type="text/css">
	.st0{fill:#77BDE1;}
	.st1{fill:#FFFFFF;}
	.st2{fill:none;stroke:#E3221B;stroke-width:12;stroke-miterlimit:10;}
	.st3{fill:none;stroke:#B0DC07;stroke-width:12;stroke-miterlimit:10;}
	.st4{fill:#B0DC07;}
	.st5{font-family:'MyriadPro-Regular';}
	.st6{font-size:26px;}
</style>
<g>
	<path class="st0" d="M247,382.8H-61c-6.6,0-12-5.4-12-12v-49.1c0-6.6,5.4-12,12-12h308c6.6,0,12,5.4,12,12v49.1
		C259,377.4,253.6,382.8,247,382.8z"/>
	<path class="st1" d="M249,371c0,1.1-0.9,2-2,2H-61c-1.1,0-2-0.9-2-2v-49c0-1.1,0.9-2,2-2h308c1.1,0,2,0.9,2,2V371z"/>
	<rect x="-4" y="340.9" class="st0" width="237.6" height="14.4"/>
	<rect x="-53.3" y="329" class="st0" width="35" height="35"/>
	<polyline class="st2" points="-45.9,335.5 -34.3,351.4 3,325.1 	"/>
</g>
<g>
	<path class="st0" d="M247,475.8H-61c-6.6,0-12-5.4-12-12v-49.1c0-6.6,5.4-12,12-12h308c6.6,0,12,5.4,12,12v49.1
		C259,470.4,253.6,475.8,247,475.8z"/>
	<path class="st1" d="M249,464c0,1.1-0.9,2-2,2H-61c-1.1,0-2-0.9-2-2v-49c0-1.1,0.9-2,2-2h308c1.1,0,2,0.9,2,2V464z"/>
	<rect x="-4" y="433.9" class="st0" width="237.6" height="14.4"/>
	<rect x="-53.3" y="422" class="st0" width="35" height="35"/>
	<polyline class="st2" points="-45.9,428.5 -34.3,444.4 3,418.1 	"/>
</g>
<g>
	<path class="st0" d="M247,565.8H-61c-6.6,0-12-5.4-12-12v-49.1c0-6.6,5.4-12,12-12h308c6.6,0,12,5.4,12,12v49.1
		C259,560.4,253.6,565.8,247,565.8z"/>
	<path class="st1" d="M249,554c0,1.1-0.9,2-2,2H-61c-1.1,0-2-0.9-2-2v-49c0-1.1,0.9-2,2-2h308c1.1,0,2,0.9,2,2V554z"/>
	<rect x="-4" y="523.9" class="st0" width="237.6" height="14.4"/>
	<rect x="-53.3" y="512" class="st0" width="35" height="35"/>
	<polyline class="st2" points="-45.9,518.5 -34.3,534.4 3,508.1 	"/>
</g>
<g>
	<g>
		<path class="st3" d="M98,309.4v-39.7c0-6.6-5.4-12-12-12H-48.7"/>
		<g>
			<g>
				<circle class="st1" cx="98" cy="308.1" r="22.6"/>
				<path class="st4" d="M123.6,308.1c0-14.1-11.5-25.6-25.6-25.6S72.4,294,72.4,308.1s11.5,25.6,25.6,25.6S123.6,322.2,123.6,308.1
					S123.6,322.2,123.6,308.1z M78.4,308.1c0-10.8,8.8-19.6,19.6-19.6s19.6,8.8,19.6,19.6c0,10.8-8.8,19.6-19.6,19.6
					S78.4,318.9,78.4,308.1C78.4,297.3,78.4,318.9,78.4,308.1z"/>
			</g>
		</g>
		<g>
			<g>
				<circle class="st1" cx="-47.4" cy="257.7" r="22.6"/>
				<path class="st4" d="M-47.4,232.1c14.1,0,25.6,11.5,25.6,25.6c0,14.1-11.5,25.5-25.6,25.5S-73,271.8-73,257.7
					C-73,243.6-61.5,232.1-47.4,232.1S-61.5,232.1-47.4,232.1z M-47.4,277.2c10.8,0,19.6-8.8,19.6-19.6c0-10.8-8.8-19.6-19.6-19.6
					c-10.8,0.1-19.6,8.9-19.6,19.7C-67,268.5-58.2,277.2-47.4,277.2C-36.7,277.2-58.2,277.2-47.4,277.2z"/>
			</g>
		</g>
	</g>
</g>
<text transform="matrix(1 0 0 1 -56.2815 266.9769)" class="st4 st5 st6">C</text>
</svg>
