<?xml version="1.0" encoding="utf-8"?>
<!-- Generator: Adobe Illustrator 19.1.0, SVG Export Plug-In . SVG Version: 6.00 Build 0)  -->
<svg version="1.1" id="Layer_1" xmlns="http://www.w3.org/2000/svg" xmlns:xlink="http://www.w3.org/1999/xlink" x="0px" y="0px"
	 viewBox="265 -125 600 320" style="enable-background:new 265 -125 600 320;" xml:space="preserve">
<style type="text/css">
	.st0{fill:#4F95BA;}
	.st1{fill:#85D6F9;}
	.st2{fill:#E3221B;}
	.st3{fill:#FCD9D9;}
	.st4{display:none;}
	.st5{display:inline;}
	.st6{fill:#D6E3E8;}
	.st7{fill:#78BDE1;}
	.st8{fill:#FFFFFF;}
	.st9{fill:#E22726;}
	.st10{fill:none;stroke:#B0D235;stroke-width:12;stroke-miterlimit:10;}
	.st11{fill:#B0D235;}
	.st12{display:inline;fill:#78BDE1;}
</style>
<path class="st0" d="M372,72.6c-14.5,0-26.3-11.8-26.3-26.3v-83.1c0-14.5,11.8-26.3,26.3-26.3h124.7c14.5,0,26.3,11.8,26.3,26.3
	v83.1c0,14.5-11.8,26.3-26.3,26.3H372z"/>
<g>
	<g>
		<path class="st1" d="M496.7-57.6H372c-11.5,0-20.8,9.3-20.8,20.8v83.1c0,11.5,9.3,20.8,20.8,20.8h124.7c11.5,0,20.8-9.3,20.8-20.8
			v-83.1C517.5-48.3,508.2-57.6,496.7-57.6z M372-47.2h124.7c5.7,0,10.4,4.7,10.4,10.4v5.6l-72.8,48.5l-72.8-48.5v-5.6
			C361.6-42.5,366.3-47.2,372-47.2z M496.7,56.7H372c-5.7,0-10.4-4.7-10.4-10.4V-25l72.8,48.5L507.1-25v71.3
			C507.1,52,502.4,56.7,496.7,56.7z"/>
	</g>
</g>
<g>
	<path class="st2" d="M748.8-51.4H627.4c-4.5,0-8.1,3.6-8.1,8.1V75.1c0,4.4,3.6,8.1,8.1,8.1h4.9l-5.5,20.5c-0.4,1.7,1.4,3,2.9,2.1
		l34.2-22.6h85c4.5,0,8.1-3.7,8.1-8.1V-43.2C757-47.7,753.3-51.4,748.8-51.4z"/>
	<path class="st3" d="M746.9-45.1H629.2c-2.1,0-3.8,1.7-3.8,3.8V73.2c0,2.1,1.7,3.8,3.8,3.8h11.3l-4.6,17.3l26-17.3h85
		c2.1,0,3.8-1.7,3.8-3.8V-41.4C750.7-43.4,749-45.1,746.9-45.1z"/>
	<path class="st2" d="M729.8,51.9h-86c-2.1,0-3.8-1.7-3.8-3.8l0,0c0-2.1,1.7-3.8,3.8-3.8h86c2.1,0,3.8,1.7,3.8,3.8l0,0
		C733.6,50.2,731.9,51.9,729.8,51.9z"/>
	<path class="st2" d="M729.5-29.5h-85.5c-2.2,0-4,1.8-4,4v53.7c0,2.2,1.8,4,4,4h85.5c2.2,0,4-1.8,4-4v-53.7
		C733.5-27.7,731.7-29.5,729.5-29.5z"/>
</g>
<g id="Layer_1_1_" class="st4">
	<g class="st5">
		<rect x="910.5" y="-133.4" class="st6" width="187.4" height="268.5"/>
		<path class="st7" d="M1102-125c0-6.6-5.4-12-12-12H919c-6.6,0-12,5.4-12,12v251c0,6.6,5.4,12,12,12h171c6.6,0,12-5.4,12-12V-125z
			 M1092,126c0,1.1-0.9,2-2,2H919c-1.1,0-2-0.9-2-2v-251c0-1.1,0.9-2,2-2h171c1.1,0,2,0.9,2,2V126z"/>
		<rect x="928.7" y="-116" class="st7" width="151.7" height="206.5"/>
		<rect x="934" y="-110" class="st8" width="141" height="196"/>
		<polygon class="st6" points="934,86 1075,-12.7 1075,86 		"/>
		<circle class="st7" cx="1003.5" cy="101.5" r="6.5"/>
	</g>
	<g class="st5">
		<path class="st9" d="M1228-212h-194c-7.2,0-13,5.8-13,13v129c0,7.1,5.8,13,13,13h7.9l-8.8,32.8c-0.7,2.7,2.2,4.8,4.6,3.3
			l54.6-36.1H1228c7.2,0,13-5.9,13-13v-129C1241-206.2,1235.2-212,1228-212z"/>
		<path class="st3" d="M1225-202h-188c-3.3,0-6,2.7-6,6v123c0,3.3,2.7,6,6,6h18l-7.4,27.6l41.6-27.6H1225c3.3,0,6-2.7,6-6v-123
			C1231-199.3,1228.3-202,1225-202z"/>
		<path class="st9" d="M1197.7-155h-137.4c-3.3,0-6-2.7-6-6l0,0c0-3.3,2.7-6,6-6h137.3c3.3,0,6,2.7,6,6l0,0
			C1203.7-157.7,1201-155,1197.7-155z"/>
		<path class="st9" d="M1197.7-131h-137.4c-3.3,0-6-2.7-6-6l0,0c0-3.3,2.7-6,6-6h137.3c3.3,0,6,2.7,6,6l0,0
			C1203.7-133.7,1201-131,1197.7-131z"/>
		<path class="st9" d="M1197.7-107h-137.4c-3.3,0-6-2.7-6-6l0,0c0-3.3,2.7-6,6-6h137.3c3.3,0,6,2.7,6,6l0,0
			C1203.7-109.7,1201-107,1197.7-107z"/>
	</g>
	<g class="st5">
		<g>
			<path class="st10" d="M1002.3,51.3h111c6.6,0,12.4-4.3,14.3-10.6l13-21.4c1.9-6.3,7.7-10.6,14.3-10.6h61.7"/>
			<g>
				<g>
					<circle class="st8" cx="1003.6" cy="51.3" r="22.6"/>
					<path class="st11" d="M1003.6,76.8c14.1,0,25.6-11.5,25.6-25.6s-11.5-25.6-25.6-25.6S978,37.1,978,51.2S989.5,76.8,1003.6,76.8
						C1017.7,76.8,989.5,76.8,1003.6,76.8z M1003.6,31.7c10.8,0,19.6,8.8,19.6,19.6s-8.8,19.6-19.6,19.6S984,62.1,984,51.3
						S992.8,31.7,1003.6,31.7C1014.3,31.7,992.8,31.7,1003.6,31.7z"/>
				</g>
			</g>
			<g>
				<g>
					<circle class="st8" cx="1215.4" cy="8.6" r="22.6"/>
					<path class="st11" d="M1215.4,34.2c-14.1,0-25.6-11.5-25.6-25.6s11.5-25.6,25.6-25.6S1241-5.5,1241,8.6
						S1229.5,34.2,1215.4,34.2S1229.5,34.2,1215.4,34.2z M1215.4-10.9c-10.8,0-19.6,8.8-19.6,19.6s8.8,19.6,19.6,19.6
						s19.6-8.8,19.6-19.6C1235-2.1,1226.2-10.9,1215.4-10.9C1204.7-10.9,1226.2-10.9,1215.4-10.9z"/>
				</g>
			</g>
		</g>
	</g>
	<g class="st5">
		<path class="st11" d="M1212.8,11l-1.8,5.5h-2.3l6-17.5h2.7l6,17.5h-2.4l-2-5.5H1212.8z M1218.6,9.2l-1.7-5
			c-0.4-1.1-0.6-2.2-0.9-3.2h-0.1c-0.3,1-0.5,2.1-0.9,3.2l-1.7,5.1h5.3V9.2z"/>
	</g>
	<rect x="265" y="-165" class="st12" width="600" height="400"/>
</g>
<g>
	<g>
		<path class="st0" d="M441.4-0.8v129.9c0,4.9,4,8.9,8.9,8.9h93.3l37.5,24.8c1.6,1,3.6-0.4,3.2-2.3l-6-22.5h5.4
			c4.9,0,8.9-4.1,8.9-8.9V-0.8c0-4.9-4-8.9-8.9-8.9H450.3C445.4-9.7,441.4-5.7,441.4-0.8z"/>
		<path class="st1" d="M448.3,1.3v125.8c0,2.3,1.9,4.1,4.1,4.1h93.3l28.6,19l-5.1-19h12.4c2.3,0,4.1-1.9,4.1-4.1V1.3
			c0-2.3-1.9-4.1-4.1-4.1H452.4C450.1-2.8,448.3-1,448.3,1.3z"/>
	</g>
	<g>
		<path class="st1" d="M493.9,30.4l6-20.9c0.2-0.8,1.1-1.3,1.9-1.1c0.8,0.2,1.3,1.1,1.1,1.9l-6,20.9c-0.2,0.7-0.8,1.1-1.5,1.1
			c-0.1,0-0.3,0-0.4-0.1C494.2,32.1,493.7,31.2,493.9,30.4z"/>
		<path class="st1" d="M501.9,35.1l13.6-16.9c0.5-0.7,1.5-0.8,2.1-0.2c0.7,0.5,0.8,1.5,0.2,2.1L504.3,37c-0.3,0.4-0.7,0.6-1.2,0.6
			c-0.3,0-0.7-0.1-1-0.3C501.5,36.7,501.4,35.7,501.9,35.1z"/>
		<path class="st1" d="M508.7,40l19.5-8.8c0.8-0.4,1.7,0,2,0.8c0.3,0.8,0,1.7-0.8,2L510,42.8c-0.2,0.1-0.4,0.1-0.6,0.1
			c-0.6,0-1.1-0.3-1.4-0.9C507.6,41.2,508,40.3,508.7,40z"/>
		<g>
			<path class="st0" d="M556.4,96.9l-15.8-14.7c0,0,0,0,0,0c-1.8-1.7-4.9-1.6-6.6,0.2l-6.9,7.2c-1.5,1.6-3.8,0.6-11.1-5
				c-5.2-4-10.2-8.7-14.2-13.4c-4-4.6-4.9-7-3.5-8.5l1.9-1.6l5.8-5.7c0.1-0.1,0.2-0.2,0.3-0.3c1.9-2.6-1-5.2-2.2-6.2
				c0,0,0-0.1-0.1-0.1c0,0-15.2-14.8-15.6-15.1l0,0c-1.8-1.7-4.5-1.7-6.2,0.2l-5.3,5.7l-1.4,1.7c-0.1,0.2-13.4,18.6,20,50.8
				c19,18.2,33.2,22.3,42.1,22.3c0.3,0,0.7,0,1,0c5.8-0.2,9.6-2.2,11-3.7l7.1-7.2c0.9-1,1.4-2.2,1.3-3.5
				C557.7,98.7,557.2,97.6,556.4,96.9z M484.3,36.1c0.3-0.3,0.6-0.5,1-0.5c0.3,0,0.6,0.1,0.9,0.4v0c0.8,0.8,3.6,3.6,15.4,15
				c0.1,0.1,0.1,0.2,0.2,0.2c1.9,1.6,1.9,2.1,1.8,2.2L499,58c-3.1-3-15.3-14.8-18.4-17.9L484.3,36.1z M538.3,111.3
				c-6.7,0.2-20.9-2.2-40.8-21.5c-26.1-25.1-23-42.2-19.7-46.6l0.8-0.9c1.5,1.5,5.9,5.7,18.2,17.6l-0.6,0.6c-4,4.2,0.8,9.8,3.3,12.7
				c4.2,4.8,9.4,9.7,14.7,13.8c6.3,4.9,11.3,8.7,15.2,4.6l0.3-0.4c3.2,3.1,14.5,13.9,17.7,17l-0.2,0.2
				C546.3,109.4,543.4,111.2,538.3,111.3z M554.2,101.3l-4.8,4.9c-11.9-11.4-16.2-15.6-17.7-17.1l4.5-4.7c0.6-0.6,1.6-0.7,2.2-0.1
				c0,0,0,0,0,0l15.9,14.8c0.2,0.2,0.3,0.5,0.3,0.8C554.7,100.5,554.5,101,554.2,101.3z M493.9,30.4l6-20.9c0.2-0.8,1.1-1.3,1.9-1.1
				c0.8,0.2,1.3,1.1,1.1,1.9l-6,20.9c-0.2,0.7-0.8,1.1-1.5,1.1c-0.1,0-0.3,0-0.4-0.1C494.2,32.1,493.7,31.2,493.9,30.4z M501.9,35.1
				l13.6-16.9c0.5-0.7,1.5-0.8,2.1-0.2c0.7,0.5,0.8,1.5,0.2,2.1L504.3,37c-0.3,0.4-0.7,0.6-1.2,0.6c-0.3,0-0.7-0.1-1-0.3
				C501.5,36.7,501.4,35.7,501.9,35.1z M508.7,40l19.5-8.8c0.8-0.4,1.7,0,2,0.8c0.3,0.8,0,1.7-0.8,2L510,42.8
				c-0.2,0.1-0.4,0.1-0.6,0.1c-0.6,0-1.1-0.3-1.4-0.9C507.6,41.2,508,40.3,508.7,40z"/>
		</g>
	</g>
</g>
<g>
	<path class="st2" d="M679.9-86.9H558.5c-4.5,0-8.1,3.6-8.1,8.1V2c0,4.4,3.6,8.1,8.1,8.1h4.9l-5.5,20.5c-0.4,1.7,1.4,3,2.9,2.1
		L595,10.1h85c4.5,0,8.1-3.7,8.1-8.1v-80.8C688.1-83.3,684.5-86.9,679.9-86.9z"/>
	<path class="st3" d="M678.1-80.7H560.4c-2.1,0-3.8,1.7-3.8,3.8v77c0,2.1,1.7,3.8,3.8,3.8h11.3L567,21.1l26-17.3h85
		c2.1,0,3.8-1.7,3.8-3.8v-77C681.8-79,680.1-80.7,678.1-80.7z"/>
	<path class="st2" d="M661-51.2h-86c-2.1,0-3.8-1.7-3.8-3.8l0,0c0-2.1,1.7-3.8,3.8-3.8h86c2.1,0,3.8,1.7,3.8,3.8l0,0
		C664.7-52.9,663-51.2,661-51.2z"/>
	<path class="st2" d="M661-36.2h-86c-2.1,0-3.8-1.7-3.8-3.8l0,0c0-2.1,1.7-3.8,3.8-3.8h86c2.1,0,3.8,1.7,3.8,3.8l0,0
		C664.7-37.9,663-36.2,661-36.2z"/>
	<path class="st2" d="M661-21.2h-86c-2.1,0-3.8-1.7-3.8-3.8l0,0c0-2.1,1.7-3.8,3.8-3.8h86c2.1,0,3.8,1.7,3.8,3.8l0,0
		C664.7-22.9,663-21.2,661-21.2z"/>
</g>
</svg>
