<?xml version="1.0" encoding="utf-8"?>
<!-- Generator: Adobe Illustrator 19.1.0, SVG Export Plug-In . SVG Version: 6.00 Build 0)  -->
<svg version="1.1" id="Layer_1" xmlns="http://www.w3.org/2000/svg" xmlns:xlink="http://www.w3.org/1999/xlink" x="0px" y="0px"
	 viewBox="266 -125 602 320" style="enable-background:new 266 -125 602 320;" xml:space="preserve">
<style type="text/css">
	.st0{display:none;}
	.st1{display:inline;}
	.st2{fill:#D6E3E8;}
	.st3{fill:#78BDE1;}
	.st4{fill:#FFFFFF;}
	.st5{fill:#E22726;}
	.st6{fill:#FCD9D9;}
	.st7{fill:none;stroke:#B0D235;stroke-width:12;stroke-miterlimit:10;}
	.st8{fill:#B0D235;}
	.st9{display:inline;fill:#78BDE1;}
	.st10{fill:#4F95BA;}
	.st11{fill:#AFD136;}
	.st12{opacity:0.5;enable-background:new    ;}
	.st13{fill:#D5E2E7;}
	.st14{fill:#333333;}
	.st15{fill:#77BCE0;}
	.st16{fill:#E12526;}
	.st17{fill:#4D4C4C;}
	.st18{fill:#CCCBCB;}
	.st19{opacity:0.5;}
	.st20{fill:#EF504E;}
	.st21{fill:#FDC053;}
	.st22{fill:#8BC43F;}
	.st23{fill:none;stroke:#FFFFFF;stroke-miterlimit:10;}
	.st24{fill:#E29A9A;stroke:#E12526;stroke-miterlimit:10;}
	.st25{opacity:0.5;clip-path:url(#SVGID_2_);}
	.st26{fill:#77BDE1;}
</style>
<g id="Layer_1_1_" class="st0">
	<g class="st1">
		<rect x="1442.5" y="-383.4" class="st2" width="187.4" height="268.5"/>
		<path class="st3" d="M1634-375c0-6.6-5.4-12-12-12h-171c-6.6,0-12,5.4-12,12v251c0,6.6,5.4,12,12,12h171c6.6,0,12-5.4,12-12V-375z
			 M1624-124c0,1.1-0.9,2-2,2h-171c-1.1,0-2-0.9-2-2v-251c0-1.1,0.9-2,2-2h171c1.1,0,2,0.9,2,2V-124z"/>
		<rect x="1460.7" y="-366" class="st3" width="151.7" height="206.5"/>
		<rect x="1466" y="-360" class="st4" width="141" height="196"/>
		<polygon class="st2" points="1466,-164 1607,-262.7 1607,-164 		"/>
		<circle class="st3" cx="1535.5" cy="-148.5" r="6.5"/>
	</g>
	<g class="st1">
		<path class="st5" d="M1760-462h-194c-7.2,0-13,5.8-13,13v129c0,7.1,5.8,13,13,13h7.9l-8.8,32.8c-0.7,2.7,2.2,4.8,4.6,3.3
			l54.6-36.1H1760c7.2,0,13-5.9,13-13v-129C1773-456.2,1767.2-462,1760-462z"/>
		<path class="st6" d="M1757-452h-188c-3.3,0-6,2.7-6,6v123c0,3.3,2.7,6,6,6h18l-7.4,27.6l41.6-27.6H1757c3.3,0,6-2.7,6-6v-123
			C1763-449.3,1760.3-452,1757-452z"/>
		<path class="st5" d="M1729.7-405h-137.4c-3.3,0-6-2.7-6-6l0,0c0-3.3,2.7-6,6-6h137.3c3.3,0,6,2.7,6,6l0,0
			C1735.7-407.7,1733-405,1729.7-405z"/>
		<path class="st5" d="M1729.7-381h-137.4c-3.3,0-6-2.7-6-6l0,0c0-3.3,2.7-6,6-6h137.3c3.3,0,6,2.7,6,6l0,0
			C1735.7-383.7,1733-381,1729.7-381z"/>
		<path class="st5" d="M1729.7-357h-137.4c-3.3,0-6-2.7-6-6l0,0c0-3.3,2.7-6,6-6h137.3c3.3,0,6,2.7,6,6l0,0
			C1735.7-359.7,1733-357,1729.7-357z"/>
	</g>
	<g class="st1">
		<g>
			<path class="st7" d="M1534.3-198.7h111c6.6,0,12.4-4.3,14.3-10.6l13-21.4c1.9-6.3,7.7-10.6,14.3-10.6h61.7"/>
			<g>
				<g>
					<circle class="st4" cx="1535.6" cy="-198.7" r="22.6"/>
					<path class="st8" d="M1535.6-173.2c14.1,0,25.6-11.5,25.6-25.6s-11.5-25.6-25.6-25.6s-25.6,11.5-25.6,25.6
						S1521.5-173.2,1535.6-173.2S1521.5-173.2,1535.6-173.2z M1535.6-218.3c10.8,0,19.6,8.8,19.6,19.6c0,10.8-8.8,19.6-19.6,19.6
						s-19.6-8.8-19.6-19.6C1516-209.5,1524.8-218.3,1535.6-218.3C1546.3-218.3,1524.8-218.3,1535.6-218.3z"/>
				</g>
			</g>
			<g>
				<g>
					<circle class="st4" cx="1747.4" cy="-241.4" r="22.6"/>
					<path class="st8" d="M1747.4-215.8c-14.1,0-25.6-11.5-25.6-25.6c0-14.1,11.5-25.6,25.6-25.6s25.6,11.5,25.6,25.6
						C1773-227.3,1761.5-215.8,1747.4-215.8S1761.5-215.8,1747.4-215.8z M1747.4-260.9c-10.8,0-19.6,8.8-19.6,19.6
						c0,10.8,8.8,19.6,19.6,19.6s19.6-8.8,19.6-19.6C1767-252.1,1758.2-260.9,1747.4-260.9C1736.7-260.9,1758.2-260.9,1747.4-260.9z
						"/>
				</g>
			</g>
		</g>
	</g>
	<g class="st1">
		<path class="st8" d="M1744.8-239l-1.8,5.5h-2.3l6-17.5h2.7l6,17.5h-2.4l-2-5.5H1744.8z M1750.6-240.8l-1.7-5
			c-0.4-1.1-0.6-2.2-0.9-3.2h-0.1c-0.3,1-0.5,2.1-0.9,3.2l-1.7,5.1L1750.6-240.8L1750.6-240.8L1750.6-240.8z"/>
	</g>
	<rect x="797" y="-415" class="st9" width="600" height="400"/>
</g>
<g>
	<g>
		<path class="st10" d="M818.8,137.2h-359c-5.7,0-10.3-4.7-10.3-10.3v-9.4c0-2.8,2.4-5.1,5.1-5.1h369.3c2.8,0,5.1,2.4,5.1,5.1v9.4
			C828.9,132.5,824.4,137.2,818.8,137.2z"/>
		<path class="st10" d="M790-87.4H488.5c-5.7,0-10.3,4.7-10.3,10.3V137h322.2V-77.1C800.3-82.8,795.6-87.4,790-87.4z"/>
	</g>
	<path class="st11" d="M791,112.2H487.3V-72.2c0-2.8,2.4-5.1,5.1-5.1h293.1c2.8,0,5.1,2.4,5.1,5.1L791,112.2L791,112.2z"/>
	<path class="st11" d="M793,124.7h21.4c1.1,0,2-0.9,2-2l0,0c0-1.1-0.9-2-2-2H793c-1.1,0-2,0.9-2,2l0,0
		C791,123.8,791.8,124.7,793,124.7z"/>
	<circle class="st11" cx="784.7" cy="122.8" r="2.4"/>
	<path class="st12" d="M602.8,112.2v3c0,1.4,1,2.4,2.4,2.4h70.4c1.4,0,2.4-1,2.4-2.4v-3H602.8z"/>
	<path class="st4" d="M776.7,100.3H504.1c-1.5,0-2.6-1.1-2.6-2.6V-62.9c0-1.4,1.1-2.6,2.6-2.6h272.7c1.4,0,2.6,1.2,2.6,2.6V97.8
		C779.3,99.1,778.1,100.3,776.7,100.3z"/>
	<path class="st13" d="M779.3,98V-51.2H501.5V98c0,1.4,1,2.4,2.4,2.4h273.1C778.2,100.3,779.3,99.1,779.3,98z"/>
	<path class="st14" d="M556.3-51.2h-54.9V98c0,1.4,1,2.4,2.4,2.4h52.5V-51.2z"/>
	<rect x="556.3" y="-33.6" class="st14" width="141.6" height="14.9"/>
	<rect x="556.3" y="-19" class="st15" width="141.6" height="7.4"/>
	<rect x="701.9" y="-45.7" class="st4" width="72.4" height="35"/>
	<rect x="704.5" y="-43.2" class="st13" width="67.1" height="29.8"/>
	<rect x="701.9" y="-3.7" class="st4" width="72.4" height="35"/>
	<rect x="704.5" y="-1.1" class="st13" width="67.1" height="29.8"/>
	<rect x="504.6" y="-17" class="st16" width="47.8" height="7.4"/>
	<rect x="504.6" y="-28" width="47.8" height="7.4"/>
	<rect x="504.6" y="-8.5" class="st17" width="47.8" height="7.4"/>
	<rect x="504.6" y="0" class="st17" width="47.8" height="7.4"/>
	<rect x="504.6" y="8.4" class="st17" width="47.8" height="7.4"/>
	<rect x="504.6" y="17" class="st17" width="47.8" height="7.4"/>
	<g>
		<rect x="561.1" y="-6" class="st4" width="133.2" height="37.6"/>
		<rect x="565.5" y="-1.7" class="st16" width="18.1" height="3.5"/>
		<rect x="565.5" y="6.2" class="st18" width="125.5" height="2.1"/>
		<rect x="565.5" y="10.3" class="st18" width="125.5" height="2.1"/>
		<rect x="565.5" y="14.4" class="st18" width="125.5" height="2.1"/>
		<rect x="565.5" y="18.6" class="st18" width="125.5" height="2.1"/>
	</g>
	<g class="st19">
		<rect x="561.1" y="37" class="st4" width="133.2" height="37.6"/>
		<rect x="565.5" y="41.3" class="st16" width="18.1" height="3.5"/>
		<rect x="565.5" y="49.2" class="st18" width="125.5" height="2.1"/>
		<rect x="565.5" y="53.3" class="st18" width="125.5" height="2.1"/>
		<rect x="565.5" y="57.5" class="st18" width="125.5" height="2.1"/>
		<rect x="565.5" y="61.6" class="st18" width="125.5" height="2.1"/>
	</g>
	<circle class="st20" cx="509.8" cy="-58.2" r="2.5"/>
	<circle class="st21" cx="517.3" cy="-58.2" r="2.5"/>
	<circle class="st22" cx="524.7" cy="-58.2" r="2.5"/>
	<g>
		<g>
			<path class="st4" d="M538.6-43.7c-0.1,0-0.1,0.1-0.2,0.2l-3.8,8.6v0.1c0,0,0,0,0.1,0l9.2-1.4c0.2,0,0.2-0.1,0.2-0.1
				c0.5-0.4-0.2-2.5-1.8-4.5C540.7-42.8,539.1-44,538.6-43.7z M535.9-35.6c-0.1,0-0.1,0-0.2,0c0,0,0-0.1,0-0.2l1.2-2.7
				c0,0.1,0,0.1,0.1,0.2c0.1,0.3,0.3,0.8,0.6,1.2c0.3,0.4,0.6,0.9,1.1,1L535.9-35.6z M542.5-36.5l-2.9,0.4l0,0l0,0h-0.1
				c-0.4,0-1-0.4-1.6-1.1c-0.2-0.3-0.5-0.8-0.5-1.1c-0.1-0.3-0.1-0.5-0.1-0.6l1.2-2.8h0.1c0,0.2,0.1,0.2,0.2,0.4
				c0.2,0.5,0.5,1.1,0.9,1.7l-0.8,1.7l0,0l0,0l1.8-0.2c0.4,0.5,0.9,1,1.4,1.4C542.1-36.8,542.3-36.6,542.5-36.5L542.5-36.5z
				 M540.5-39.2c0.2,0.2,0.4,0.5,0.5,0.6c0,0,0,0,0.1,0v0.1H541c-0.2-0.2-0.3-0.4-0.5-0.6c-0.2-0.2-0.3-0.4-0.4-0.6l0.1-0.2h0.1v0.1
				C540.2-39.9,540.4-39.6,540.5-39.2z M540.2-40.6L540.2-40.6L540.2-40.6H540h-0.2l0,0l0,0l0,0l0.2,0.2h0.1v-0.2
				C540.2-40.4,540.2-40.6,540.2-40.6L540.2-40.6c0.2-0.1,0.5,0.2,1,0.8s0.6,1.1,0.5,1.2l0,0v-0.4v-0.4l0,0v0.4v-0.2v-0.2l0,0l0,0
				l0,0l0,0l0,0l0,0l0,0v0.4c-0.2,0-0.5-0.2-0.9-0.5C540.4-40.1,540.2-40.3,540.2-40.6z M540.1-38.8c0.2,0.2,0.2,0.3,0.4,0.5
				l-1.2,0.2l0,0c0,0,0,0,0-0.1l0,0l0.5-1.1C539.9-39.2,540-39.1,540.1-38.8z M543.5-36.6L543.5-36.6L543.5-36.6
				C543.4-36.6,543.4-36.6,543.5-36.6C543.4-36.6,543.4-36.6,543.5-36.6C543.4-36.6,543.4-36.6,543.5-36.6
				C543.4-36.6,543.4-36.6,543.5-36.6C543.4-36.5,543.4-36.5,543.5-36.6L543.5-36.6L543.5-36.6L543.5-36.6L543.5-36.6l-0.1,0.4v0.3
				l0,0v-0.3c-0.4,0-1.4-0.9-2.1-1.8l0.6-0.2c0.1,0,0.1-0.1,0.1-0.1c0.2-0.2-0.1-0.8-0.5-1.5c-0.5-0.6-1-1-1.2-0.9c0,0,0,0-0.1,0.1
				L540-40c-0.8-1.2-1.1-2.3-1-2.7l0,0l0,0l0,0l0,0l0,0l0,0l0,0l0,0l0,0c0,0,0,0,0.1-0.1l0,0l0,0c0.4-0.3,1.8,0.8,3.1,2.5
				C543.2-38.6,544-37,543.5-36.6z"/>
			<path class="st4" d="M545-42.7c-0.1-0.1-0.2-0.1-0.3-0.1l-1.9,1.5c-0.1,0.1-0.1,0.2-0.1,0.3c0,0.1,0.2,0.1,0.3,0.1l1.9-1.5
				C545-42.5,545.1-42.6,545-42.7z"/>
			<path class="st4" d="M544.6-41l-1.1,0.3c-0.1,0-0.2,0.2-0.2,0.2l0.2,0.2l1.1-0.3c0.1,0,0.2-0.2,0.2-0.2S544.7-41,544.6-41z"/>
			<path class="st4" d="M542.7-41.6l0.6-1c0.1-0.1,0.1-0.2-0.1-0.3c-0.1-0.1-0.2-0.1-0.3,0.1l-0.6,1c-0.1,0.1-0.1,0.2,0.1,0.3
				C542.5-41.5,542.6-41.5,542.7-41.6z"/>
		</g>
		<path class="st4" d="M512.9-40.2v5.5h-1.1v-5.8h0.9C512.7-40.6,512.9-40.3,512.9-40.2z"/>
		<path class="st4" d="M512.9-41.2L512.9-41.2c-0.5,0-1.1-0.5-1.1-1.1v-0.2l0,0c0.5,0,1.1,0.5,1.1,1.1V-41.2z"/>
		<path class="st4" d="M515.1-39.9c0.4-0.3,1-0.6,1.8-0.6s1.5,0.4,1.6,1.2c0,0.2,0,0.5,0,0.6v4.1h-1.1v-3.9c0-0.2,0-0.3,0-0.5
			c-0.1-0.4-0.3-0.5-0.8-0.5c-0.5,0-1,0.3-1.4,0.5v4.4h-1.1v-5.8h0.8c0.2,0,0.2,0.1,0.3,0.2L515.1-39.9z"/>
		<path class="st4" d="M520.7-39.7c0.2-0.2,0.9-0.5,1.7-0.5c1,0,1.8,0.8,1.8,2.6c0,2-0.6,3.4-2.6,3.4c-0.8,0-1.5-0.2-2-0.5v-7.8h1.1
			L520.7-39.7L520.7-39.7z M520.7-35.4c0.2,0.1,0.5,0.2,0.9,0.2c1,0,1.4-1,1.4-2.3c0-1.5-0.3-1.9-0.9-1.9c-0.4,0-0.9,0.3-1.2,0.5
			v3.3h-0.2V-35.4z"/>
		<path class="st4" d="M526.4-40.2v5.5h-1.1v-5.8h0.9C526.4-40.6,526.4-40.3,526.4-40.2z M526.4-41.2L526.4-41.2
			c-0.5,0-1.1-0.5-1.1-1.1v-0.2l0,0c0.5,0,1.1,0.5,1.1,1.1V-41.2z"/>
		<path class="st4" d="M535.7-40.6h-1.2l-1.7,3.9c-0.1,0.1-0.1,0.2-0.2,0.2l-1.4-3.9c-0.1-0.2-0.2-0.2-0.3-0.2l0,0h-1.7
			c0-0.3,0-0.5,0.1-0.8c0.1-0.2,0.2-0.3,0.8-0.3c0.3,0,0.8,0.1,0.9,0.2l0.1-0.9c-0.2-0.1-0.8-0.2-1.1-0.2c-1.2,0-1.7,0.5-1.9,1.5
			c0,0.2-0.1,0.5-0.1,0.5h-0.5v1.1h0.6v4.7h1.2v-4.7h1.1l1.7,4.4c-0.4,1-0.6,1.7-1.4,1.7c-0.4,0-0.8-0.2-1.4-0.3l-0.3,1
			c0.3,0.2,0.9,0.4,1.7,0.4c1.4,0,1.9-1.1,2.6-2.6c0.2-0.3,0.2-0.6,0.4-1L535.7-40.6z"/>
	</g>
	<line class="st23" x1="697.9" y1="-51.2" x2="697.9" y2="100.3"/>
	<polygon class="st24" points="771.1,11.2 766.9,11.6 756.7,26.3 750.1,12.4 738,24.8 735.8,13.9 726.8,24.4 724.1,17.9 712.4,24.4 
		709.7,10.3 705,28.6 771.1,28.6 	"/>
	<polygon class="st24" points="771.1,-31.2 766.9,-31.1 756.7,-16.3 750.1,-30.3 738,-17.8 735.8,-28.8 726.8,-18.3 724.1,-24.8 
		712.4,-18.3 709.7,-32.4 705,-14.1 771.1,-14.1 	"/>
	<g>
		<g>
			<g>
				<g>
					<defs>
						<path id="SVGID_1_" d="M779.3,98V-51.2H501.5V98c0,1.4,1,2.4,2.4,2.4h273.1C778.2,100.3,779.3,99.1,779.3,98z"/>
					</defs>
					<clipPath id="SVGID_2_">
						<use xlink:href="#SVGID_1_"  style="overflow:visible;"/>
					</clipPath>
					<g class="st25">
						<rect x="561.1" y="81.6" class="st4" width="133.2" height="37.6"/>
						<rect x="565.5" y="85.7" class="st16" width="18.1" height="3.5"/>
						<rect x="565.5" y="93.7" class="st18" width="125.5" height="2.1"/>
						<rect x="565.5" y="97.9" class="st18" width="125.5" height="2.1"/>
						<rect x="565.5" y="101.9" class="st18" width="125.5" height="2.1"/>
						<rect x="565.5" y="106.1" class="st18" width="125.5" height="2.1"/>
					</g>
				</g>
			</g>
		</g>
	</g>
</g>
<g>
	<rect x="308.7" y="-47.2" class="st4" width="137.1" height="196.5"/>
	<path class="st10" d="M448.9-41c0-4.8-4-8.8-8.8-8.8H314.9c-4.8,0-8.8,4-8.8,8.8v183.7c0,4.8,4,8.8,8.8,8.8h125.2
		c4.8,0,8.8-4,8.8-8.8V-41L448.9-41z M441.5,142.7c0,0.8-0.7,1.4-1.4,1.4H314.9c-0.8,0-1.4-0.7-1.4-1.4V-41c0-0.8,0.7-1.4,1.4-1.4
		h125.2c0.8,0,1.4,0.7,1.4,1.4V142.7L441.5,142.7z"/>
	<rect x="322" y="-34.4" class="st26" width="111" height="151.1"/>
	<rect x="325.9" y="-30" class="st13" width="103.2" height="143.5"/>
	<circle class="st26" cx="376.8" cy="124.7" r="4.7"/>
	<path class="st4" d="M422,66.7h-88.2c-1.3,0-2.5,1.2-2.5,2.5v24.6c0,1.3,1.2,2.5,2.5,2.5H422c1.3,0,2.5-1.2,2.5-2.5V69.3
		C424.5,67.8,423.4,66.7,422,66.7z"/>
	<path class="st16" d="M407.3,105.6H422c1.3,0,2.5-1.2,2.5-2.5v-1.2c0-1.3-1.2-2.5-2.5-2.5h-14.7c-1.3,0-2.5,1.2-2.5,2.5v1.2
		C404.7,104.4,405.9,105.6,407.3,105.6z"/>
	<path class="st10" d="M402.6,53.1h-67.9c-1.2,0-2.1,0.9-2.1,2.1l0,0c0,1.2,0.9,2.1,2.1,2.1h67.9c1.2,0,2.1-0.9,2.1-2.1l0,0
		C404.7,54.1,403.8,53.1,402.6,53.1z"/>
	<path class="st10" d="M402.6,46.1h-67.9c-1.2,0-2.1,0.9-2.1,2.1l0,0c0,1.2,0.9,2.1,2.1,2.1h67.9c1.2,0,2.1-0.9,2.1-2.1l0,0
		C404.7,47,403.8,46.1,402.6,46.1z"/>
	<path class="st10" d="M361.9,39.1h-27.3c-1.2,0-2.1,0.9-2.1,2.1l0,0c0,1.2,0.9,2.1,2.1,2.1h27.3c1.2,0,2.1-0.9,2.1-2.1l0,0
		C364.1,40.1,363.1,39.1,361.9,39.1z"/>
	<path class="st10" d="M402.6,25.6h-67.9c-1.2,0-2.1,0.9-2.1,2.1l0,0c0,1.2,0.9,2.1,2.1,2.1h67.9c1.2,0,2.1-0.9,2.1-2.1l0,0
		C404.7,26.6,403.8,25.6,402.6,25.6z"/>
	<path class="st10" d="M402.6,18.6h-67.9c-1.2,0-2.1,0.9-2.1,2.1l0,0c0,1.2,0.9,2.1,2.1,2.1h67.9c1.2,0,2.1-0.9,2.1-2.1l0,0
		C404.7,19.6,403.8,18.6,402.6,18.6z"/>
	<path class="st10" d="M361.9,11.6h-27.3c-1.2,0-2.1,0.9-2.1,2.1l0,0c0,1.2,0.9,2.1,2.1,2.1h27.3c1.2,0,2.1-0.9,2.1-2.1l0,0
		C364.1,12.5,363.1,11.6,361.9,11.6z"/>
	<path class="st10" d="M361.9-0.7h-27.3c-1.2,0-2.1,0.9-2.1,2.1l0,0c0,1.2,0.9,2.1,2.1,2.1h27.3c1.2,0,2.1-0.9,2.1-2.1l0,0
		C364.1,0.2,363.1-0.7,361.9-0.7z"/>
</g>
<g>
	<rect x="400.5" y="57.7" class="st4" width="68.1" height="103.9"/>
	<path class="st10" d="M470.2,61c0-2.5-2.1-4.6-4.6-4.6h-61.8c-2.5,0-4.6,2.1-4.6,4.6v97.2c0,2.5,2.1,4.6,4.6,4.6h61.8
		c2.5,0,4.6-2.1,4.6-4.6V61z M466.4,158.2c0,0.4-0.3,0.8-0.8,0.8h-61.8c-0.4,0-0.8-0.3-0.8-0.8V61c0-0.4,0.3-0.8,0.8-0.8h61.8
		c0.4,0,0.8,0.3,0.8,0.8V158.2z"/>
	<rect x="407.5" y="64.4" class="st26" width="54.3" height="80"/>
	<rect x="409.6" y="66.7" class="st4" width="50.1" height="9.1"/>
	<rect x="409.6" y="80.1" class="st4" width="50.1" height="61.6"/>
	<circle class="st26" cx="436.5" cy="148.7" r="2.5"/>
	<rect x="409.6" y="80.1" class="st4" width="11.5" height="6.6"/>
	<rect x="422.5" y="80.1" class="st14" width="11.5" height="6.6"/>
	<rect x="435.4" y="80.1" class="st14" width="11.5" height="6.6"/>
	<rect x="448.3" y="80.1" class="st14" width="11.5" height="6.6"/>
	<rect x="411.3" y="89.4" class="st13" width="46.6" height="30.3"/>
	<rect x="411.3" y="124.5" class="st13" width="46.6" height="17.3"/>
	<rect x="411.3" y="124.5" class="st13" width="46.6" height="17.3"/>
	<polygon class="st24" points="413.6,117.7 420.9,93.7 425.3,114 430.8,105 436.3,114.4 441.1,98.8 447.5,114.4 456,105.8 
		456,117.7 	"/>
	<path class="st24" d="M420,141.7h28c-1.9-6-7.5-10.2-14-10.2S421.9,135.7,420,141.7z"/>
</g>
</svg>
