<?xml version="1.0" encoding="utf-8"?>
<!-- Generator: Adobe Illustrator 19.1.0, SVG Export Plug-In . SVG Version: 6.00 Build 0)  -->
<svg version="1.1" id="Layer_1" xmlns="http://www.w3.org/2000/svg" xmlns:xlink="http://www.w3.org/1999/xlink" x="0px" y="0px"
	 viewBox="201 -60 602 320" style="enable-background:new 201 -60 602 320;" xml:space="preserve">
<style type="text/css">
	.st0{display:none;}
	.st1{display:inline;}
	.st2{fill:#D6E3E8;}
	.st3{fill:#78BDE1;}
	.st4{fill:#FFFFFF;}
	.st5{fill:#E22726;}
	.st6{fill:#FCD9D9;}
	.st7{fill:none;stroke:#B0D235;stroke-width:12;stroke-miterlimit:10;}
	.st8{fill:#B0D235;}
	.st9{display:inline;fill:#78BDE1;}
	.st10{fill:#4F95BA;}
	.st11{fill:#77BDE1;}
	.st12{fill:#AFD136;}
	.st13{opacity:0.5;enable-background:new    ;}
	.st14{fill:#D5E2E7;}
	.st15{fill:#333333;}
	.st16{fill:#77BCE0;}
	.st17{fill:#E12526;}
	.st18{fill:#4D4C4C;}
	.st19{fill:#CCCBCB;}
	.st20{opacity:0.5;}
	.st21{fill:#EF504E;}
	.st22{fill:#FDC053;}
	.st23{fill:#8BC43F;}
	.st24{fill:none;stroke:#FFFFFF;stroke-miterlimit:10;}
	.st25{fill:#E29A9A;stroke:#E12526;stroke-miterlimit:10;}
	.st26{opacity:0.5;clip-path:url(#SVGID_2_);}
</style>
<g id="Layer_1_1_" class="st0">
	<g class="st1">
		<rect x="1643.5" y="-443.4" class="st2" width="187.4" height="268.5"/>
		<path class="st3" d="M1835-435c0-6.6-5.4-12-12-12h-171c-6.6,0-12,5.4-12,12v251c0,6.6,5.4,12,12,12h171c6.6,0,12-5.4,12-12V-435z
			 M1825-184c0,1.1-0.9,2-2,2h-171c-1.1,0-2-0.9-2-2v-251c0-1.1,0.9-2,2-2h171c1.1,0,2,0.9,2,2V-184z"/>
		<rect x="1661.7" y="-426" class="st3" width="151.7" height="206.5"/>
		<rect x="1667" y="-420" class="st4" width="141" height="196"/>
		<polygon class="st2" points="1667,-224 1808,-322.7 1808,-224 		"/>
		<circle class="st3" cx="1736.5" cy="-208.5" r="6.5"/>
	</g>
	<g class="st1">
		<path class="st5" d="M1961-522h-194c-7.2,0-13,5.8-13,13v129c0,7.1,5.8,13,13,13h7.9l-8.8,32.8c-0.7,2.7,2.2,4.8,4.6,3.3
			l54.6-36.1H1961c7.2,0,13-5.9,13-13v-129C1974-516.2,1968.2-522,1961-522z"/>
		<path class="st6" d="M1958-512h-188c-3.3,0-6,2.7-6,6v123c0,3.3,2.7,6,6,6h18l-7.4,27.6l41.6-27.6H1958c3.3,0,6-2.7,6-6v-123
			C1964-509.3,1961.3-512,1958-512z"/>
		<path class="st5" d="M1930.7-465h-137.4c-3.3,0-6-2.7-6-6l0,0c0-3.3,2.7-6,6-6h137.3c3.3,0,6,2.7,6,6l0,0
			C1936.7-467.7,1934-465,1930.7-465z"/>
		<path class="st5" d="M1930.7-441h-137.4c-3.3,0-6-2.7-6-6l0,0c0-3.3,2.7-6,6-6h137.3c3.3,0,6,2.7,6,6l0,0
			C1936.7-443.7,1934-441,1930.7-441z"/>
		<path class="st5" d="M1930.7-417h-137.4c-3.3,0-6-2.7-6-6l0,0c0-3.3,2.7-6,6-6h137.3c3.3,0,6,2.7,6,6l0,0
			C1936.7-419.7,1934-417,1930.7-417z"/>
	</g>
	<g class="st1">
		<g>
			<path class="st7" d="M1735.3-258.7h111c6.6,0,12.4-4.3,14.3-10.6l13-21.4c1.9-6.3,7.7-10.6,14.3-10.6h61.7"/>
			<g>
				<g>
					<circle class="st4" cx="1736.6" cy="-258.7" r="22.6"/>
					<path class="st8" d="M1736.6-233.2c14.1,0,25.6-11.5,25.6-25.6c0-14.1-11.5-25.6-25.6-25.6s-25.6,11.5-25.6,25.6
						C1711-244.7,1722.5-233.2,1736.6-233.2S1722.5-233.2,1736.6-233.2z M1736.6-278.3c10.8,0,19.6,8.8,19.6,19.6
						c0,10.8-8.8,19.6-19.6,19.6s-19.6-8.8-19.6-19.6C1717-269.5,1725.8-278.3,1736.6-278.3C1747.3-278.3,1725.8-278.3,1736.6-278.3
						z"/>
				</g>
			</g>
			<g>
				<g>
					<circle class="st4" cx="1948.4" cy="-301.4" r="22.6"/>
					<path class="st8" d="M1948.4-275.8c-14.1,0-25.6-11.5-25.6-25.6c0-14.1,11.5-25.6,25.6-25.6s25.6,11.5,25.6,25.6
						S1962.5-275.8,1948.4-275.8S1962.5-275.8,1948.4-275.8z M1948.4-320.9c-10.8,0-19.6,8.8-19.6,19.6s8.8,19.6,19.6,19.6
						s19.6-8.8,19.6-19.6C1968-312.1,1959.2-320.9,1948.4-320.9C1937.7-320.9,1959.2-320.9,1948.4-320.9z"/>
				</g>
			</g>
		</g>
	</g>
	<g class="st1">
		<path class="st8" d="M1945.8-299l-1.8,5.5h-2.3l6-17.5h2.7l6,17.5h-2.4l-2-5.5H1945.8z M1951.6-300.8l-1.7-5
			c-0.4-1.1-0.6-2.2-0.9-3.2h-0.1c-0.3,1-0.5,2.1-0.9,3.2l-1.7,5.1L1951.6-300.8L1951.6-300.8L1951.6-300.8z"/>
	</g>
	<rect x="998" y="-475" class="st9" width="600" height="400"/>
</g>
<g>
	<g>
		<path class="st10" d="M753.1,201.3h-359c-5.7,0-10.3-4.7-10.3-10.3v-9.4c0-2.8,2.4-5.1,5.1-5.1h369.3c2.8,0,5.1,2.4,5.1,5.1v9.4
			C763.2,196.6,758.7,201.3,753.1,201.3z"/>
		<path class="st10" d="M724.3-23.3H422.8c-5.7,0-10.3,4.7-10.3,10.3v214.1h322.2V-13C734.6-18.7,729.9-23.3,724.3-23.3z"/>
	</g>
	<path class="st11" d="M725.3,176.3H421.6V-8.1c0-2.8,2.4-5.1,5.1-5.1h293.1c2.8,0,5.1,2.4,5.1,5.1L725.3,176.3L725.3,176.3z"/>
	<path class="st12" d="M727.3,188.8h21.4c1.1,0,2-0.9,2-2l0,0c0-1.1-0.9-2-2-2h-21.4c-1.1,0-2,0.9-2,2l0,0
		C725.3,187.9,726.1,188.8,727.3,188.8z"/>
	<circle class="st12" cx="719" cy="186.9" r="2.4"/>
	<path class="st13" d="M537.1,176.3v3c0,1.4,1,2.4,2.4,2.4h70.4c1.4,0,2.4-1,2.4-2.4v-3H537.1z"/>
	<path class="st4" d="M711,164.4H438.4c-1.5,0-2.6-1.1-2.6-2.6V1.2c0-1.4,1.1-2.6,2.6-2.6h272.7c1.4,0,2.6,1.2,2.6,2.6v160.7
		C713.6,163.2,712.4,164.4,711,164.4z"/>
	<path class="st14" d="M713.6,162.1V12.9H435.8v149.2c0,1.4,1,2.4,2.4,2.4h273.1C712.5,164.4,713.6,163.2,713.6,162.1z"/>
	<path class="st15" d="M490.6,12.9h-54.9v149.2c0,1.4,1,2.4,2.4,2.4h52.5V12.9z"/>
	<rect x="490.6" y="30.5" class="st15" width="141.6" height="14.9"/>
	<rect x="490.6" y="45.1" class="st16" width="141.6" height="7.4"/>
	<rect x="636.2" y="18.4" class="st4" width="72.4" height="35"/>
	<rect x="638.8" y="20.9" class="st14" width="67.1" height="29.8"/>
	<rect x="636.2" y="60.4" class="st4" width="72.4" height="35"/>
	<rect x="638.8" y="63" class="st14" width="67.1" height="29.8"/>
	<rect x="438.9" y="47.1" class="st17" width="47.8" height="7.4"/>
	<rect x="438.9" y="36.1" width="47.8" height="7.4"/>
	<rect x="438.9" y="55.6" class="st18" width="47.8" height="7.4"/>
	<rect x="438.9" y="64.1" class="st18" width="47.8" height="7.4"/>
	<rect x="438.9" y="72.5" class="st18" width="47.8" height="7.4"/>
	<rect x="438.9" y="81.1" class="st18" width="47.8" height="7.4"/>
	<g>
		<rect x="495.4" y="58.1" class="st4" width="133.2" height="37.6"/>
		<rect x="499.8" y="62.4" class="st17" width="18.1" height="3.5"/>
		<rect x="499.8" y="70.3" class="st19" width="125.5" height="2.1"/>
		<rect x="499.8" y="74.4" class="st19" width="125.5" height="2.1"/>
		<rect x="499.8" y="78.5" class="st19" width="125.5" height="2.1"/>
		<rect x="499.8" y="82.7" class="st19" width="125.5" height="2.1"/>
	</g>
	<g class="st20">
		<rect x="495.4" y="101.1" class="st4" width="133.2" height="37.6"/>
		<rect x="499.8" y="105.4" class="st17" width="18.1" height="3.5"/>
		<rect x="499.8" y="113.3" class="st19" width="125.5" height="2.1"/>
		<rect x="499.8" y="117.4" class="st19" width="125.5" height="2.1"/>
		<rect x="499.8" y="121.6" class="st19" width="125.5" height="2.1"/>
		<rect x="499.8" y="125.7" class="st19" width="125.5" height="2.1"/>
	</g>
	<circle class="st21" cx="444.1" cy="5.9" r="2.5"/>
	<circle class="st22" cx="451.6" cy="5.9" r="2.5"/>
	<circle class="st23" cx="459" cy="5.9" r="2.5"/>
	<g>
		<g>
			<path class="st4" d="M472.9,20.4c-0.1,0-0.1,0.1-0.2,0.2l-3.8,8.6v0.1c0,0,0,0,0.1,0l9.2-1.4c0.2,0,0.2-0.1,0.2-0.1
				c0.5-0.4-0.2-2.5-1.8-4.5C475,21.3,473.4,20.1,472.9,20.4z M470.2,28.5c-0.1,0-0.1,0-0.2,0c0,0,0-0.1,0-0.2l1.2-2.7
				c0,0.1,0,0.1,0.1,0.2c0.1,0.3,0.3,0.8,0.6,1.2s0.6,0.9,1.1,1L470.2,28.5z M476.8,27.6l-2.9,0.4l0,0l0,0h-0.1
				c-0.4,0-1-0.4-1.6-1.1c-0.2-0.3-0.5-0.8-0.5-1.1c-0.1-0.3-0.1-0.5-0.1-0.6l1.2-2.8h0.1c0,0.2,0.1,0.2,0.2,0.4
				c0.2,0.5,0.5,1.1,0.9,1.7l-0.8,1.7l0,0l0,0L475,26c0.4,0.5,0.9,1,1.4,1.4C476.4,27.3,476.6,27.5,476.8,27.6L476.8,27.6z
				 M474.8,24.9c0.2,0.2,0.4,0.5,0.5,0.6c0,0,0,0,0.1,0v0.1h-0.1C475.1,25.4,475,25.2,474.8,24.9c-0.2-0.1-0.3-0.3-0.4-0.5l0.1-0.2
				h0.1v0.1C474.5,24.2,474.7,24.5,474.8,24.9z M474.5,23.5L474.5,23.5L474.5,23.5h-0.2h-0.2l0,0l0,0l0,0l0.2,0.2h0.1v-0.2
				C474.5,23.7,474.5,23.5,474.5,23.5L474.5,23.5c0.2-0.1,0.5,0.2,1,0.8s0.6,1.1,0.5,1.2l0,0v-0.4v-0.4l0,0v0.4v-0.2v-0.2l0,0l0,0
				l0,0l0,0l0,0l0,0l0,0v0.4c-0.2,0-0.5-0.2-0.9-0.5C474.7,24,474.5,23.8,474.5,23.5z M474.4,25.3c0.2,0.2,0.2,0.3,0.4,0.5l-1.2,0.2
				l0,0c0,0,0,0,0-0.1l0,0l0.5-1.1C474.2,24.9,474.3,25,474.4,25.3z M477.8,27.5L477.8,27.5L477.8,27.5
				C477.7,27.5,477.7,27.5,477.8,27.5C477.7,27.5,477.7,27.5,477.8,27.5C477.7,27.5,477.7,27.5,477.8,27.5
				C477.7,27.5,477.7,27.5,477.8,27.5C477.7,27.6,477.7,27.6,477.8,27.5L477.8,27.5L477.8,27.5L477.8,27.5L477.8,27.5l-0.1,0.4v0.3
				l0,0v-0.3c-0.4,0-1.4-0.9-2.1-1.8l0.6-0.2c0.1,0,0.1-0.1,0.1-0.1c0.2-0.2-0.1-0.8-0.5-1.5c-0.5-0.6-1-1-1.2-0.9c0,0,0,0-0.1,0.1
				l-0.2,0.6c-0.8-1.2-1.1-2.3-1-2.7l0,0l0,0l0,0l0,0l0,0l0,0l0,0l0,0l0,0c0,0,0,0,0.1-0.1l0,0l0,0c0.4-0.3,1.8,0.8,3.1,2.5
				C477.5,25.5,478.3,27.1,477.8,27.5z"/>
			<path class="st4" d="M479.3,21.4c-0.1-0.1-0.2-0.1-0.3-0.1l-1.9,1.5c-0.1,0.1-0.1,0.2-0.1,0.3s0.2,0.1,0.3,0.1l1.9-1.5
				C479.3,21.6,479.4,21.5,479.3,21.4z"/>
			<path class="st4" d="M478.9,23.1l-1.1,0.3c-0.1,0-0.2,0.2-0.2,0.2l0.2,0.2l1.1-0.3c0.1,0,0.2-0.2,0.2-0.2S479,23.1,478.9,23.1z"
				/>
			<path class="st4" d="M477,22.5l0.6-1c0.1-0.1,0.1-0.2-0.1-0.3c-0.1-0.1-0.2-0.1-0.3,0.1l-0.6,1c-0.1,0.1-0.1,0.2,0.1,0.3
				C476.8,22.6,476.9,22.6,477,22.5z"/>
		</g>
		<path class="st4" d="M447.2,23.9v5.5h-1.1v-5.8h0.9C447,23.5,447.2,23.8,447.2,23.9z"/>
		<path class="st4" d="M447.2,22.9L447.2,22.9c-0.5,0-1.1-0.5-1.1-1.1v-0.2l0,0c0.5,0,1.1,0.5,1.1,1.1V22.9z"/>
		<path class="st4" d="M449.4,24.2c0.4-0.3,1-0.6,1.8-0.6s1.5,0.4,1.6,1.2c0,0.2,0,0.5,0,0.6v4.1h-1.1v-3.9c0-0.2,0-0.3,0-0.5
			c-0.1-0.4-0.3-0.5-0.8-0.5s-1,0.3-1.4,0.5v4.4h-1.1v-5.8h0.8c0.2,0,0.2,0.1,0.3,0.2L449.4,24.2z"/>
		<path class="st4" d="M455,24.4c0.2-0.2,0.9-0.5,1.7-0.5c1,0,1.8,0.8,1.8,2.6c0,2-0.6,3.4-2.6,3.4c-0.8,0-1.5-0.2-2-0.5v-7.8h1.1
			V24.4L455,24.4z M455,28.7c0.2,0.1,0.5,0.2,0.9,0.2c1,0,1.4-1,1.4-2.3c0-1.5-0.3-1.9-0.9-1.9c-0.4,0-0.9,0.3-1.2,0.5v3.3H455V28.7
			z"/>
		<path class="st4" d="M460.7,23.9v5.5h-1.1v-5.8h0.9C460.7,23.5,460.7,23.8,460.7,23.9z M460.7,22.9L460.7,22.9
			c-0.5,0-1.1-0.5-1.1-1.1v-0.2l0,0c0.5,0,1.1,0.5,1.1,1.1V22.9z"/>
		<path class="st4" d="M470,23.5h-1.2l-1.7,3.9c-0.1,0.1-0.1,0.2-0.2,0.2l-1.4-3.9c-0.1-0.2-0.2-0.2-0.3-0.2l0,0h-1.7
			c0-0.3,0-0.5,0.1-0.8c0.1-0.2,0.2-0.3,0.8-0.3c0.3,0,0.8,0.1,0.9,0.2l0.1-0.9c-0.2-0.1-0.8-0.2-1.1-0.2c-1.2,0-1.7,0.5-1.9,1.5
			c0,0.2-0.1,0.5-0.1,0.5h-0.5v1.1h0.6v4.7h1.2v-4.7h1.1l1.7,4.4c-0.4,1-0.6,1.7-1.4,1.7c-0.4,0-0.8-0.2-1.4-0.3l-0.3,1
			c0.3,0.2,0.9,0.4,1.7,0.4c1.4,0,1.9-1.1,2.6-2.6c0.2-0.3,0.2-0.6,0.4-1L470,23.5z"/>
	</g>
	<line class="st24" x1="632.2" y1="12.9" x2="632.2" y2="164.4"/>
	<polygon class="st25" points="705.4,75.3 701.2,75.7 691,90.4 684.4,76.5 672.3,88.9 670.1,78 661.1,88.5 658.4,82 646.7,88.5 
		644,74.4 639.3,92.7 705.4,92.7 	"/>
	<polygon class="st25" points="705.4,32.9 701.2,33 691,47.8 684.4,33.8 672.3,46.3 670.1,35.3 661.1,45.8 658.4,39.3 646.7,45.8 
		644,31.7 639.3,50 705.4,50 	"/>
	<g>
		<g>
			<g>
				<g>
					<g>
						<defs>
							<path id="SVGID_1_" d="M713.6,162.1V12.9H435.8v149.2c0,1.4,1,2.4,2.4,2.4h273.1C712.5,164.4,713.6,163.2,713.6,162.1z"/>
						</defs>
						<clipPath id="SVGID_2_">
							<use xlink:href="#SVGID_1_"  style="overflow:visible;"/>
						</clipPath>
						<g class="st26">
							<rect x="495.4" y="145.7" class="st4" width="133.2" height="37.6"/>
							<rect x="499.8" y="149.8" class="st17" width="18.1" height="3.5"/>
							<rect x="499.8" y="157.8" class="st19" width="125.5" height="2.1"/>
							<rect x="499.8" y="162" class="st19" width="125.5" height="2.1"/>
							<rect x="499.8" y="166" class="st19" width="125.5" height="2.1"/>
							<rect x="499.8" y="170.2" class="st19" width="125.5" height="2.1"/>
						</g>
					</g>
				</g>
			</g>
		</g>
	</g>
</g>
<g>
	<rect x="243" y="16.9" class="st4" width="137.1" height="196.5"/>
	<path class="st10" d="M383.2,23.1c0-4.8-4-8.8-8.8-8.8H249.2c-4.8,0-8.8,4-8.8,8.8v183.7c0,4.8,4,8.8,8.8,8.8h125.2
		c4.8,0,8.8-4,8.8-8.8L383.2,23.1L383.2,23.1z M375.8,206.8c0,0.8-0.7,1.4-1.4,1.4H249.2c-0.8,0-1.4-0.7-1.4-1.4V23.1
		c0-0.8,0.7-1.4,1.4-1.4h125.2c0.8,0,1.4,0.7,1.4,1.4L375.8,206.8L375.8,206.8z"/>
	<rect x="256.3" y="29.7" class="st11" width="111" height="151.1"/>
	<rect x="260.2" y="34.1" class="st14" width="103.2" height="143.5"/>
	<circle class="st11" cx="311.1" cy="188.8" r="4.7"/>
	<path class="st4" d="M356.3,130.8h-88.2c-1.3,0-2.5,1.2-2.5,2.5v24.6c0,1.3,1.2,2.5,2.5,2.5h88.2c1.3,0,2.5-1.2,2.5-2.5v-24.5
		C358.8,131.9,357.7,130.8,356.3,130.8z"/>
	<path class="st17" d="M341.6,169.7h14.7c1.3,0,2.5-1.2,2.5-2.5V166c0-1.3-1.2-2.5-2.5-2.5h-14.7c-1.3,0-2.5,1.2-2.5,2.5v1.2
		C339,168.5,340.2,169.7,341.6,169.7z"/>
	<path class="st10" d="M336.9,117.2H269c-1.2,0-2.1,0.9-2.1,2.1l0,0c0,1.2,0.9,2.1,2.1,2.1h67.9c1.2,0,2.1-0.9,2.1-2.1l0,0
		C339,118.2,338.1,117.2,336.9,117.2z"/>
	<path class="st10" d="M336.9,110.2H269c-1.2,0-2.1,0.9-2.1,2.1l0,0c0,1.2,0.9,2.1,2.1,2.1h67.9c1.2,0,2.1-0.9,2.1-2.1l0,0
		C339,111.1,338.1,110.2,336.9,110.2z"/>
	<path class="st10" d="M296.2,103.2h-27.3c-1.2,0-2.1,0.9-2.1,2.1l0,0c0,1.2,0.9,2.1,2.1,2.1h27.3c1.2,0,2.1-0.9,2.1-2.1l0,0
		C298.4,104.2,297.4,103.2,296.2,103.2z"/>
	<path class="st10" d="M336.9,89.7H269c-1.2,0-2.1,0.9-2.1,2.1l0,0c0,1.2,0.9,2.1,2.1,2.1h67.9c1.2,0,2.1-0.9,2.1-2.1l0,0
		C339,90.7,338.1,89.7,336.9,89.7z"/>
	<path class="st10" d="M336.9,82.7H269c-1.2,0-2.1,0.9-2.1,2.1l0,0c0,1.2,0.9,2.1,2.1,2.1h67.9c1.2,0,2.1-0.9,2.1-2.1l0,0
		C339,83.7,338.1,82.7,336.9,82.7z"/>
	<path class="st10" d="M296.2,75.7h-27.3c-1.2,0-2.1,0.9-2.1,2.1l0,0c0,1.2,0.9,2.1,2.1,2.1h27.3c1.2,0,2.1-0.9,2.1-2.1l0,0
		C298.4,76.6,297.4,75.7,296.2,75.7z"/>
	<path class="st10" d="M296.2,63.4h-27.3c-1.2,0-2.1,0.9-2.1,2.1l0,0c0,1.2,0.9,2.1,2.1,2.1h27.3c1.2,0,2.1-0.9,2.1-2.1l0,0
		C298.4,64.3,297.4,63.4,296.2,63.4z"/>
</g>
<g>
	<rect x="334.8" y="121.8" class="st4" width="68.1" height="103.9"/>
	<path class="st10" d="M404.5,125.1c0-2.5-2.1-4.6-4.6-4.6h-61.8c-2.5,0-4.6,2.1-4.6,4.6v97.2c0,2.5,2.1,4.6,4.6,4.6h61.8
		c2.5,0,4.6-2.1,4.6-4.6V125.1z M400.7,222.3c0,0.4-0.3,0.8-0.8,0.8h-61.8c-0.4,0-0.8-0.3-0.8-0.8v-97.2c0-0.4,0.3-0.8,0.8-0.8h61.8
		c0.4,0,0.8,0.3,0.8,0.8V222.3z"/>
	<rect x="341.8" y="128.5" class="st11" width="54.3" height="80"/>
	<rect x="343.9" y="130.8" class="st4" width="50.1" height="9.1"/>
	<rect x="343.9" y="144.2" class="st4" width="50.1" height="61.6"/>
	<circle class="st11" cx="370.8" cy="212.8" r="2.5"/>
	<rect x="343.9" y="144.2" class="st4" width="11.5" height="6.6"/>
	<rect x="356.8" y="144.2" class="st15" width="11.5" height="6.6"/>
	<rect x="369.7" y="144.2" class="st15" width="11.5" height="6.6"/>
	<rect x="382.6" y="144.2" class="st15" width="11.5" height="6.6"/>
	<rect x="345.6" y="153.5" class="st14" width="46.6" height="30.3"/>
	<rect x="345.6" y="188.6" class="st14" width="46.6" height="17.3"/>
	<rect x="345.6" y="188.6" class="st14" width="46.6" height="17.3"/>
	<polygon class="st25" points="347.9,181.8 355.2,157.8 359.6,178.1 365.1,169.1 370.6,178.5 375.4,162.9 381.8,178.5 390.3,169.9 
		390.3,181.8 	"/>
	<path class="st25" d="M354.3,205.8h28c-1.9-6-7.5-10.2-14-10.2S356.2,199.8,354.3,205.8z"/>
</g>
</svg>
