<?xml version="1.0" encoding="utf-8"?>
<!-- Generator: Adobe Illustrator 19.1.0, SVG Export Plug-In . SVG Version: 6.00 Build 0)  -->
<svg version="1.1" id="Layer_1" xmlns="http://www.w3.org/2000/svg" xmlns:xlink="http://www.w3.org/1999/xlink" x="0px" y="0px"
	 viewBox="265 -125 600 320" style="enable-background:new 265 -125 600 320;" xml:space="preserve">
<style type="text/css">
	.st0{display:none;}
	.st1{display:inline;}
	.st2{fill:#D6E3E8;}
	.st3{fill:#78BDE1;}
	.st4{fill:#FFFFFF;}
	.st5{fill:#E22726;}
	.st6{fill:#FCD9D9;}
	.st7{fill:none;stroke:#B0D235;stroke-width:12;stroke-miterlimit:10;}
	.st8{fill:#B0D235;}
	.st9{display:inline;fill:#78BDE1;}
	.st10{fill:#4F95BA;}
	.st11{fill:#AFD136;}
	.st12{opacity:0.5;enable-background:new    ;}
	.st13{fill:#D5E2E7;}
	.st14{fill:#333333;}
	.st15{fill:#E12526;}
	.st16{fill:#4D4C4C;}
	.st17{fill:#EF504E;}
	.st18{fill:#FDC053;}
	.st19{fill:#8BC43F;}
	.st20{fill:#E29A9A;stroke:#E12526;stroke-miterlimit:10;}
	.st21{clip-path:url(#SVGID_2_);}
	.st22{fill:#FCC3C3;}
	.st23{font-family:'Arial-BoldMT';}
	.st24{font-size:26.6912px;}
	.st25{fill:#85D6F9;}
</style>
<g id="Layer_1_1_" class="st0">
	<g class="st1">
		<rect x="1175.5" y="-258.4" class="st2" width="187.4" height="268.5"/>
		<path class="st3" d="M1367-250c0-6.6-5.4-12-12-12h-171c-6.6,0-12,5.4-12,12V1c0,6.6,5.4,12,12,12h171c6.6,0,12-5.4,12-12V-250z
			 M1357,1c0,1.1-0.9,2-2,2h-171c-1.1,0-2-0.9-2-2v-251c0-1.1,0.9-2,2-2h171c1.1,0,2,0.9,2,2V1z"/>
		<rect x="1193.7" y="-241" class="st3" width="151.7" height="206.5"/>
		<rect x="1199" y="-235" class="st4" width="141" height="196"/>
		<polygon class="st2" points="1199,-39 1340,-137.7 1340,-39 		"/>
		<circle class="st3" cx="1268.5" cy="-23.5" r="6.5"/>
	</g>
	<g class="st1">
		<path class="st5" d="M1493-337h-194c-7.2,0-13,5.8-13,13v129c0,7.1,5.8,13,13,13h7.9l-8.8,32.8c-0.7,2.7,2.2,4.8,4.6,3.3
			l54.6-36.1H1493c7.2,0,13-5.9,13-13v-129C1506-331.2,1500.2-337,1493-337z"/>
		<path class="st6" d="M1490-327h-188c-3.3,0-6,2.7-6,6v123c0,3.3,2.7,6,6,6h18l-7.4,27.6l41.6-27.6H1490c3.3,0,6-2.7,6-6v-123
			C1496-324.3,1493.3-327,1490-327z"/>
		<path class="st5" d="M1462.7-280h-137.4c-3.3,0-6-2.7-6-6l0,0c0-3.3,2.7-6,6-6h137.3c3.3,0,6,2.7,6,6l0,0
			C1468.7-282.7,1466-280,1462.7-280z"/>
		<path class="st5" d="M1462.7-256h-137.4c-3.3,0-6-2.7-6-6l0,0c0-3.3,2.7-6,6-6h137.3c3.3,0,6,2.7,6,6l0,0
			C1468.7-258.7,1466-256,1462.7-256z"/>
		<path class="st5" d="M1462.7-232h-137.4c-3.3,0-6-2.7-6-6l0,0c0-3.3,2.7-6,6-6h137.3c3.3,0,6,2.7,6,6l0,0
			C1468.7-234.7,1466-232,1462.7-232z"/>
	</g>
	<g class="st1">
		<g>
			<path class="st7" d="M1267.3-73.7h111c6.6,0,12.4-4.3,14.3-10.6l13-21.4c1.9-6.3,7.7-10.6,14.3-10.6h61.7"/>
			<g>
				<g>
					<circle class="st4" cx="1268.6" cy="-73.7" r="22.6"/>
					<path class="st8" d="M1268.6-48.2c14.1,0,25.6-11.5,25.6-25.6s-11.5-25.6-25.6-25.6S1243-87.9,1243-73.8
						S1254.5-48.2,1268.6-48.2S1254.5-48.2,1268.6-48.2z M1268.6-93.3c10.8,0,19.6,8.8,19.6,19.6s-8.8,19.6-19.6,19.6
						s-19.6-8.8-19.6-19.6S1257.8-93.3,1268.6-93.3C1279.3-93.3,1257.8-93.3,1268.6-93.3z"/>
				</g>
			</g>
			<g>
				<g>
					<circle class="st4" cx="1480.4" cy="-116.4" r="22.6"/>
					<path class="st8" d="M1480.4-90.8c-14.1,0-25.6-11.5-25.6-25.6s11.5-25.6,25.6-25.6s25.6,11.5,25.6,25.6
						S1494.5-90.8,1480.4-90.8S1494.5-90.8,1480.4-90.8z M1480.4-135.9c-10.8,0-19.6,8.8-19.6,19.6s8.8,19.6,19.6,19.6
						s19.6-8.8,19.6-19.6S1491.2-135.9,1480.4-135.9C1469.7-135.9,1491.2-135.9,1480.4-135.9z"/>
				</g>
			</g>
		</g>
	</g>
	<g class="st1">
		<path class="st8" d="M1477.8-114l-1.8,5.5h-2.3l6-17.5h2.7l6,17.5h-2.4l-2-5.5H1477.8z M1483.6-115.8l-1.7-5
			c-0.4-1.1-0.6-2.2-0.9-3.2h-0.1c-0.3,1-0.5,2.1-0.9,3.2l-1.7,5.1h5.3L1483.6-115.8L1483.6-115.8z"/>
	</g>
	<rect x="530" y="-290" class="st9" width="600" height="400"/>
</g>
<circle class="st10" cx="702.4" cy="-61" r="33.1"/>
<circle class="st10" cx="707.1" cy="52.8" r="33.1"/>
<circle class="st10" cx="784.3" cy="-27.5" r="33.1"/>
<g>
	<g>
		<path class="st10" d="M664.4,163.3H305c-5.7,0-10.4-4.7-10.4-10.4v-9.3c0-2.8,2.3-5.1,5.1-5.1h369.7c2.8,0,5.1,2.3,5.1,5.1v9.3
			C674.8,158.6,670.1,163.3,664.4,163.3z"/>
		<path class="st10" d="M635.7-61.7H333.9c-5.7,0-10.4,4.7-10.4,10.4v214.5H646V-51.3C646-57,641.4-61.7,635.7-61.7z"/>
	</g>
	<path class="st11" d="M636.8,138.2H332.8V-46.4c0-2.8,2.3-5.1,5.1-5.1h293.6c2.8,0,5.1,2.3,5.1,5.1L636.8,138.2L636.8,138.2z"/>
	<path class="st11" d="M638.8,150.7h21.4c1.1,0,2.1-0.9,2.1-2.1l0,0c0-1.1-0.9-2.1-2.1-2.1h-21.4c-1.1,0-2.1,0.9-2.1,2.1l0,0
		C636.8,149.8,637.6,150.7,638.8,150.7z"/>
	<circle class="st11" cx="630.4" cy="148.9" r="2.3"/>
	<path class="st12" d="M448.3,138.2v3c0,1.3,1,2.3,2.3,2.3h70.7c1.3,0,2.3-1,2.3-2.3v-3H448.3z"/>
	<path class="st4" d="M622.4,126.2H349.5c-1.5,0-2.6-1.1-2.6-2.6V-37.1c0-1.4,1.1-2.6,2.6-2.6h272.9c1.4,0,2.6,1.3,2.6,2.6v160.8
		C625,125.2,623.9,126.2,622.4,126.2z"/>
	<path class="st13" d="M625,123.9V-25.3H346.8v149.3c0,1.3,1,2.3,2.3,2.3h273.4C624,126.2,625,125.2,625,123.9z"/>
	<path class="st14" d="M401.8-25.3h-54.9v149.3c0,1.3,1,2.3,2.3,2.3h52.6V-25.3z"/>
	<rect x="401.8" y="-7.8" class="st14" width="20.3" height="14.9"/>
	<rect x="423.1" y="-7.8" class="st14" width="20.3" height="14.9"/>
	<rect x="444.3" y="-7.8" class="st14" width="20.3" height="14.9"/>
	<rect x="465.6" y="-7.8" class="st14" width="159.4" height="14.9"/>
	<rect x="405.3" y="12" class="st4" width="215.5" height="63.6"/>
	<rect x="405.3" y="80" class="st4" width="215.5" height="46.3"/>
	<rect x="407.9" y="16.6" class="st13" width="209.2" height="54.2"/>
	<rect x="407.9" y="84.2" class="st13" width="209.2" height="42.2"/>
	<rect x="350" y="8.8" class="st15" width="47.9" height="7.4"/>
	<rect x="350" y="-2.2" width="47.9" height="7.4"/>
	<rect x="350" y="17.4" class="st16" width="47.9" height="7.4"/>
	<rect x="350" y="25.8" class="st16" width="47.9" height="7.4"/>
	<rect x="350" y="34.4" class="st16" width="47.9" height="7.4"/>
	<rect x="350" y="42.8" class="st16" width="47.9" height="7.4"/>
	<circle class="st17" cx="355.2" cy="-32.4" r="2.4"/>
	<circle class="st18" cx="362.6" cy="-32.4" r="2.4"/>
	<circle class="st19" cx="370.1" cy="-32.4" r="2.4"/>
	<g>
		<g>
			<path class="st4" d="M384-17.8c-0.1,0-0.1,0.1-0.2,0.2L380-8.9v0.1c0,0,0,0,0.1,0l9.3-1.3c0.2,0,0.2-0.1,0.2-0.1
				c0.6-0.5-0.2-2.4-1.8-4.4C386.2-16.9,384.6-18.3,384-17.8z M381.3-9.8c-0.1,0-0.1,0-0.2,0c0,0,0-0.1,0-0.2l1.3-2.6
				c0,0.1,0,0.1,0.1,0.2c0.1,0.3,0.3,0.8,0.7,1.3s0.7,0.9,1.1,1L381.3-9.8z M387.9-10.6l-3,0.5l0,0l0,0h-0.1c-0.5,0-1-0.5-1.6-1.1
				c-0.2-0.3-0.6-0.8-0.6-1.1c-0.1-0.3-0.1-0.6-0.1-0.7l1.3-2.7h0.1c0,0.2,0.1,0.2,0.2,0.5c0.2,0.6,0.6,1.1,0.9,1.7l-0.8,1.6l0,0
				l0,0l1.8-0.2c0.5,0.6,0.9,1,1.4,1.3C387.5-11,387.8-10.9,387.9-10.6C387.9-10.8,387.9-10.6,387.9-10.6z M386-13.4
				c0.2,0.2,0.5,0.6,0.6,0.7c0,0,0,0,0.1,0v0.1h-0.2c-0.2-0.2-0.3-0.5-0.6-0.7c-0.2-0.2-0.3-0.5-0.5-0.7l0.1-0.2h0.1v0.1
				C385.7-14.1,385.8-13.7,386-13.4z M385.7-14.7L385.7-14.7L385.7-14.7h-0.2h-0.1l0,0l0,0l0,0l0.2,0.2h0.1V-14.7
				C385.7-14.6,385.7-14.7,385.7-14.7L385.7-14.7c0.2-0.1,0.6,0.2,1,0.8c0.5,0.6,0.7,1.1,0.6,1.3l0,0v-0.5v-0.5l0,0v0.5v-0.2v-0.2
				l0,0l0,0l0,0l0,0l0,0l0,0l0,0v0.5c-0.2,0-0.6-0.2-0.9-0.6C385.8-14.3,385.7-14.5,385.7-14.7z M385.5-13c0.2,0.2,0.2,0.3,0.5,0.6
				l-1.3,0.2l0,0c0,0,0,0,0-0.1l0,0l0.6-1.1C385.4-13.4,385.5-13.3,385.5-13z M389-10.9L389-10.9L389-10.9
				C388.9-10.9,388.9-10.9,389-10.9C388.9-10.9,388.9-10.9,389-10.9C388.9-10.9,388.9-10.9,389-10.9C388.9-10.9,388.9-10.9,389-10.9
				C388.9-10.8,388.9-10.8,389-10.9L389-10.9L389-10.9L389-10.9L389-10.9l-0.1,0.5v0.3l0,0v-0.3c-0.5,0-1.3-0.9-2.2-1.8l0.7-0.2
				c0.1,0,0.1-0.1,0.1-0.1c0.2-0.2-0.1-0.8-0.6-1.5c-0.6-0.7-1-1-1.3-0.9c0,0,0,0-0.1,0.1l-0.2,0.6c-0.8-1.3-1.1-2.3-1-2.6l0,0l0,0
				l0,0l0,0l0,0l0,0l0,0l0,0l0,0c0,0,0,0,0.1-0.1l0,0l0,0c0.5-0.3,1.8,0.8,3.1,2.5C388.7-12.8,389.3-11.2,389-10.9z"/>
			<path class="st4" d="M390.5-16.9c-0.1-0.1-0.2-0.1-0.3-0.1l-1.9,1.5c-0.1,0.1-0.1,0.2-0.1,0.3s0.2,0.1,0.3,0.1l1.9-1.5
				C390.5-16.6,390.6-16.7,390.5-16.9z"/>
			<path class="st4" d="M390-15.2l-1.1,0.3c-0.1,0-0.2,0.2-0.2,0.2c0,0.1,0.2,0.2,0.2,0.2l1.1-0.3c0.1,0,0.2-0.2,0.2-0.2
				C390.3-15.1,390-15.2,390-15.2z"/>
			<path class="st4" d="M388.1-15.9l0.7-1c0.1-0.1,0.1-0.2-0.1-0.3c-0.1-0.1-0.2-0.1-0.3,0.1l-0.7,1c-0.1,0.1-0.1,0.2,0.1,0.3
				C387.9-15.8,388-15.8,388.1-15.9z"/>
		</g>
		<path class="st4" d="M358.2-14.4v5.6h-1.1v-5.8h0.9C358-14.7,358.2-14.5,358.2-14.4z"/>
		<path class="st4" d="M358.2-15.4L358.2-15.4c-0.6,0-1.1-0.6-1.1-1.1v-0.2l0,0c0.6,0,1.1,0.6,1.1,1.1V-15.4z"/>
		<path class="st4" d="M360.4-14.1c0.5-0.3,1-0.7,1.8-0.7c0.9,0,1.5,0.5,1.6,1.3c0,0.2,0,0.6,0,0.7v4h-1.1v-4c0-0.2,0-0.3,0-0.6
			c-0.1-0.5-0.3-0.6-0.8-0.6c-0.6,0-1,0.3-1.4,0.6V-9h-1.1v-5.8h0.8c0.2,0,0.2,0.1,0.3,0.2L360.4-14.1z"/>
		<path class="st4" d="M366.1-13.8c0.2-0.2,0.9-0.6,1.6-0.6c1,0,1.8,0.8,1.8,2.6c0,2.1-0.7,3.4-2.6,3.4c-0.8,0-1.5-0.2-1.9-0.6v-7.7
			h1.1V-13.8z M366.1-9.5c0.2,0.1,0.6,0.2,0.9,0.2c1,0,1.3-1,1.3-2.3c0-1.5-0.3-1.9-0.9-1.9c-0.5,0-0.9,0.3-1.3,0.6V-9.5z"/>
		<path class="st4" d="M371.8-14.4v5.6h-1.1v-5.8h0.9C371.7-14.7,371.8-14.5,371.8-14.4z M371.8-15.4L371.8-15.4
			c-0.6,0-1.1-0.6-1.1-1.1v-0.2l0,0c0.6,0,1.1,0.6,1.1,1.1V-15.4z"/>
		<path class="st4" d="M381.3-14.7H380l-1.6,3.9c-0.1,0.1-0.1,0.2-0.2,0.2l-1.4-3.9c-0.1-0.2-0.2-0.2-0.3-0.2l0,0h-1.7
			c0-0.3,0-0.6,0.1-0.8c0.1-0.2,0.2-0.3,0.8-0.3c0.3,0,0.8,0.1,0.9,0.2l0.1-0.9c-0.2-0.1-0.8-0.2-1.1-0.2c-1.3,0-1.7,0.6-1.9,1.5
			c0,0.2-0.1,0.6-0.1,0.6h-0.7v1.1h0.7v4.7h1.3v-4.7h1.1l1.6,4.3c-0.5,1-0.7,1.6-1.4,1.6c-0.5,0-0.8-0.2-1.3-0.3l-0.3,1
			c0.3,0.2,0.9,0.5,1.6,0.5c1.3,0,1.9-1.1,2.6-2.6c0.2-0.3,0.2-0.7,0.5-1L381.3-14.7z"/>
	</g>
	<polygon class="st20" points="612.3,29.6 569.2,52.5 528.3,22.2 506.5,54.7 485.9,33.9 463.1,59.7 456.4,47.5 444.4,59.9 442,49.1 
		433.1,59.6 430.3,53 418.6,59.6 415.9,45.3 411.2,63.8 612.3,63.8 	"/>
	<rect x="406.2" y="-19.9" class="st15" width="38.1" height="6.2"/>
	<g>
		<g>
			<g>
				<defs>
					<rect id="SVGID_1_" x="407.9" y="84.2" width="81.9" height="42.2"/>
				</defs>
				<clipPath id="SVGID_2_">
					<use xlink:href="#SVGID_1_"  style="overflow:visible;"/>
				</clipPath>
				<g class="st21">
					<path class="st11" d="M449.7,90.7v30.1l28.3-10.1C473.5,99.3,462.6,91.2,449.7,90.7z"/>
					<path class="st15" d="M447.1,123.7c-0.2-0.2-0.3-0.6-0.3-0.8V90.8c-17.1,0.8-30.8,14.8-30.8,32.1c0,17.8,14.4,32.3,32.3,32.3
						c6.6,0,12.6-1.9,17.7-5.4L447.1,123.7L447.1,123.7z"/>
					<path class="st10" d="M479,113.3l-28.5,10.3l17.8,24.4c7.4-5.9,12.1-14.9,12.1-25.2C480.5,119.5,479.9,116.3,479,113.3z"/>
				</g>
			</g>
		</g>
	</g>
	<rect x="493.1" y="92.7" class="st4" width="116.5" height="33.8"/>
</g>
<g>
	<path class="st22" d="M707.1,22.9c-16.4,0-29.8,13.4-29.8,29.8s13.4,29.8,29.8,29.8c16.4,0,29.8-13.4,29.8-29.8
		S723.5,22.9,707.1,22.9z M707.1,76.5c-13.1,0-23.7-10.6-23.7-23.7s10.6-23.8,23.7-23.8c13.1,0,23.7,10.7,23.7,23.8
		S720.1,76.5,707.1,76.5z"/>
	<path class="st22" d="M694.4,69c0.9,0.2,1.7-0.1,2.1-0.9c2.1-3.8,6.1-6.3,10.7-6.3s8.7,2.6,10.7,6.3c0.4,0.8,1.3,1.2,2.1,0.9l0,0
		c1.1-0.3,1.5-1.5,1.1-2.6c-2.5-5.3-7.8-8.9-14-8.9c-6.4,0-12,2.9-14.3,8.5c-0.2,0.6,0.1,2.5,0.8,2.7L694.4,69z"/>
	<g>
		<circle class="st22" cx="698.3" cy="46.7" r="4.2"/>
		<circle class="st22" cx="715.9" cy="46.7" r="4.2"/>
	</g>
</g>
<text transform="matrix(1 0 0 1 746.3135 30.2275)" class="st10 st23 st24">0.25%</text>
<g>
	<path class="st11" d="M702.4-90.8c-16.4,0-29.8,13.4-29.8,29.8s13.4,29.8,29.8,29.8c16.4,0,29.8-13.4,29.8-29.8
		S718.9-90.8,702.4-90.8z M702.4-37.3c-13.1,0-23.7-10.6-23.7-23.7s10.6-23.8,23.7-23.8s23.7,10.6,23.7,23.7S715.5-37.3,702.4-37.3z
		"/>
	<path class="st11" d="M715.3-56.2c-0.9-0.2-1.7,0.1-2.1,0.9c-2.1,3.8-6.1,6.3-10.7,6.3s-8.7-2.6-10.7-6.3c-0.4-0.8-1.3-1.2-2.1-0.9
		l0,0c-1.1,0.3-1.5,1.5-1.1,2.6c2.5,5.3,7.8,8.9,14,8.9c6.4,0,12-2.9,14.3-8.5c0.2-0.6-0.1-2.5-0.8-2.7L715.3-56.2z"/>
	<g>
		<circle class="st11" cx="693.6" cy="-67" r="4.2"/>
		<circle class="st11" cx="711.2" cy="-67" r="4.2"/>
	</g>
</g>
<text transform="matrix(1 0 0 1 664.6191 -3.3564)" class="st10 st23 st24">0.25%</text>
<text transform="matrix(1 0 0 1 673.8281 108.6557)" class="st10 st23 st24">0.25%</text>
<g>
	<g>
		<path class="st25" d="M784.3-57.3c-16.4,0-29.8,13.4-29.8,29.8s13.4,29.8,29.8,29.8c16.4,0,29.8-13.4,29.8-29.8
			S800.7-57.3,784.3-57.3z M784.3-3.8c-13.1,0-23.7-10.6-23.7-23.7s10.6-23.7,23.7-23.7c13.1,0,23.7,10.6,23.7,23.7
			S797.4-3.8,784.3-3.8z"/>
		<g>
			<circle class="st25" cx="775.5" cy="-33.5" r="4.2"/>
			<circle class="st25" cx="793" cy="-33.5" r="4.2"/>
		</g>
	</g>
	<path class="st25" d="M794.2-13.7h-19.9c-1.7,0-3.1-1.4-3.1-3.1l0,0c0-1.7,1.4-3.1,3.1-3.1h19.9c1.7,0,3.1,1.4,3.1,3.1l0,0
		C797.3-15.1,795.9-13.7,794.2-13.7z"/>
</g>
</svg>
