<?xml version="1.0" encoding="utf-8"?>
<!-- Generator: Adobe Illustrator 19.1.0, SVG Export Plug-In . SVG Version: 6.00 Build 0)  -->
<svg version="1.1" id="Layer_1" xmlns="http://www.w3.org/2000/svg" xmlns:xlink="http://www.w3.org/1999/xlink" x="0px" y="0px"
	 viewBox="200 -60 600 320" style="enable-background:new 200 -60 600 320;" xml:space="preserve">
<style type="text/css">
	.st0{display:none;}
	.st1{display:inline;}
	.st2{fill:#D6E3E8;}
	.st3{fill:#78BDE1;}
	.st4{fill:#FFFFFF;}
	.st5{fill:#E22726;}
	.st6{fill:#FCD9D9;}
	.st7{fill:none;stroke:#B0D235;stroke-width:12;stroke-miterlimit:10;}
	.st8{fill:#B0D235;}
	.st9{display:inline;fill:#78BDE1;}
	.st10{fill:#4F95BA;}
	.st11{fill:#77BDE1;}
	.st12{fill:#AFD136;}
	.st13{opacity:0.5;enable-background:new    ;}
	.st14{fill:#D5E2E7;}
	.st15{fill:#333333;}
	.st16{fill:#E12526;}
	.st17{fill:#4D4C4C;}
	.st18{fill:#EF504E;}
	.st19{fill:#FDC053;}
	.st20{fill:#8BC43F;}
	.st21{fill:#E29A9A;stroke:#E12526;stroke-miterlimit:10;}
	.st22{clip-path:url(#SVGID_2_);}
	.st23{fill:#FCC3C3;}
	.st24{font-family:'Arial-BoldMT';}
	.st25{font-size:26.6912px;}
	.st26{fill:#85D6F9;}
</style>
<g id="Layer_1_1_" class="st0">
	<g class="st1">
		<rect x="1375.5" y="-318.4" class="st2" width="187.4" height="268.5"/>
		<path class="st3" d="M1567-310c0-6.6-5.4-12-12-12h-171c-6.6,0-12,5.4-12,12v251c0,6.6,5.4,12,12,12h171c6.6,0,12-5.4,12-12V-310z
			 M1557-59c0,1.1-0.9,2-2,2h-171c-1.1,0-2-0.9-2-2v-251c0-1.1,0.9-2,2-2h171c1.1,0,2,0.9,2,2V-59z"/>
		<rect x="1393.7" y="-301" class="st3" width="151.7" height="206.5"/>
		<rect x="1399" y="-295" class="st4" width="141" height="196"/>
		<polygon class="st2" points="1399,-99 1540,-197.7 1540,-99 		"/>
		<circle class="st3" cx="1468.5" cy="-83.5" r="6.5"/>
	</g>
	<g class="st1">
		<path class="st5" d="M1693-397h-194c-7.2,0-13,5.8-13,13v129c0,7.1,5.8,13,13,13h7.9l-8.8,32.8c-0.7,2.7,2.2,4.8,4.6,3.3
			l54.6-36.1H1693c7.2,0,13-5.9,13-13v-129C1706-391.2,1700.2-397,1693-397z"/>
		<path class="st6" d="M1690-387h-188c-3.3,0-6,2.7-6,6v123c0,3.3,2.7,6,6,6h18l-7.4,27.6l41.6-27.6H1690c3.3,0,6-2.7,6-6v-123
			C1696-384.3,1693.3-387,1690-387z"/>
		<path class="st5" d="M1662.7-340h-137.4c-3.3,0-6-2.7-6-6l0,0c0-3.3,2.7-6,6-6h137.3c3.3,0,6,2.7,6,6l0,0
			C1668.7-342.7,1666-340,1662.7-340z"/>
		<path class="st5" d="M1662.7-316h-137.4c-3.3,0-6-2.7-6-6l0,0c0-3.3,2.7-6,6-6h137.3c3.3,0,6,2.7,6,6l0,0
			C1668.7-318.7,1666-316,1662.7-316z"/>
		<path class="st5" d="M1662.7-292h-137.4c-3.3,0-6-2.7-6-6l0,0c0-3.3,2.7-6,6-6h137.3c3.3,0,6,2.7,6,6l0,0
			C1668.7-294.7,1666-292,1662.7-292z"/>
	</g>
	<g class="st1">
		<g>
			<path class="st7" d="M1467.3-133.7h111c6.6,0,12.4-4.3,14.3-10.6l13-21.4c1.9-6.3,7.7-10.6,14.3-10.6h61.7"/>
			<g>
				<g>
					<circle class="st4" cx="1468.6" cy="-133.7" r="22.6"/>
					<path class="st8" d="M1468.6-108.2c14.1,0,25.6-11.5,25.6-25.6s-11.5-25.6-25.6-25.6s-25.6,11.5-25.6,25.6
						S1454.5-108.2,1468.6-108.2S1454.5-108.2,1468.6-108.2z M1468.6-153.3c10.8,0,19.6,8.8,19.6,19.6c0,10.8-8.8,19.6-19.6,19.6
						s-19.6-8.8-19.6-19.6C1449-144.5,1457.8-153.3,1468.6-153.3C1479.3-153.3,1457.8-153.3,1468.6-153.3z"/>
				</g>
			</g>
			<g>
				<g>
					<circle class="st4" cx="1680.4" cy="-176.4" r="22.6"/>
					<path class="st8" d="M1680.4-150.8c-14.1,0-25.6-11.5-25.6-25.6c0-14.1,11.5-25.6,25.6-25.6s25.6,11.5,25.6,25.6
						C1706-162.3,1694.5-150.8,1680.4-150.8S1694.5-150.8,1680.4-150.8z M1680.4-195.9c-10.8,0-19.6,8.8-19.6,19.6
						c0,10.8,8.8,19.6,19.6,19.6s19.6-8.8,19.6-19.6C1700-187.1,1691.2-195.9,1680.4-195.9C1669.7-195.9,1691.2-195.9,1680.4-195.9z
						"/>
				</g>
			</g>
		</g>
	</g>
	<g class="st1">
		<path class="st8" d="M1677.8-174l-1.8,5.5h-2.3l6-17.5h2.7l6,17.5h-2.4l-2-5.5H1677.8z M1683.6-175.8l-1.7-5
			c-0.4-1.1-0.6-2.2-0.9-3.2h-0.1c-0.3,1-0.5,2.1-0.9,3.2l-1.7,5.1L1683.6-175.8L1683.6-175.8L1683.6-175.8z"/>
	</g>
	<rect x="730" y="-350" class="st9" width="600" height="400"/>
</g>
<circle class="st10" cx="645.1" cy="5.3" r="33.1"/>
<circle class="st10" cx="649.8" cy="119.1" r="33.1"/>
<circle class="st10" cx="727" cy="38.8" r="33.1"/>
<g>
	<g>
		<path class="st10" d="M601.8,229.8H242.4c-5.7,0-10.4-4.7-10.4-10.4v-9.3c0-2.8,2.3-5.1,5.1-5.1h369.7c2.8,0,5.1,2.3,5.1,5.1v9.3
			C612.2,225.1,607.4,229.8,601.8,229.8z"/>
		<path class="st10" d="M573.1,4.8H271.2c-5.7,0-10.4,4.7-10.4,10.4v214.5h322.5V15.2C583.3,9.5,578.8,4.8,573.1,4.8z"/>
	</g>
	<path class="st11" d="M574.2,204.7h-304V20.1c0-2.8,2.3-5.1,5.1-5.1h293.6c2.8,0,5.1,2.3,5.1,5.1L574.2,204.7L574.2,204.7z"/>
	<path class="st12" d="M576.2,217.2h21.4c1.1,0,2.1-0.9,2.1-2.1l0,0c0-1.1-0.9-2.1-2.1-2.1h-21.4c-1.1,0-2.1,0.9-2.1,2.1l0,0
		C574.2,216.3,574.9,217.2,576.2,217.2z"/>
	<circle class="st12" cx="567.8" cy="215.4" r="2.3"/>
	<path class="st13" d="M385.6,204.7v3c0,1.3,1,2.3,2.3,2.3h70.7c1.3,0,2.3-1,2.3-2.3v-3H385.6z"/>
	<path class="st4" d="M559.8,192.7H286.9c-1.5,0-2.6-1.1-2.6-2.6V29.4c0-1.4,1.1-2.6,2.6-2.6h272.9c1.4,0,2.6,1.3,2.6,2.6v160.8
		C562.3,191.7,561.2,192.7,559.8,192.7z"/>
	<path class="st14" d="M562.3,190.4V41.2H284.1v149.3c0,1.3,1,2.3,2.3,2.3h273.4C561.3,192.7,562.3,191.7,562.3,190.4z"/>
	<path class="st15" d="M339.1,41.2h-54.9v149.3c0,1.3,1,2.3,2.3,2.3h52.6V41.2z"/>
	<rect x="339.1" y="58.7" class="st15" width="20.3" height="14.9"/>
	<rect x="360.5" y="58.7" class="st15" width="20.3" height="14.9"/>
	<rect x="381.6" y="58.7" class="st15" width="20.3" height="14.9"/>
	<rect x="403" y="58.7" class="st15" width="159.4" height="14.9"/>
	<rect x="342.6" y="78.5" class="st4" width="215.5" height="63.6"/>
	<rect x="342.6" y="146.5" class="st4" width="215.5" height="46.3"/>
	<rect x="345.2" y="83.1" class="st14" width="209.2" height="54.2"/>
	<rect x="345.2" y="150.7" class="st14" width="209.2" height="42.2"/>
	<rect x="287.4" y="75.3" class="st16" width="47.9" height="7.4"/>
	<rect x="287.4" y="64.3" width="47.9" height="7.4"/>
	<rect x="287.4" y="83.9" class="st17" width="47.9" height="7.4"/>
	<rect x="287.4" y="92.3" class="st17" width="47.9" height="7.4"/>
	<rect x="287.4" y="100.9" class="st17" width="47.9" height="7.4"/>
	<rect x="287.4" y="109.3" class="st17" width="47.9" height="7.4"/>
	<circle class="st18" cx="292.6" cy="34.1" r="2.4"/>
	<circle class="st19" cx="300" cy="34.1" r="2.4"/>
	<circle class="st20" cx="307.5" cy="34.1" r="2.4"/>
	<g>
		<g>
			<path class="st4" d="M321.4,48.7c-0.1,0-0.1,0.1-0.2,0.2l-3.8,8.7v0.1c0,0,0,0,0.1,0l9.3-1.3c0.2,0,0.2-0.1,0.2-0.1
				c0.6-0.5-0.2-2.4-1.8-4.4C323.6,49.6,322,48.2,321.4,48.7z M318.6,56.7c-0.1,0-0.1,0-0.2,0c0,0,0-0.1,0-0.2l1.3-2.6
				c0,0.1,0,0.1,0.1,0.2c0.1,0.3,0.3,0.8,0.7,1.3s0.7,0.9,1.1,1L318.6,56.7z M325.2,55.9l-3,0.5l0,0l0,0h-0.1c-0.5,0-1-0.5-1.6-1.1
				c-0.2-0.3-0.6-0.8-0.6-1.1c-0.1-0.3-0.1-0.6-0.1-0.7l1.3-2.7h0.1c0,0.2,0.1,0.2,0.2,0.5c0.2,0.6,0.6,1.1,0.9,1.7l-0.8,1.6l0,0
				l0,0l1.8-0.2c0.5,0.6,0.9,1,1.4,1.3C324.9,55.5,325.1,55.6,325.2,55.9C325.2,55.7,325.2,55.9,325.2,55.9z M323.4,53.1
				c0.2,0.2,0.5,0.6,0.6,0.7c0,0,0,0,0.1,0v0.1h-0.2c-0.2-0.2-0.3-0.5-0.6-0.7c-0.2-0.2-0.3-0.5-0.5-0.7l0.1-0.2h0.1v0.1
				C323.1,52.4,323.1,52.8,323.4,53.1z M323.1,51.8L323.1,51.8L323.1,51.8h-0.2h-0.1l0,0l0,0l0,0L323,52h0.1V51.8
				C323.1,51.9,323.1,51.8,323.1,51.8L323.1,51.8c0.2-0.1,0.6,0.2,1,0.8c0.5,0.6,0.7,1.1,0.6,1.3l0,0v-0.5v-0.5l0,0v0.5v-0.2V53l0,0
				l0,0l0,0l0,0l0,0l0,0l0,0v0.5c-0.2,0-0.6-0.2-0.9-0.6C323.1,52.2,323.1,52,323.1,51.8z M322.9,53.5c0.2,0.2,0.2,0.3,0.5,0.6
				l-1.3,0.2l0,0c0,0,0,0,0-0.1l0,0l0.6-1.1C322.8,53.1,322.9,53.2,322.9,53.5z M326.4,55.6L326.4,55.6L326.4,55.6
				C326.2,55.6,326.2,55.6,326.4,55.6C326.2,55.6,326.2,55.6,326.4,55.6C326.2,55.6,326.2,55.6,326.4,55.6
				C326.2,55.6,326.2,55.6,326.4,55.6C326.2,55.7,326.2,55.7,326.4,55.6L326.4,55.6L326.4,55.6L326.4,55.6L326.4,55.6l-0.1,0.5v0.3
				l0,0v-0.3c-0.5,0-1.3-0.9-2.2-1.8l0.7-0.2c0.1,0,0.1-0.1,0.1-0.1c0.2-0.2-0.1-0.8-0.6-1.5c-0.6-0.7-1-1-1.3-0.9c0,0,0,0-0.1,0.1
				l-0.2,0.6c-0.8-1.3-1.1-2.3-1-2.6l0,0l0,0l0,0l0,0l0,0l0,0l0,0l0,0l0,0c0,0,0,0,0.1-0.1l0,0l0,0c0.5-0.3,1.8,0.8,3.1,2.5
				C326.1,53.7,326.6,55.3,326.4,55.6z"/>
			<path class="st4" d="M327.9,49.6c-0.1-0.1-0.2-0.1-0.3-0.1l-1.9,1.5c-0.1,0.1-0.1,0.2-0.1,0.3c0,0.1,0.2,0.1,0.3,0.1l1.9-1.5
				C327.9,49.9,328,49.8,327.9,49.6z"/>
			<path class="st4" d="M327.4,51.3l-1.1,0.3c-0.1,0-0.2,0.2-0.2,0.2c0,0.1,0.2,0.2,0.2,0.2l1.1-0.3c0.1,0,0.2-0.2,0.2-0.2
				C327.6,51.4,327.4,51.3,327.4,51.3z"/>
			<path class="st4" d="M325.5,50.6l0.7-1c0.1-0.1,0.1-0.2-0.1-0.3c-0.1-0.1-0.2-0.1-0.3,0.1l-0.7,1c-0.1,0.1-0.1,0.2,0.1,0.3
				C325.2,50.7,325.4,50.7,325.5,50.6z"/>
		</g>
		<path class="st4" d="M295.6,52.1v5.6h-1.1v-5.8h0.9C295.4,51.8,295.6,52,295.6,52.1z"/>
		<path class="st4" d="M295.6,51.1L295.6,51.1c-0.6,0-1.1-0.6-1.1-1.1v-0.2l0,0c0.6,0,1.1,0.6,1.1,1.1V51.1z"/>
		<path class="st4" d="M297.8,52.4c0.5-0.3,1-0.7,1.8-0.7c0.9,0,1.5,0.5,1.6,1.3c0,0.2,0,0.6,0,0.7v4H300v-4c0-0.2,0-0.3,0-0.6
			c-0.1-0.5-0.3-0.6-0.8-0.6c-0.6,0-1,0.3-1.4,0.6v4.4h-1.1v-5.8h0.8c0.2,0,0.2,0.1,0.3,0.2L297.8,52.4z"/>
		<path class="st4" d="M303.5,52.7c0.2-0.2,0.9-0.6,1.6-0.6c1,0,1.8,0.8,1.8,2.6c0,2.1-0.7,3.4-2.6,3.4c-0.8,0-1.5-0.2-1.9-0.6v-7.7
			h1.1V52.7z M303.5,57c0.2,0.1,0.6,0.2,0.9,0.2c1,0,1.3-1,1.3-2.3c0-1.5-0.3-1.9-0.9-1.9c-0.5,0-0.9,0.3-1.3,0.6V57z"/>
		<path class="st4" d="M309.1,52.1v5.6H308v-5.8h0.9C309.1,51.8,309.1,52,309.1,52.1z M309.1,51.1L309.1,51.1
			c-0.6,0-1.1-0.6-1.1-1.1v-0.2l0,0c0.6,0,1.1,0.6,1.1,1.1V51.1z"/>
		<path class="st4" d="M318.6,51.8h-1.3l-1.6,3.9c-0.1,0.1-0.1,0.2-0.2,0.2l-1.4-3.9c-0.1-0.2-0.2-0.2-0.3-0.2l0,0h-1.7
			c0-0.3,0-0.6,0.1-0.8c0.1-0.2,0.2-0.3,0.8-0.3c0.3,0,0.8,0.1,0.9,0.2L314,50c-0.2-0.1-0.8-0.2-1.1-0.2c-1.3,0-1.7,0.6-1.9,1.5
			c0,0.2-0.1,0.6-0.1,0.6h-0.7V53h0.7v4.7h1.3V53h1.1l1.6,4.3c-0.5,1-0.7,1.6-1.4,1.6c-0.5,0-0.8-0.2-1.3-0.3l-0.3,1
			c0.3,0.2,0.9,0.5,1.6,0.5c1.3,0,1.9-1.1,2.6-2.6c0.2-0.3,0.2-0.7,0.5-1L318.6,51.8z"/>
	</g>
	<polygon class="st21" points="549.7,96.1 506.6,119 465.6,88.7 443.9,121.2 423.2,100.4 400.5,126.2 393.8,114 381.8,126.4 
		379.4,115.6 370.5,126.1 367.6,119.5 356,126.1 353.2,111.8 348.6,130.3 549.7,130.3 	"/>
	<rect x="343.6" y="46.6" class="st16" width="38.1" height="6.2"/>
	<g>
		<g>
			<g>
				<g>
					<defs>
						<rect id="SVGID_1_" x="345.2" y="150.7" width="81.9" height="42.2"/>
					</defs>
					<clipPath id="SVGID_2_">
						<use xlink:href="#SVGID_1_"  style="overflow:visible;"/>
					</clipPath>
					<g class="st22">
						<path class="st12" d="M387.1,157.2v30.1l28.3-10.1C410.9,165.8,400,157.7,387.1,157.2z"/>
						<path class="st16" d="M384.5,190.2c-0.2-0.2-0.3-0.6-0.3-0.8v-32.1c-17.1,0.8-30.8,14.8-30.8,32.1c0,17.8,14.4,32.3,32.3,32.3
							c6.6,0,12.6-1.9,17.7-5.4L384.5,190.2L384.5,190.2z"/>
						<path class="st10" d="M416.4,179.8l-28.5,10.3l17.8,24.4c7.4-5.9,12.1-14.9,12.1-25.2C417.9,186,417.2,182.8,416.4,179.8z"/>
					</g>
				</g>
			</g>
		</g>
	</g>
	<rect x="430.5" y="159.2" class="st4" width="116.5" height="33.8"/>
</g>
<g>
	<path class="st23" d="M649.8,89.2c-16.4,0-29.8,13.4-29.8,29.8s13.4,29.8,29.8,29.8c16.4,0,29.8-13.4,29.8-29.8
		S666.2,89.2,649.8,89.2z M649.8,142.8c-13.1,0-23.7-10.6-23.7-23.7s10.6-23.8,23.7-23.8c13.1,0,23.7,10.7,23.7,23.8
		S662.8,142.8,649.8,142.8z"/>
	<path class="st23" d="M637.1,135.3c0.9,0.2,1.7-0.1,2.1-0.9c2.1-3.8,6.1-6.3,10.7-6.3s8.7,2.6,10.7,6.3c0.4,0.8,1.3,1.2,2.1,0.9
		l0,0c1.1-0.3,1.5-1.5,1.1-2.6c-2.5-5.3-7.8-8.9-14-8.9c-6.4,0-12,2.9-14.3,8.5c-0.2,0.6,0.1,2.5,0.8,2.7L637.1,135.3z"/>
	<g>
		<circle class="st23" cx="641" cy="113" r="4.2"/>
		<circle class="st23" cx="658.6" cy="113" r="4.2"/>
	</g>
</g>
<text transform="matrix(1 0 0 1 688.9675 96.5499)" class="st10 st24 st25">0.25%</text>
<g>
	<path class="st12" d="M645.1-24.5c-16.4,0-29.8,13.4-29.8,29.8s13.4,29.8,29.8,29.8c16.4,0,29.8-13.4,29.8-29.8
		S661.6-24.5,645.1-24.5z M645.1,29c-13.1,0-23.7-10.6-23.7-23.7s10.6-23.8,23.7-23.8s23.7,10.6,23.7,23.7S658.2,29,645.1,29z"/>
	<path class="st12" d="M658,10.1c-0.9-0.2-1.7,0.1-2.1,0.9c-2.1,3.8-6.1,6.3-10.7,6.3s-8.7-2.6-10.7-6.3c-0.4-0.8-1.3-1.2-2.1-0.9
		l0,0c-1.1,0.3-1.5,1.5-1.1,2.6c2.5,5.3,7.8,8.9,14,8.9c6.4,0,12-2.9,14.3-8.5c0.2-0.6-0.1-2.5-0.8-2.7L658,10.1z"/>
	<g>
		<circle class="st12" cx="636.3" cy="-0.7" r="4.2"/>
		<circle class="st12" cx="653.9" cy="-0.7" r="4.2"/>
	</g>
</g>
<text transform="matrix(1 0 0 1 607.2732 62.966)" class="st10 st24 st25">0.25%</text>
<text transform="matrix(1 0 0 1 616.4822 174.9781)" class="st10 st24 st25">0.25%</text>
<g>
	<g>
		<path class="st26" d="M727,9c-16.4,0-29.8,13.4-29.8,29.8s13.4,29.8,29.8,29.8c16.4,0,29.8-13.4,29.8-29.8S743.4,9,727,9z
			 M727,62.5c-13.1,0-23.7-10.6-23.7-23.7s10.6-23.7,23.7-23.7c13.1,0,23.7,10.6,23.7,23.7S740.1,62.5,727,62.5z"/>
		<g>
			<circle class="st26" cx="718.2" cy="32.8" r="4.2"/>
			<circle class="st26" cx="735.7" cy="32.8" r="4.2"/>
		</g>
	</g>
	<path class="st26" d="M736.9,52.6H717c-1.7,0-3.1-1.4-3.1-3.1l0,0c0-1.7,1.4-3.1,3.1-3.1h19.9c1.7,0,3.1,1.4,3.1,3.1l0,0
		C740,51.2,738.6,52.6,736.9,52.6z"/>
</g>
</svg>
