<?xml version="1.0" encoding="utf-8"?>
<!-- Generator: Adobe Illustrator 19.1.0, SVG Export Plug-In . SVG Version: 6.00 Build 0)  -->
<svg version="1.1" id="Layer_1" xmlns="http://www.w3.org/2000/svg" xmlns:xlink="http://www.w3.org/1999/xlink" x="0px" y="0px"
	 viewBox="0 0 200 200" style="enable-background:new 0 0 200 200;" xml:space="preserve">
<style type="text/css">
	.st0{fill:#CCCCCC;}
</style>
<g>
	<g>
		<g id="_x39_82-food-toolbar_x40_2x.png">
			<g>
				<path class="st0" d="M86,28c0-2.1-1.7-3.7-3.7-3.7H63.8l3-14.9h26.7c2.1,0,3.7-1.7,3.7-3.7S95.5,2,93.4,2H63.7
					c-1.8,0-3.2,1.3-3.6,3h-0.1l-3.9,19.3H15.4c-2.1,0-3.7,1.7-3.7,3.7c0,0.2,0.1,0.3,0.1,0.4h-0.1l14.9,104h0.1
					c0.2,1.9,1.7,3.3,3.6,3.3h37.1c1.9,0,3.4-1.4,3.6-3.3h0.1L86,28.4h-0.1C85.9,28.3,86,28.2,86,28z M19.7,31.7h35l-5.7,28.2
					c-9.4-4.1-18.3-5.7-26.2-5.9L19.7,31.7z M64.2,128.3H33.5L24,61.5c7.2,0.3,15.2,1.9,23.6,5.8c0,0,0,0,0,0l-9.8,49h0.1
					c-0.1,0.3-0.2,0.5-0.2,0.8c0,2.1,1.7,3.7,3.7,3.7c1.8,0,3.2-1.3,3.6-3h0.1l9.6-48.2c5.3,1.4,11.2,2.3,17.5,2.5L64.2,128.3z
					 M73.2,65.1c-5.5-0.1-11.3-0.8-17.1-2.6l6.2-30.8H78L73.2,65.1z"/>
			</g>
		</g>
	</g>
</g>
<g>
	<g>
		<g id="Layer_1_1_">
			<g>
				<g>
					<ellipse class="st0" cx="102.4" cy="77.2" rx="5.1" ry="3.6"/>
				</g>
				<g>
					<ellipse class="st0" cx="159.6" cy="77.2" rx="5.1" ry="3.6"/>
				</g>
				<g>
					<path class="st0" d="M186.2,125.8c1.6-2.7,2.5-5.7,2.5-9c0-4.3-1.6-8.2-4.2-11.3c2.6-2.6,4.2-6.3,4.2-10.3
						c0-23.9-25.9-43.3-57.7-43.3S73.3,71.3,73.3,95.2c0,4,1.6,7.6,4.2,10.3c-2.6,3.2-4.2,7.1-4.2,11.4c0,3.2,0.9,6.3,2.5,9
						c-0.1,0.1-0.3,0.2-0.4,0.3c-1.3,1.3-2.1,3.2-2.1,5.1v9c0,11.1,12,19.8,27.4,19.8h60.6c15.4,0,27.4-8.7,27.4-19.8v-9
						C188.6,129.1,187.7,127.1,186.2,125.8z M111.1,120.5l16.2-14.4h43.3c5.6,0,10.8,4.9,10.8,10.8s-5.2,10.8-10.8,10.8H91.3
						c-5.6,0-10.8-4.9-10.8-10.8S85.7,106,91.3,106h3.6L111.1,120.5z M100.3,106h21.6l-10.8,9.6L100.3,106z M181.4,140.3
						c0,6.9-9.1,12.6-20.2,12.6h-60.6c-11.1,0-20.2-5.7-20.2-12.6c0-0.3,0-9,0-9h100.9C181.4,131.3,181.4,140,181.4,140.3z
						 M174.7,102.4H87.2c-3.7,0-6.7-3.3-6.7-7.2c0-19.4,22.6-36,50.4-36s50.4,16.7,50.4,36C181.4,99.2,178.4,102.4,174.7,102.4z"/>
				</g>
				<g>
					<ellipse class="st0" cx="142.8" cy="70" rx="5.1" ry="3.6"/>
				</g>
				<g>
					<ellipse class="st0" cx="119.2" cy="70" rx="5.1" ry="3.6"/>
				</g>
			</g>
		</g>
	</g>
</g>
</svg>
