<?xml version="1.0" encoding="utf-8"?>
<!-- Generator: Adobe Illustrator 19.1.0, SVG Export Plug-In . SVG Version: 6.00 Build 0)  -->
<svg version="1.1" id="Layer_1" xmlns="http://www.w3.org/2000/svg" xmlns:xlink="http://www.w3.org/1999/xlink" x="0px" y="0px"
	 viewBox="-105 197 400 400" style="enable-background:new -105 197 400 400;" xml:space="preserve">
<style type="text/css">
	.st0{fill:#D6E3E8;}
	.st1{fill:#77BDE1;}
	.st2{fill:#FFFFFF;}
	.st3{fill:#E3221B;}
	.st4{fill:#FCD9D9;}
	.st5{fill:none;stroke:#B0DC07;stroke-width:12;stroke-miterlimit:10;}
	.st6{fill:#B0DC07;}
	.st7{font-family:'MyriadPro-Regular';}
	.st8{font-size:26px;}
</style>
<g>
	<rect x="-71.5" y="295.6" class="st0" width="187.4" height="268.5"/>
	<path class="st1" d="M120,304c0-6.6-5.4-12-12-12H-63c-6.6,0-12,5.4-12,12v251c0,6.6,5.4,12,12,12h171c6.6,0,12-5.4,12-12V304z
		 M110,555c0,1.1-0.9,2-2,2H-63c-1.1,0-2-0.9-2-2V304c0-1.1,0.9-2,2-2h171c1.1,0,2,0.9,2,2V555z"/>
	<rect x="-53.3" y="313" class="st1" width="151.7" height="206.5"/>
	<rect x="-48" y="319" class="st2" width="141" height="196"/>
	<circle class="st1" cx="21.5" cy="530.5" r="6.5"/>
</g>
<g>
	<path class="st3" d="M246,217H52c-7.2,0-13,5.8-13,13v129c0,7.1,5.8,13,13,13h7.9l-8.8,32.8c-0.7,2.7,2.2,4.8,4.6,3.3l54.6-36.1
		H246c7.2,0,13-5.9,13-13V230C259,222.8,253.2,217,246,217z"/>
	<path class="st4" d="M243,227H55c-3.3,0-6,2.7-6,6v123c0,3.3,2.7,6,6,6h18l-7.4,27.6l41.6-27.6H243c3.3,0,6-2.7,6-6V233
		C249,229.7,246.3,227,243,227z"/>
	<path class="st3" d="M215.7,274H78.3c-3.3,0-6-2.7-6-6l0,0c0-3.3,2.7-6,6-6h137.3c3.3,0,6,2.7,6,6l0,0
		C221.7,271.3,219,274,215.7,274z"/>
	<path class="st3" d="M215.7,298H78.3c-3.3,0-6-2.7-6-6l0,0c0-3.3,2.7-6,6-6h137.3c3.3,0,6,2.7,6,6l0,0
		C221.7,295.3,219,298,215.7,298z"/>
	<path class="st3" d="M215.7,322H78.3c-3.3,0-6-2.7-6-6l0,0c0-3.3,2.7-6,6-6h137.3c3.3,0,6,2.7,6,6l0,0
		C221.7,319.3,219,322,215.7,322z"/>
</g>
<g>
	<g>
		<path class="st5" d="M20.3,480.3h111c6.6,0,12.4-4.3,14.3-10.6l13-21.4c1.9-6.3,7.7-10.6,14.3-10.6h61.7"/>
		<g>
			<g>
				<circle class="st2" cx="21.6" cy="480.3" r="22.6"/>
				<path class="st6" d="M21.6,505.8c14.1,0,25.6-11.5,25.6-25.6s-11.5-25.6-25.6-25.6S-4,466.1-4,480.2S7.5,505.8,21.6,505.8
					S7.5,505.8,21.6,505.8z M21.6,460.7c10.8,0,19.6,8.8,19.6,19.6s-8.8,19.6-19.6,19.6S2,491.1,2,480.3S10.8,460.7,21.6,460.7
					C32.3,460.7,10.8,460.7,21.6,460.7z"/>
			</g>
		</g>
		<g>
			<g>
				<circle class="st2" cx="233.4" cy="437.6" r="22.6"/>
				<path class="st6" d="M233.4,463.2c-14.1,0-25.6-11.5-25.6-25.6s11.5-25.6,25.6-25.6s25.6,11.5,25.6,25.6
					S247.5,463.2,233.4,463.2S247.5,463.2,233.4,463.2z M233.4,418.1c-10.8,0-19.6,8.8-19.6,19.6s8.8,19.6,19.6,19.6
					c10.8,0,19.6-8.8,19.6-19.6C253,426.9,244.2,418.1,233.4,418.1C222.7,418.1,244.2,418.1,233.4,418.1z"/>
			</g>
		</g>
	</g>
</g>
<text transform="matrix(1 0 0 1 226 445.5)" class="st6 st7 st8">A</text>
</svg>
