<?xml version="1.0" encoding="utf-8"?>
<!-- Generator: Adobe Illustrator 19.1.0, SVG Export Plug-In . SVG Version: 6.00 Build 0)  -->
<svg version="1.1" id="Layer_1" xmlns="http://www.w3.org/2000/svg" xmlns:xlink="http://www.w3.org/1999/xlink" x="0px" y="0px"
	 viewBox="0 0 400 400" style="enable-background:new 0 0 400 400;" xml:space="preserve">
<style type="text/css">
	.st0{fill:#D6E3E8;}
	.st1{fill:#77BDE1;}
	.st2{fill:#FFFFFF;}
	.st3{fill:#E3221B;}
	.st4{fill:#FCD9D9;}
	.st5{fill:none;stroke:#B0DC07;stroke-width:12;stroke-miterlimit:10;}
	.st6{fill:#B0DC07;}
	.st7{font-family:'MyriadPro-Regular';}
	.st8{font-size:26px;}
</style>
<g>
	<rect x="33.5" y="98.6" class="st0" width="187.4" height="268.5"/>
	<path class="st1" d="M225,107c0-6.6-5.4-12-12-12H42c-6.6,0-12,5.4-12,12v251c0,6.6,5.4,12,12,12h171c6.6,0,12-5.4,12-12V107z
		 M215,358c0,1.1-0.9,2-2,2H42c-1.1,0-2-0.9-2-2V107c0-1.1,0.9-2,2-2h171c1.1,0,2,0.9,2,2V358z"/>
	<rect x="51.7" y="116" class="st1" width="151.7" height="206.5"/>
	<rect x="57" y="122" class="st2" width="141" height="196"/>
	<polygon class="st0" points="57,318 198,219.3 198,318 	"/>
	<circle class="st1" cx="126.5" cy="333.5" r="6.5"/>
</g>
<g>
	<path class="st3" d="M351,20H157c-7.2,0-13,5.8-13,13v129c0,7.1,5.8,13,13,13h7.9l-8.8,32.8c-0.7,2.7,2.2,4.8,4.6,3.3l54.6-36.1
		H351c7.2,0,13-5.9,13-13V33C364,25.8,358.2,20,351,20z"/>
	<path class="st4" d="M348,30H160c-3.3,0-6,2.7-6,6v123c0,3.3,2.7,6,6,6h18l-7.4,27.6l41.6-27.6H348c3.3,0,6-2.7,6-6V36
		C354,32.7,351.3,30,348,30z"/>
	<path class="st3" d="M320.7,77H183.3c-3.3,0-6-2.7-6-6v0c0-3.3,2.7-6,6-6h137.3c3.3,0,6,2.7,6,6v0C326.7,74.3,324,77,320.7,77z"/>
	<path class="st3" d="M320.7,101H183.3c-3.3,0-6-2.7-6-6v0c0-3.3,2.7-6,6-6h137.3c3.3,0,6,2.7,6,6v0C326.7,98.3,324,101,320.7,101z"
		/>
	<path class="st3" d="M320.7,125H183.3c-3.3,0-6-2.7-6-6v0c0-3.3,2.7-6,6-6h137.3c3.3,0,6,2.7,6,6v0C326.7,122.3,324,125,320.7,125z
		"/>
</g>
<g>
	<g>
		<path class="st5" d="M125.3,283.3h111c6.6,0,12.4-4.3,14.3-10.6l13-21.4c1.9-6.3,7.7-10.6,14.3-10.6h61.7"/>
		<g>
			<g>
				<circle class="st2" cx="126.6" cy="283.3" r="22.6"/>
				<path class="st6" d="M126.6,308.8c14.1,0,25.6-11.5,25.6-25.6s-11.5-25.6-25.6-25.6c-14.1,0-25.6,11.5-25.6,25.6
					S112.5,308.8,126.6,308.8C140.7,308.8,112.5,308.8,126.6,308.8z M126.6,263.7c10.8,0,19.6,8.8,19.6,19.6s-8.8,19.6-19.6,19.6
					c-10.8,0-19.6-8.8-19.6-19.6S115.8,263.7,126.6,263.7C137.3,263.7,115.8,263.7,126.6,263.7z"/>
			</g>
		</g>
		<g>
			<g>
				<circle class="st2" cx="338.4" cy="240.6" r="22.6"/>
				<path class="st6" d="M338.4,266.2c-14.1,0-25.6-11.5-25.6-25.6c0-14.1,11.5-25.6,25.6-25.6c14.1,0,25.6,11.5,25.6,25.6
					C364,254.7,352.5,266.2,338.4,266.2C324.3,266.2,352.5,266.2,338.4,266.2z M338.4,221.1c-10.8,0-19.6,8.8-19.6,19.6
					c0,10.8,8.8,19.6,19.6,19.6c10.8,0,19.6-8.8,19.6-19.6C358,229.9,349.2,221.1,338.4,221.1C327.7,221.1,349.2,221.1,338.4,221.1z
					"/>
			</g>
		</g>
	</g>
</g>
<text transform="matrix(1 0 0 1 331 248.5)" class="st6 st7 st8">A</text>
</svg>
