<?xml version="1.0" encoding="utf-8"?>
<!-- Generator: Adobe Illustrator 19.1.0, SVG Export Plug-In . SVG Version: 6.00 Build 0)  -->
<svg version="1.1" id="Layer_1" xmlns="http://www.w3.org/2000/svg" xmlns:xlink="http://www.w3.org/1999/xlink" x="0px" y="0px"
	 viewBox="50 -50 200 200" style="enable-background:new 50 -50 200 200;" xml:space="preserve">
<style type="text/css">
	.st0{fill:#CCCCCC;}
</style>
<g>
	<rect x="156.2" y="8.6" class="st0" width="9.5" height="46.1"/>
	<rect x="181" y="8.6" class="st0" width="9.5" height="46.1"/>
	<rect x="106.7" y="8.6" class="st0" width="9.5" height="46.1"/>
	<rect x="131.5" y="8.6" class="st0" width="9.5" height="46.1"/>
</g>
<rect x="95.4" y="61" class="st0" width="108.5" height="7.4"/>
<rect x="83.2" y="76" class="st0" width="132.9" height="10"/>
<path class="st0" d="M214.2-7.2l-63.4-26.7c-0.8-0.3-1.6-0.3-2.4,0L85.1-7.2c-1.1,0.5-1.9,1.6-1.9,2.8v3.6c0,1.7,1.4,3.1,2.1,3.1
	H212c2.7,0,4.1-1.4,4.1-3.1v-3.6C216.1-5.6,215.3-6.8,214.2-7.2z M94.2-4.2l55.4-23.4L205-4.2H94.2z"/>
</svg>
