<?xml version="1.0" encoding="utf-8"?>
<!-- Generator: Adobe Illustrator 19.1.0, SVG Export Plug-In . SVG Version: 6.00 Build 0)  -->
<svg version="1.1" id="Layer_1" xmlns="http://www.w3.org/2000/svg" xmlns:xlink="http://www.w3.org/1999/xlink" x="0px" y="0px"
	 viewBox="50 -50 200 200" style="enable-background:new 50 -50 200 200;" xml:space="preserve">
<style type="text/css">
	.st0{fill:#DDDDDD;}
</style>
<g id="Layer_2">
</g>
<polygon class="st0" points="171.6,33.7 153.6,33.7 153.6,15.4 145.3,15.4 145.3,33.7 127.3,33.7 127.3,42 145.3,42 145.3,59.7 
	153.6,59.7 153.6,42 171.6,42 "/>
<path class="st0" d="M208.9-12.9h-38.6c0-11.6-9.5-21-21-21c-11.6,0-21,9.5-21,21H89.8c-7.8,0-14.1,6.3-14.1,14.1v73.6
	c0,7.8,6.3,14.1,14.1,14.1h119.2c7.8,0,14.1-6.3,14.1-14.1V1.1C223-6.6,216.7-12.9,208.9-12.9z M149.4-27c7.8,0,14.1,6.3,14.1,14.1
	h-28.1C135.4-20.7,141.7-27,149.4-27z M93.3,81.7h-3.5c-3.8,0-7-3.2-7-7.1V1c0-3.8,3.2-7,7-7h3.5V81.7z M194.9,81.7h-7h-7h-66.6
	h-7.1h-7V-6h7h7.1H181h7h7V81.7z M215.9,74.6c0,3.8-3.2,7-7,7h-7V-6h7c3.8,0,7,3.2,7,7V74.6z"/>
</svg>
