<?xml version="1.0" encoding="utf-8"?>
<!-- Generator: Adobe Illustrator 19.1.0, SVG Export Plug-In . SVG Version: 6.00 Build 0)  -->
<svg version="1.1" id="Layer_1" xmlns="http://www.w3.org/2000/svg" xmlns:xlink="http://www.w3.org/1999/xlink" x="0px" y="0px"
	 viewBox="0 0 200 200" style="enable-background:new 0 0 200 200;" xml:space="preserve">
<style type="text/css">
	.st0{fill:#DDDDDD;}
</style>
<g>
	<g>
		<g>
			<path class="st0" d="M139.7,24.2h-29.4c0-8.8-7.2-16-16-16s-16,7.2-16,16H49c-5.9,0-10.7,4.8-10.7,10.7v56
				c0,5.9,4.8,10.7,10.7,10.7h90.7c5.9,0,10.7-4.8,10.7-10.7v-56C150.4,29,145.6,24.2,139.7,24.2z M123.7,96.2V29.5h5.3v66.7H123.7z
				 M94.4,13.5c5.9,0,10.7,4.8,10.7,10.7H83.7C83.7,18.3,88.5,13.5,94.4,13.5z M118.4,29.5v66.7H67.7V29.5H118.4z M57,96.2V29.5h5.3
				v66.7H57z M43.7,90.8v-56c0-2.9,2.4-5.3,5.3-5.3h2.7v66.7H49C46.1,96.2,43.7,93.8,43.7,90.8z M145,90.8c0,2.9-2.4,5.3-5.3,5.3
				h-5.3V29.5h5.3c2.9,0,5.3,2.4,5.3,5.3V90.8z"/>
		</g>
	</g>
</g>
<path class="st0" d="M171.7,0.2h-0.5c-2.5,0-4.5,2-4.5,4.5V112H29.5c-2.5,0-4.5,2-4.5,4.5v1.5c0,2.5,2,4.5,4.5,4.5h141.7h0.5
	c2.5,0,4.5-2,4.5-4.5v-1.5V4.7C176.2,2.2,174.2,0.2,171.7,0.2z"/>
<path class="st0" d="M41.1,132c-8.7,0-15.7,7-15.7,15.7s7,15.7,15.7,15.7s15.7-7,15.7-15.7C56.9,139,49.8,132,41.1,132z M41.1,157.7
	c-5.5,0-10-4.5-10-10s4.5-10,10-10s10,4.5,10,10C51.2,153.2,46.7,157.7,41.1,157.7z"/>
<path class="st0" d="M158.9,132c-8.7,0-15.7,7-15.7,15.7s7,15.7,15.7,15.7s15.7-7,15.7-15.7C174.6,139,167.5,132,158.9,132z
	 M158.9,157.7c-5.5,0-10-4.5-10-10s4.5-10,10-10s10,4.5,10,10S164.4,157.7,158.9,157.7z"/>
</svg>
