<?xml version="1.0" encoding="utf-8"?>
<!-- Generator: Adobe Illustrator 19.1.0, SVG Export Plug-In . SVG Version: 6.00 Build 0)  -->
<svg version="1.1" id="Layer_1" xmlns="http://www.w3.org/2000/svg" xmlns:xlink="http://www.w3.org/1999/xlink" x="0px" y="0px"
	 viewBox="0 0 400 400" style="enable-background:new 0 0 400 400;" xml:space="preserve">
<style type="text/css">
	.st0{fill:none;stroke:#E3221B;stroke-width:12;stroke-miterlimit:10;}
	.st1{fill:#77BDE1;}
	.st2{fill:#FFFFFF;}
	.st3{fill:#D6E3E8;}
	.st4{fill:none;stroke:#B0DC07;stroke-width:12;stroke-miterlimit:10;}
	.st5{fill:#B0DC07;}
</style>
<line class="st0" x1="200" y1="77" x2="200" y2="249.5"/>
<path class="st1" d="M251.5,142.4h-103c-6.6,0-12-5.4-12-12V42.2c0-6.6,5.4-12,12-12h103c6.6,0,12,5.4,12,12v88.1
	C263.5,137,258.1,142.4,251.5,142.4z"/>
<path class="st2" d="M254,130c0,1.1-0.9,2-2,2H149c-1.1,0-2-0.9-2-2V42c0-1.1,0.9-2,2-2h103c1.1,0,2,0.9,2,2V130z"/>
<path class="st0" d="M93.5,255v-71.2c0.6-2.7,3.1-4.7,5.9-4.7l199.7,0.2c2.8,0,5.3,2,5.9,4.7V252"/>
<path class="st1" d="M127.8,297h-66c-6.6,0-12-5.4-12-12v-66c0-6.6,5.4-12,12-12h66c6.6,0,12,5.4,12,12v66
	C139.8,291.6,134.4,297,127.8,297z"/>
<path class="st2" d="M61.8,287c-1.1,0-2-0.9-2-2v-66c0-1.1,0.9-2,2-2h66c1.1,0,2,0.9,2,2v66c0,1.1-0.9,2-2,2H61.8z"/>
<path class="st1" d="M338.2,297h-66c-6.6,0-12-5.4-12-12v-66c0-6.6,5.4-12,12-12h66c6.6,0,12,5.4,12,12v66
	C350.2,291.6,344.8,297,338.2,297z"/>
<path class="st1" d="M232.7,297h-66c-6.6,0-12-5.4-12-12v-66c0-6.6,5.4-12,12-12h66c6.6,0,12,5.4,12,12v66
	C244.7,291.6,239.3,297,232.7,297z"/>
<path class="st3" d="M62.5,287c-1.1,0-2-0.9-2-2l68-68c1.1,0,2,0.9,2,2v66c0,1.1-0.9,2-2,2H62.5z"/>
<path class="st2" d="M166.2,287c-1.1,0-2-0.9-2-2v-66c0-1.1,0.9-2,2-2h66c1.1,0,2,0.9,2,2v66c0,1.1-0.9,2-2,2H166.2z"/>
<path class="st3" d="M166.2,287c-1.1,0-2-0.9-2-2l68-68c1.1,0,2,0.9,2,2v66c0,1.1-0.9,2-2,2H166.2z"/>
<path class="st2" d="M272.2,287c-1.1,0-2-0.9-2-2v-66c0-1.1,0.9-2,2-2h66c1.1,0,2,0.9,2,2v66c0,1.1-0.9,2-2,2H272.2z"/>
<path class="st3" d="M272.2,287c-1.1,0-2-0.9-2-2l68-68c1.1,0,2,0.9,2,2v66c0,1.1-0.9,2-2,2H272.2z"/>
<g>
	<g>
		<path class="st4" d="M200.5,293.3V333c0,6.6,5.4,12,12,12H357"/>
		<g>
			<g>
				<circle class="st2" cx="200.5" cy="294.6" r="22.6"/>
				<path class="st5" d="M174.9,294.6c0,14.1,11.5,25.6,25.6,25.6c14.1,0,25.6-11.5,25.6-25.6c0-14.1-11.5-25.6-25.6-25.6
					C186.4,269,174.9,280.5,174.9,294.6C174.9,308.7,174.9,280.5,174.9,294.6z M220.1,294.6c0,10.8-8.8,19.6-19.6,19.6
					s-19.6-8.8-19.6-19.6c0-10.8,8.8-19.6,19.6-19.6C211.3,275,220.1,283.8,220.1,294.6C220.1,305.4,220.1,283.8,220.1,294.6z"/>
			</g>
		</g>
		<g>
			<g>
				<circle class="st2" cx="355.7" cy="345" r="22.6"/>
				<path class="st5" d="M355.7,370.6c-14.1,0-25.6-11.5-25.6-25.6s11.5-25.6,25.6-25.6c14.1,0,25.6,11.5,25.6,25.6
					S369.8,370.6,355.7,370.6C341.6,370.6,369.8,370.6,355.7,370.6z M355.7,325.5c-10.8,0-19.6,8.8-19.6,19.6s8.8,19.6,19.6,19.6
					c10.8,0,19.6-8.8,19.6-19.6S366.5,325.5,355.7,325.5C344.9,325.5,366.5,325.5,355.7,325.5z"/>
			</g>
		</g>
	</g>
</g>
<path class="st3" d="M254,130c0,1.1-0.9,2-2,2H149c-1.1,0-2-0.9-2-2l105-90c1.1,0,2,0.9,2,2V130z"/>
<g>
	<g>
		<path class="st4" d="M46.8,143.5h25.8c6.6,0,12.4-4.3,14.3-10.6l-0.4-33.3c1.9-6.3,7.7-10.6,14.3-10.6h103.4"/>
		<g>
			<g>
				<circle class="st2" cx="48.1" cy="143.5" r="22.6"/>
				<path class="st5" d="M48.1,169.1c14.1,0,25.6-11.5,25.6-25.6c0-14.1-11.5-25.6-25.6-25.6c-14.1,0-25.6,11.5-25.6,25.6
					C22.5,157.6,34,169.1,48.1,169.1C62.2,169.1,34,169.1,48.1,169.1z M48.1,124c10.8,0,19.6,8.8,19.6,19.6
					c0,10.8-8.8,19.6-19.6,19.6c-10.8,0-19.6-8.8-19.6-19.6C28.5,132.7,37.3,124,48.1,124C58.9,124,37.3,124,48.1,124z"/>
			</g>
		</g>
		<g>
			<g>
				<circle class="st2" cx="203" cy="89" r="22.6"/>
				<path class="st5" d="M203,114.6c-14.1,0-25.6-11.5-25.6-25.6s11.5-25.6,25.6-25.6c14.1,0,25.6,11.5,25.6,25.6
					S217.1,114.6,203,114.6C188.9,114.6,217.1,114.6,203,114.6z M203,69.4c-10.8,0-19.6,8.8-19.6,19.6s8.8,19.6,19.6,19.6
					c10.8,0,19.6-8.8,19.6-19.6S213.8,69.4,203,69.4C192.2,69.4,213.8,69.4,203,69.4z"/>
			</g>
		</g>
	</g>
</g>
<g>
	<path class="st5" d="M44.6,146.4l-1.8,5.5h-2.3l6-17.5h2.7l6,17.5h-2.4l-1.9-5.5H44.6z M50.4,144.6l-1.7-5
		c-0.4-1.1-0.6-2.2-0.9-3.2h-0.1c-0.3,1-0.5,2.1-0.9,3.2l-1.7,5.1H50.4z"/>
</g>
<g>
	<path class="st5" d="M349.8,336.7c1-0.2,2.5-0.4,4.1-0.4c2.3,0,3.7,0.4,4.8,1.3c0.9,0.7,1.5,1.7,1.5,3.1c0,1.7-1.1,3.2-3,3.8v0.1
		c1.7,0.4,3.6,1.8,3.6,4.4c0,1.5-0.6,2.7-1.5,3.5c-1.2,1.1-3.2,1.6-6.1,1.6c-1.6,0-2.8-0.1-3.5-0.2V336.7z M352.1,343.9h2.1
		c2.4,0,3.8-1.2,3.8-2.9c0-2.1-1.6-2.9-3.8-2.9c-1,0-1.6,0.1-2,0.2V343.9z M352.1,352.3c0.4,0.1,1.1,0.1,1.9,0.1
		c2.3,0,4.5-0.9,4.5-3.4c0-2.4-2.1-3.4-4.5-3.4h-1.9V352.3z"/>
</g>
</svg>
