<?xml version="1.0" encoding="utf-8"?>
<!-- Generator: Adobe Illustrator 19.1.0, SVG Export Plug-In . SVG Version: 6.00 Build 0)  -->
<svg version="1.1" id="Layer_1" xmlns="http://www.w3.org/2000/svg" xmlns:xlink="http://www.w3.org/1999/xlink" x="0px" y="0px"
	 viewBox="-105 197 400 400" style="enable-background:new -105 197 400 400;" xml:space="preserve">
<style type="text/css">
	.st0{fill:none;stroke:#E3221B;stroke-width:12;stroke-miterlimit:10;}
	.st1{fill:#77BDE1;}
	.st2{fill:#FFFFFF;}
	.st3{fill:none;stroke:#B0DC07;stroke-width:12;stroke-miterlimit:10;}
	.st4{fill:#B0DC07;}
</style>
<line class="st0" x1="95" y1="274" x2="95" y2="446.5"/>
<path class="st1" d="M146.5,339.4h-103c-6.6,0-12-5.4-12-12v-88.2c0-6.6,5.4-12,12-12h103c6.6,0,12,5.4,12,12v88.1
	C158.5,334,153.1,339.4,146.5,339.4z"/>
<path class="st2" d="M149,327c0,1.1-0.9,2-2,2H44c-1.1,0-2-0.9-2-2v-88c0-1.1,0.9-2,2-2h103c1.1,0,2,0.9,2,2V327z"/>
<path class="st0" d="M-11.5,452v-71.2c0.6-2.7,3.1-4.7,5.9-4.7l199.7,0.2c2.8,0,5.3,2,5.9,4.7v68"/>
<path class="st1" d="M22.8,494h-66c-6.6,0-12-5.4-12-12v-66c0-6.6,5.4-12,12-12h66c6.6,0,12,5.4,12,12v66
	C34.8,488.6,29.4,494,22.8,494z"/>
<path class="st2" d="M-43.2,484c-1.1,0-2-0.9-2-2v-66c0-1.1,0.9-2,2-2h66c1.1,0,2,0.9,2,2v66c0,1.1-0.9,2-2,2H-43.2z"/>
<path class="st1" d="M233.2,494h-66c-6.6,0-12-5.4-12-12v-66c0-6.6,5.4-12,12-12h66c6.6,0,12,5.4,12,12v66
	C245.2,488.6,239.8,494,233.2,494z"/>
<path class="st1" d="M127.7,494h-66c-6.6,0-12-5.4-12-12v-66c0-6.6,5.4-12,12-12h66c6.6,0,12,5.4,12,12v66
	C139.7,488.6,134.3,494,127.7,494z"/>
<path class="st2" d="M61.2,484c-1.1,0-2-0.9-2-2v-66c0-1.1,0.9-2,2-2h66c1.1,0,2,0.9,2,2v66c0,1.1-0.9,2-2,2H61.2z"/>
<path class="st2" d="M167.2,484c-1.1,0-2-0.9-2-2v-66c0-1.1,0.9-2,2-2h66c1.1,0,2,0.9,2,2v66c0,1.1-0.9,2-2,2H167.2z"/>
<g>
	<g>
		<path class="st3" d="M95.5,490.3V530c0,6.6,5.4,12,12,12H252"/>
		<g>
			<g>
				<circle class="st2" cx="95.5" cy="491.6" r="22.6"/>
				<path class="st4" d="M69.9,491.6c0,14.1,11.5,25.6,25.6,25.6s25.6-11.5,25.6-25.6S109.6,466,95.5,466S69.9,477.5,69.9,491.6
					S69.9,477.5,69.9,491.6z M115.1,491.6c0,10.8-8.8,19.6-19.6,19.6s-19.6-8.8-19.6-19.6c0-10.8,8.8-19.6,19.6-19.6
					S115.1,480.8,115.1,491.6C115.1,502.4,115.1,480.8,115.1,491.6z"/>
			</g>
		</g>
		<g>
			<g>
				<circle class="st2" cx="250.7" cy="542" r="22.6"/>
				<path class="st4" d="M250.7,567.6c-14.1,0-25.6-11.5-25.6-25.6s11.5-25.6,25.6-25.6s25.6,11.5,25.6,25.6
					S264.8,567.6,250.7,567.6C236.6,567.6,264.8,567.6,250.7,567.6z M250.7,522.5c-10.8,0-19.6,8.8-19.6,19.6
					c0,10.8,8.8,19.6,19.6,19.6c10.8,0,19.6-8.8,19.6-19.6C270.3,531.3,261.5,522.5,250.7,522.5
					C239.9,522.5,261.5,522.5,250.7,522.5z"/>
			</g>
		</g>
	</g>
</g>
<g>
	<g>
		<path class="st3" d="M-58.2,340.5h25.8c6.6,0,12.4-4.3,14.3-10.6l-0.4-33.3c1.9-6.3,7.7-10.6,14.3-10.6H99.2"/>
		<g>
			<g>
				<circle class="st2" cx="-56.9" cy="340.5" r="22.6"/>
				<path class="st4" d="M-56.9,366.1c14.1,0,25.6-11.5,25.6-25.6s-11.5-25.6-25.6-25.6s-25.6,11.5-25.6,25.6S-71,366.1-56.9,366.1
					S-71,366.1-56.9,366.1z M-56.9,321c10.8,0,19.6,8.8,19.6,19.6s-8.8,19.6-19.6,19.6s-19.6-8.8-19.6-19.6
					C-76.5,329.7-67.7,321-56.9,321S-67.7,321-56.9,321z"/>
			</g>
		</g>
		<g>
			<g>
				<circle class="st2" cx="98" cy="286" r="22.6"/>
				<path class="st4" d="M98,311.6c-14.1,0-25.6-11.5-25.6-25.6s11.5-25.6,25.6-25.6s25.6,11.5,25.6,25.6S112.1,311.6,98,311.6
					S112.1,311.6,98,311.6z M98,266.4c-10.8,0-19.6,8.8-19.6,19.6s8.8,19.6,19.6,19.6s19.6-8.8,19.6-19.6S108.8,266.4,98,266.4
					S108.8,266.4,98,266.4z"/>
			</g>
		</g>
	</g>
</g>
<g>
	<path class="st4" d="M-60.4,343.4l-1.8,5.5h-2.3l6-17.5h2.7l6,17.5h-2.4l-1.9-5.5H-60.4z M-54.6,341.6l-1.7-5
		c-0.4-1.1-0.6-2.2-0.9-3.2h-0.1c-0.3,1-0.5,2.1-0.9,3.2l-1.7,5.1h5.3V341.6z"/>
</g>
<g>
	<path class="st4" d="M244.8,533.7c1-0.2,2.5-0.4,4.1-0.4c2.3,0,3.7,0.4,4.8,1.3c0.9,0.7,1.5,1.7,1.5,3.1c0,1.7-1.1,3.2-3,3.8v0.1
		c1.7,0.4,3.6,1.8,3.6,4.4c0,1.5-0.6,2.7-1.5,3.5c-1.2,1.1-3.2,1.6-6.1,1.6c-1.6,0-2.8-0.1-3.5-0.2v-17.2H244.8z M247.1,540.9h2.1
		c2.4,0,3.8-1.2,3.8-2.9c0-2.1-1.6-2.9-3.8-2.9c-1,0-1.6,0.1-2,0.2v5.6H247.1z M247.1,549.3c0.4,0.1,1.1,0.1,1.9,0.1
		c2.3,0,4.5-0.9,4.5-3.4c0-2.4-2.1-3.4-4.5-3.4h-1.9V549.3z"/>
</g>
</svg>
