<?xml version="1.0" encoding="utf-8"?>
<!-- Generator: Adobe Illustrator 19.1.0, SVG Export Plug-In . SVG Version: 6.00 Build 0)  -->
<svg version="1.1" id="Layer_1" xmlns="http://www.w3.org/2000/svg" xmlns:xlink="http://www.w3.org/1999/xlink" x="0px" y="0px"
	 viewBox="200 -60 600 320" style="enable-background:new 200 -60 600 320;" xml:space="preserve">
<style type="text/css">
	.st0{fill:#4F95BA;}
	.st1{fill:#77BDE1;}
	.st2{fill:#AFD136;}
	.st3{opacity:0.5;enable-background:new    ;}
	.st4{fill:#FFFFFF;}
	.st5{fill:#D5E2E7;}
	.st6{fill:#333333;}
	.st7{fill:#77BCE0;}
	.st8{fill:#E12526;}
	.st9{fill:#4D4C4C;}
	.st10{fill:#CCCBCB;}
	.st11{opacity:0.5;}
	.st12{fill:#EF504E;}
	.st13{fill:#FDC053;}
	.st14{fill:#8BC43F;}
	.st15{fill:none;stroke:#FFFFFF;stroke-miterlimit:10;}
	.st16{fill:#E29A9A;stroke:#E12526;stroke-miterlimit:10;}
	.st17{opacity:0.5;clip-path:url(#SVGID_2_);}
	.st18{display:none;}
	.st19{display:inline;}
	.st20{fill:#D6E3E8;}
	.st21{fill:#78BDE1;}
	.st22{fill:#E22726;}
	.st23{fill:#FCD9D9;}
	.st24{fill:none;stroke:#B0D235;stroke-width:12;stroke-miterlimit:10;}
	.st25{fill:#B0D235;}
	.st26{display:inline;fill:#78BDE1;}
	.st27{fill:#E7F9D9;}
</style>
<g>
	<g>
		<path class="st0" d="M725.3,221.4h-359c-5.7,0-10.3-4.7-10.3-10.3v-9.4c0-2.8,2.4-5.1,5.1-5.1h369.3c2.8,0,5.1,2.4,5.1,5.1v9.4
			C735.3,216.7,730.8,221.4,725.3,221.4z"/>
		<path class="st0" d="M696.4-3.2H394.9c-5.7,0-10.3,4.7-10.3,10.3v214.1h322.2V7.1C706.8,1.4,702-3.2,696.4-3.2z"/>
	</g>
	<path class="st1" d="M697.4,196.4H393.7V12c0-2.8,2.4-5.1,5.1-5.1h293.1c2.8,0,5.1,2.4,5.1,5.1L697.4,196.4L697.4,196.4z"/>
	<path class="st2" d="M699.4,208.9h21.4c1.1,0,2-0.9,2-2l0,0c0-1.1-0.9-2-2-2h-21.4c-1.1,0-2,0.9-2,2l0,0
		C697.4,208,698.3,208.9,699.4,208.9z"/>
	<circle class="st2" cx="691.1" cy="207" r="2.4"/>
	<path class="st3" d="M509.3,196.4v3c0,1.4,1,2.4,2.4,2.4h70.4c1.4,0,2.4-1,2.4-2.4v-3H509.3z"/>
	<g>
		<path class="st4" d="M660.8,187.7H405.4c-1.4,0-2.4-1-2.4-2.4V34.7c0-1.3,1-2.4,2.4-2.4H661c1.3,0,2.4,1.1,2.4,2.4v150.6
			C663.4,186.5,662.2,187.7,660.8,187.7z"/>
		<path class="st5" d="M663.4,185.5V45.6H402.9v139.9c0,1.3,0.9,2.2,2.2,2.2h256C662.3,187.7,663.4,186.5,663.4,185.5z"/>
		<path class="st6" d="M454.3,45.6h-51.5v139.9c0,1.3,0.9,2.2,2.2,2.2h49.2L454.3,45.6L454.3,45.6z"/>
		<rect x="454.3" y="62.1" class="st6" width="132.7" height="14"/>
		<rect x="454.3" y="75.8" class="st7" width="132.7" height="6.9"/>
		<rect x="590.8" y="50.8" class="st4" width="67.9" height="32.8"/>
		<rect x="593.1" y="53.1" class="st5" width="62.9" height="27.9"/>
		<rect x="590.8" y="90.2" class="st4" width="67.9" height="32.8"/>
		<rect x="593.1" y="92.6" class="st5" width="62.9" height="27.9"/>
		<rect x="405.8" y="77.7" class="st8" width="44.8" height="6.9"/>
		<rect x="405.8" y="67.4" width="44.8" height="6.9"/>
		<rect x="405.8" y="85.7" class="st9" width="44.8" height="6.9"/>
		<rect x="405.8" y="93.6" class="st9" width="44.8" height="6.9"/>
		<rect x="405.8" y="101.5" class="st9" width="44.8" height="6.9"/>
		<rect x="405.8" y="109.6" class="st9" width="44.8" height="6.9"/>
		<g>
			<rect x="458.8" y="88" class="st4" width="124.9" height="35.2"/>
			<rect x="462.8" y="92" class="st8" width="17" height="3.3"/>
			<rect x="462.8" y="99.4" class="st10" width="117.6" height="2"/>
			<rect x="462.8" y="103.3" class="st10" width="117.6" height="2"/>
			<rect x="462.8" y="107.1" class="st10" width="117.6" height="2"/>
			<rect x="462.8" y="111.1" class="st10" width="117.6" height="2"/>
		</g>
		<g class="st11">
			<rect x="458.8" y="128.3" class="st4" width="124.9" height="35.2"/>
			<rect x="462.8" y="132.3" class="st8" width="17" height="3.3"/>
			<rect x="462.8" y="139.8" class="st10" width="117.6" height="2"/>
			<rect x="462.8" y="143.6" class="st10" width="117.6" height="2"/>
			<rect x="462.8" y="147.5" class="st10" width="117.6" height="2"/>
			<rect x="462.8" y="151.4" class="st10" width="117.6" height="2"/>
		</g>
		<circle class="st12" cx="410.7" cy="39.1" r="2.3"/>
		<circle class="st13" cx="417.8" cy="39.1" r="2.3"/>
		<circle class="st14" cx="424.6" cy="39.1" r="2.3"/>
		<g>
			<g>
				<path class="st4" d="M437.7,52.7c-0.1,0-0.1,0.1-0.2,0.2l-3.6,8.1v0.1c0,0,0,0,0.1,0l8.6-1.3c0.2,0,0.2-0.1,0.2-0.1
					c0.5-0.4-0.2-2.3-1.7-4.2C439.6,53.5,438.2,52.4,437.7,52.7z M435.2,60.3c-0.1,0-0.1,0-0.2,0c0,0,0-0.1,0-0.2l1.1-2.5
					c0,0.1,0,0.1,0.1,0.2c0.1,0.3,0.3,0.7,0.6,1.1s0.6,0.8,1,0.9L435.2,60.3z M441.3,59.4l-2.7,0.4l0,0l0,0h-0.1
					c-0.4,0-0.9-0.4-1.5-1c-0.2-0.3-0.5-0.7-0.5-1c-0.1-0.3-0.1-0.5-0.1-0.6l1.1-2.6h0.1c0,0.2,0.1,0.2,0.2,0.4
					c0.2,0.5,0.5,1,0.8,1.6l-0.7,1.6l0,0l0,0l1.7-0.2c0.4,0.5,0.8,0.9,1.3,1.3C441,59.1,441.2,59.3,441.3,59.4L441.3,59.4z
					 M439.4,56.9c0.2,0.2,0.4,0.5,0.5,0.6c0,0,0,0,0.1,0v0.1h-0.1C439.8,57.4,439.6,57.2,439.4,56.9c-0.2-0.1-0.3-0.3-0.4-0.5
					l0.1-0.2h0.1v0.1C439.2,56.2,439.4,56.5,439.4,56.9z M439.2,55.6L439.2,55.6L439.2,55.6H439h-0.2l0,0l0,0l0,0l0.2,0.2h0.1
					L439.2,55.6C439.2,55.8,439.2,55.6,439.2,55.6L439.2,55.6c0.2-0.1,0.5,0.2,0.9,0.7c0.4,0.5,0.6,1,0.5,1.1l0,0V57v-0.4l0,0V57
					v-0.2v-0.2l0,0l0,0l0,0l0,0l0,0l0,0l0,0V57c-0.2,0-0.5-0.2-0.8-0.5C439.4,56,439.2,55.9,439.2,55.6z M439.1,57.3
					c0.2,0.2,0.2,0.3,0.4,0.5l-1.1,0.2l0,0c0,0,0,0,0-0.1l0,0l0.5-1C438.9,56.9,438.9,57,439.1,57.3z M442.2,59.3L442.2,59.3
					L442.2,59.3L442.2,59.3L442.2,59.3L442.2,59.3L442.2,59.3C442.2,59.4,442.2,59.4,442.2,59.3L442.2,59.3L442.2,59.3L442.2,59.3
					L442.2,59.3v0.4V60l0,0v-0.3c-0.4,0-1.3-0.8-2-1.7l0.6-0.2c0.1,0,0.1-0.1,0.1-0.1c0.2-0.2-0.1-0.7-0.5-1.4
					c-0.5-0.6-0.9-0.9-1.1-0.8c0,0,0,0-0.1,0.1l-0.2,0.6c-0.7-1.1-1-2.2-0.9-2.5l0,0l0,0l0,0l0,0l0,0l0,0l0,0l0,0l0,0
					c0,0,0,0,0.1-0.1l0,0l0,0c0.4-0.3,1.7,0.7,2.9,2.3C442,57.5,442.7,59,442.2,59.3z"/>
				<path class="st4" d="M443.6,53.6c-0.1-0.1-0.2-0.1-0.3-0.1l-1.8,1.4c-0.1,0.1-0.1,0.2-0.1,0.3c0,0.1,0.2,0.1,0.3,0.1l1.8-1.4
					C443.6,53.8,443.8,53.7,443.6,53.6z"/>
				<path class="st4" d="M443.3,55.2l-1,0.3c-0.1,0-0.2,0.2-0.2,0.2l0.2,0.2l1-0.3c0.1,0,0.2-0.2,0.2-0.2L443.3,55.2z"/>
				<path class="st4" d="M441.5,54.6l0.6-0.9c0.1-0.1,0.1-0.2-0.1-0.3c-0.1-0.1-0.2-0.1-0.3,0.1l-0.6,0.9c-0.1,0.1-0.1,0.2,0.1,0.3
					C441.3,54.7,441.5,54.7,441.5,54.6z"/>
			</g>
			<path class="st4" d="M413.6,56v5.2h-1v-5.4h0.8C413.3,55.6,413.6,55.9,413.6,56z"/>
			<path class="st4" d="M413.6,55L413.6,55c-0.5,0-1-0.5-1-1v-0.2l0,0c0.5,0,1,0.5,1,1V55z"/>
			<path class="st4" d="M415.7,56.2c0.4-0.3,0.9-0.6,1.7-0.6c0.7,0,1.4,0.4,1.5,1.1c0,0.2,0,0.5,0,0.6v3.8h-1v-3.7
				c0-0.2,0-0.3,0-0.5c-0.1-0.4-0.3-0.5-0.7-0.5c-0.4,0-0.9,0.3-1.3,0.5V61h-1v-5.4h0.7c0.2,0,0.2,0.1,0.3,0.2L415.7,56.2z"/>
			<path class="st4" d="M420.8,56.4c0.2-0.2,0.8-0.5,1.6-0.5c0.9,0,1.7,0.7,1.7,2.4c0,1.9-0.6,3.2-2.4,3.2c-0.7,0-1.4-0.2-1.9-0.5
				v-7.3h1L420.8,56.4L420.8,56.4z M420.8,60.5c0.2,0.1,0.5,0.2,0.8,0.2c0.9,0,1.3-0.9,1.3-2.2c0-1.4-0.3-1.8-0.8-1.8
				c-0.4,0-0.8,0.3-1.1,0.5v3.1h-0.2V60.5L420.8,60.5z"/>
			<path class="st4" d="M426.3,56v5.2h-1v-5.4h0.8C426.3,55.6,426.3,55.9,426.3,56z M426.3,55L426.3,55c-0.5,0-1-0.5-1-1v-0.2l0,0
				c0.5,0,1,0.5,1,1V55z"/>
			<path class="st4" d="M434.9,55.6h-1.1l-1.6,3.7c-0.1,0.1-0.1,0.2-0.2,0.2l-1.3-3.7c-0.1-0.2-0.2-0.2-0.3-0.2l0,0h-1.6
				c0-0.3,0-0.5,0.1-0.7c0.1-0.2,0.2-0.3,0.7-0.3c0.3,0,0.7,0.1,0.8,0.2l0.1-0.8c-0.2-0.1-0.7-0.2-1-0.2c-1.1,0-1.6,0.5-1.8,1.4
				c0,0.2-0.1,0.5-0.1,0.5h-0.5v1h0.6v4.4h1.1v-4.4h1l1.6,4.1c-0.4,0.9-0.6,1.6-1.3,1.6c-0.4,0-0.7-0.2-1.3-0.3l-0.3,0.9
				c0.3,0.2,0.8,0.4,1.6,0.4c1.3,0,1.8-1,2.4-2.4c0.2-0.3,0.2-0.6,0.4-0.9L434.9,55.6z"/>
		</g>
		<line class="st15" x1="587.1" y1="45.6" x2="587.1" y2="187.7"/>
		<polygon class="st16" points="655.7,104.1 651.7,104.5 642.1,118.3 636,105.3 624.5,116.9 622.6,106.7 614.1,116.5 611.6,110.4 
			600.6,116.5 598,103.3 593.6,120.4 655.7,120.4 		"/>
		<polygon class="st16" points="655.7,64.4 651.7,64.5 642.1,78.4 636,65.2 624.5,76.9 622.6,66.6 614.1,76.5 611.6,70.4 
			600.6,76.5 598,63.3 593.6,80.4 655.7,80.4 		"/>
		<g>
			<g>
				<g>
					<g>
						<g>
							<g>
								<g>
									<g>
										<g>
											<defs>
												<path id="SVGID_1_" d="M663.4,185.5V45.6H402.9v139.9c0,1.3,0.9,2.2,2.2,2.2h256C662.3,187.7,663.4,186.5,663.4,185.5z"
													/>
											</defs>
											<clipPath id="SVGID_2_">
												<use xlink:href="#SVGID_1_"  style="overflow:visible;"/>
											</clipPath>
											<g class="st17">
												<rect x="458.8" y="170.1" class="st4" width="124.9" height="35.2"/>
												<rect x="462.8" y="174" class="st8" width="17" height="3.3"/>
												<rect x="462.8" y="181.5" class="st10" width="117.6" height="2"/>
												<rect x="462.8" y="185.4" class="st10" width="117.6" height="2"/>
												<rect x="462.8" y="189.2" class="st10" width="117.6" height="2"/>
												<rect x="462.8" y="193.1" class="st10" width="117.6" height="2"/>
											</g>
										</g>
									</g>
								</g>
							</g>
						</g>
					</g>
				</g>
			</g>
		</g>
	</g>
</g>
<g id="Layer_1_1_" class="st18">
	<g class="st19">
		<rect x="1635.5" y="-206.4" class="st20" width="187.4" height="268.5"/>
		<path class="st21" d="M1827-198c0-6.6-5.4-12-12-12h-171c-6.6,0-12,5.4-12,12V53c0,6.6,5.4,12,12,12h171c6.6,0,12-5.4,12-12V-198z
			 M1817,53c0,1.1-0.9,2-2,2h-171c-1.1,0-2-0.9-2-2v-251c0-1.1,0.9-2,2-2h171c1.1,0,2,0.9,2,2V53z"/>
		<rect x="1653.7" y="-189" class="st21" width="151.7" height="206.5"/>
		<rect x="1659" y="-183" class="st4" width="141" height="196"/>
		<polygon class="st20" points="1659,13 1800,-85.7 1800,13 		"/>
		<circle class="st21" cx="1728.5" cy="28.5" r="6.5"/>
	</g>
	<g class="st19">
		<path class="st22" d="M1953-285h-194c-7.2,0-13,5.8-13,13v129c0,7.1,5.8,13,13,13h7.9l-8.8,32.8c-0.7,2.7,2.2,4.8,4.6,3.3
			l54.6-36.1H1953c7.2,0,13-5.9,13-13v-129C1966-279.2,1960.2-285,1953-285z"/>
		<path class="st23" d="M1950-275h-188c-3.3,0-6,2.7-6,6v123c0,3.3,2.7,6,6,6h18l-7.4,27.6l41.6-27.6H1950c3.3,0,6-2.7,6-6v-123
			C1956-272.3,1953.3-275,1950-275z"/>
		<path class="st22" d="M1922.7-228h-137.4c-3.3,0-6-2.7-6-6l0,0c0-3.3,2.7-6,6-6h137.3c3.3,0,6,2.7,6,6l0,0
			C1928.7-230.7,1926-228,1922.7-228z"/>
		<path class="st22" d="M1922.7-204h-137.4c-3.3,0-6-2.7-6-6l0,0c0-3.3,2.7-6,6-6h137.3c3.3,0,6,2.7,6,6l0,0
			C1928.7-206.7,1926-204,1922.7-204z"/>
		<path class="st22" d="M1922.7-180h-137.4c-3.3,0-6-2.7-6-6l0,0c0-3.3,2.7-6,6-6h137.3c3.3,0,6,2.7,6,6l0,0
			C1928.7-182.7,1926-180,1922.7-180z"/>
	</g>
	<g class="st19">
		<g>
			<path class="st24" d="M1727.3-21.7h111c6.6,0,12.4-4.3,14.3-10.6l13-21.4c1.9-6.3,7.7-10.6,14.3-10.6h61.7"/>
			<g>
				<g>
					<circle class="st4" cx="1728.6" cy="-21.7" r="22.6"/>
					<path class="st25" d="M1728.6,3.8c14.1,0,25.6-11.5,25.6-25.6s-11.5-25.6-25.6-25.6S1703-35.9,1703-21.8S1714.5,3.8,1728.6,3.8
						S1714.5,3.8,1728.6,3.8z M1728.6-41.3c10.8,0,19.6,8.8,19.6,19.6s-8.8,19.6-19.6,19.6s-19.6-8.8-19.6-19.6
						S1717.8-41.3,1728.6-41.3C1739.3-41.3,1717.8-41.3,1728.6-41.3z"/>
				</g>
			</g>
			<g>
				<g>
					<circle class="st4" cx="1940.4" cy="-64.4" r="22.6"/>
					<path class="st25" d="M1940.4-38.8c-14.1,0-25.6-11.5-25.6-25.6s11.5-25.6,25.6-25.6s25.6,11.5,25.6,25.6
						S1954.5-38.8,1940.4-38.8S1954.5-38.8,1940.4-38.8z M1940.4-83.9c-10.8,0-19.6,8.8-19.6,19.6s8.8,19.6,19.6,19.6
						s19.6-8.8,19.6-19.6S1951.2-83.9,1940.4-83.9C1929.7-83.9,1951.2-83.9,1940.4-83.9z"/>
				</g>
			</g>
		</g>
	</g>
	<g class="st19">
		<path class="st25" d="M1937.8-62l-1.8,5.5h-2.3l6-17.5h2.7l6,17.5h-2.4l-2-5.5H1937.8z M1943.6-63.8l-1.7-5
			c-0.4-1.1-0.6-2.2-0.9-3.2h-0.1c-0.3,1-0.5,2.1-0.9,3.2l-1.7,5.1L1943.6-63.8L1943.6-63.8L1943.6-63.8z"/>
	</g>
	<rect x="990" y="-238" class="st26" width="600" height="400"/>
</g>
<g>
	<rect x="252.9" y="51.5" class="st4" width="122.5" height="186.8"/>
	<path class="st0" d="M378.2,57.4c0-4.5-3.8-8.3-8.3-8.3H258.8c-4.5,0-8.3,3.8-8.3,8.3v174.8c0,4.5,3.8,8.3,8.3,8.3h111.1
		c4.5,0,8.3-3.8,8.3-8.3V57.4L378.2,57.4z M371.4,232.2c0,0.7-0.5,1.4-1.4,1.4H258.8c-0.7,0-1.4-0.5-1.4-1.4V57.4
		c0-0.7,0.5-1.4,1.4-1.4h111.1c0.7,0,1.4,0.5,1.4,1.4v174.8H371.4L371.4,232.2z"/>
	<rect x="265.5" y="63.5" class="st1" width="97.6" height="143.9"/>
	<rect x="269.2" y="68.3" class="st4" width="90.1" height="134.3"/>
	<circle class="st1" cx="317.7" cy="215.1" r="4.5"/>
	<rect x="269.2" y="91.8" class="st4" width="20.7" height="11.9"/>
	<rect x="272.2" y="72.8" class="st5" width="83.8" height="125.9"/>
	<rect x="286.8" y="81.2" class="st7" width="54.9" height="4"/>
	<rect x="295.1" y="89.2" class="st7" width="38.2" height="4"/>
	<rect x="276.1" y="176" class="st7" width="76.1" height="19.9"/>
	<rect x="294.2" y="184" class="st4" width="40.1" height="4"/>
	<g>
		<path class="st7" d="M325.7,139.5c0.1,0.1,0.2,0.2,0.2,0.3c0,0.1,0.1,0.2,0.2,0.3c0.1,0.1,0.1,0.2,0.1,0.4c0,0.1,0,0.3,0,0.4
			c0,0.2-0.1,0.5-0.2,0.7c-0.1,0.2-0.2,0.4-0.4,0.6c-0.2,0.2-0.4,0.3-0.5,0.4c-0.2,0.1-0.4,0.2-0.7,0.3l0,0
			c-0.5,0.1-1.1,0.2-1.6,0.3c-0.5,0.1-1,0.2-1.6,0.2c-0.6,0.1-1.1,0.1-1.6,0.2c-0.5,0-1.1,0.1-1.7,0.1c-0.3,0-0.6,0-0.9,0.1
			c-0.3,0-0.7,0-1,0s-0.6,0-1,0c-0.3,0-0.6,0-1,0l0,0l0,0l0,0l0,0c-0.3,0-0.6,0-1,0s-0.7,0-1,0s-0.6,0-1,0c-0.3,0-0.6,0-0.9-0.1
			c-0.6,0-1.1-0.1-1.6-0.1s-1-0.1-1.6-0.2c-0.5-0.1-1-0.2-1.5-0.2c-0.5-0.1-1-0.2-1.6-0.3l0,0h-0.1c0,0,0,0-0.1,0
			c-0.2-0.1-0.4-0.2-0.6-0.3c-0.2-0.1-0.3-0.3-0.5-0.4c-0.2-0.2-0.3-0.4-0.3-0.6s-0.1-0.4-0.1-0.7c0-0.1,0-0.2,0-0.4
			c0-0.1,0-0.2,0.1-0.4c0.1-0.1,0.1-0.2,0.2-0.3c0-0.1,0.1-0.2,0.2-0.3l0,0l0,0l0,0l0,0l0,0c0,0,0,0,0-0.1c0,0,0,0,0.1,0l0,0l0,0
			l0,0l0,0l0,0l0,0l0,0c0,0,0,0,0.1,0l0,0l0,0l0,0l0,0c0.2-0.2,0.4-0.3,0.6-0.5s0.3-0.4,0.5-0.6s0.3-0.5,0.4-0.8
			c0.1-0.3,0.2-0.7,0.2-1.1c0.1-2,0.3-3.8,0.6-5.2c0.2-1.4,0.6-2.7,1-3.7c0.4-1,1.1-1.9,1.9-2.6c0.8-0.7,1.9-1.2,3.2-1.7
			c0.3-0.1,0.5-0.2,0.6-0.2c0.1-0.1,0.2-0.2,0.4-0.2c0.1-0.1,0.2-0.2,0.2-0.3s0.1-0.2,0.2-0.2c0,0,0,0,0-0.1l0,0l0,0c0,0,0,0,0-0.1
			l0,0c0-0.1,0-0.1,0.1-0.2c0.1,0,0.1-0.1,0.2-0.2c0,0,0.1-0.1,0.2-0.1s0.2-0.1,0.2-0.1c0.1,0,0.1,0,0.2,0h0.1h0.1c0,0,0.1,0,0.2,0
			s0.2,0,0.2,0s0.1,0,0.2,0.1c0.1,0,0.2,0.1,0.2,0.1s0.1,0.1,0.2,0.1s0.2,0.1,0.2,0.2c0,0,0.1,0.1,0.2,0.2l0,0l0,0l0,0l0,0
			c0,0,0,0,0,0.1l0,0l0,0c0,0,0,0,0.1,0.1c0,0.1,0,0.2,0.1,0.2c0.1,0.1,0.2,0.2,0.2,0.3c0.1,0.1,0.2,0.2,0.4,0.2
			c0.2,0.1,0.3,0.2,0.5,0.2c1.4,0.5,2.4,1,3.2,1.7c0.8,0.7,1.4,1.5,1.9,2.6c0.5,1,0.8,2.3,1,3.7c0.2,1.4,0.4,3.2,0.6,5.2
			c0,0.4,0.1,0.8,0.2,1.1c0.1,0.3,0.3,0.6,0.4,0.8c0.1,0.2,0.3,0.4,0.5,0.6c0.2,0.2,0.4,0.3,0.6,0.5l0,0l0,0l0,0l0,0c0,0,0,0,0,0.1
			l0,0l0,0l0,0l0,0l0,0l0,0c0.1,0,0.1,0,0.1,0.1C325.7,139.4,325.7,139.4,325.7,139.5z M317.1,145c0.1,0,0.1,0,0.2,0
			c0,0,0.1,0.1,0.2,0.1l0.1,0.1c0,0,0,0.1,0,0.2c0,0,0,0,0,0.1l0,0l0,0l0,0l0,0l0,0l0,0l0,0c-0.1,0.2-0.3,0.4-0.4,0.6
			s-0.3,0.3-0.5,0.4c-0.2,0.1-0.4,0.3-0.6,0.4c-0.2,0.1-0.4,0.2-0.7,0.3c0,0-0.1,0-0.2,0c-0.1,0-0.2,0-0.3,0s-0.2,0-0.2,0
			c-0.1,0-0.2,0-0.2,0c-0.1,0-0.2,0-0.3,0c-0.1,0-0.2,0-0.2,0s-0.2,0-0.3,0c-0.1,0-0.2,0-0.3,0c-0.2-0.1-0.4-0.2-0.6-0.2
			c-0.2-0.1-0.4-0.2-0.6-0.4c-0.2-0.2-0.3-0.3-0.5-0.5c-0.2-0.2-0.3-0.4-0.4-0.6l0,0l0,0l0,0l0,0l0,0l0,0l0,0l0,0l0,0l0,0l0,0
			c0,0,0,0,0-0.1s0-0.1,0-0.2c0,0,0-0.1,0.1-0.1s0.1-0.1,0.2-0.1c0,0,0.1,0,0.2,0l0,0l0,0l0,0l0,0l0,0l0,0c0.2,0,0.4,0,0.7,0
			c0.2,0,0.5,0,0.7,0s0.5,0,0.7,0c0.2,0,0.5,0,0.7,0l0,0l0,0l0,0l0,0c0.2,0,0.4,0,0.7,0c0.3,0,0.5,0,0.7,0s0.4,0,0.7,0
			c0.2,0,0.5,0,0.7,0C317,145,317,145,317.1,145C317,145,317,145,317.1,145L317.1,145L317.1,145L317.1,145z"/>
	</g>
</g>
<g>
	<g>
		<path class="st0" d="M615.2,40.4c-7.3,0-13.3-6-13.3-13.4v-54.4c0-7.3,5.8-13.1,13.3-13.1H726c3.8,0,7.4,1.5,9.9,4.1
			c2.4,2.5,3.7,5.7,3.6,9.2v54.3c0,7.4-6.1,13.4-13.5,13.4H615.2V40.4z"/>
		<path class="st2" d="M726-34.5H615.2c-4.1,0-7.3,3-7.3,7.1V27c0,4.1,3.3,7.4,7.3,7.4H726c4.1,0,7.5-3.3,7.5-7.4v-54.4
			C733.6-31.5,730.1-34.5,726-34.5z"/>
		<path class="st27" d="M724.3-28.5H617c-1.9,0-4.2,0.9-4.2,2.8v50.9c0,1.9,2.3,4,4.2,4h107.3c1.9,0,4.5-2.1,4.5-4v-50.9
			C728.8-27.6,726.2-28.5,724.3-28.5z"/>
		<path class="st2" d="M715-6.3h-53.9c-1.6,0-2.8-1.3-2.8-2.8v-1.2c0-1.6,1.3-2.8,2.8-2.8H715c1.6,0,2.8,1.3,2.8,2.8v1.2
			C717.8-7.6,716.6-6.3,715-6.3z"/>
		<path class="st2" d="M699.5,7.4h-38.4c-1.6,0-2.8-1.3-2.8-2.8V3.4c0-1.6,1.3-2.8,2.8-2.8h38.4c1.6,0,2.8,1.3,2.8,2.8v1.2
			C702.3,6.1,701.1,7.4,699.5,7.4z"/>
		<g>
			<path class="st2" d="M654.8,3.8c0.1,0.1,0.1,0.3,0.3,0.4c0,0.1,0.1,0.3,0.1,0.4c0.1,0.1,0.1,0.3,0.1,0.4s0,0.4,0,0.5
				c0,0.3-0.1,0.5-0.1,0.8c-0.1,0.3-0.3,0.5-0.4,0.7c-0.1,0.3-0.4,0.4-0.7,0.5c-0.3,0.1-0.5,0.3-0.8,0.4l0,0
				c-0.7,0.1-1.4,0.3-1.9,0.4c-0.7,0.1-1.2,0.1-1.9,0.3c-0.7,0.1-1.4,0.1-1.9,0.1c-0.7,0-1.4,0.1-2,0.1c-0.4,0-0.7,0-1.1,0.1
				c-0.4,0-0.8,0-1.2,0s-0.8,0-1.2,0s-0.8,0-1.2,0l0,0l0,0l0,0l0,0c-0.4,0-0.8,0-1.2,0s-0.8,0-1.2,0s-0.8,0-1.2,0s-0.8,0-1.1-0.1
				c-0.7,0-1.4-0.1-2-0.1c-0.6,0-1.2-0.1-1.9-0.1c-0.7-0.1-1.2-0.1-1.9-0.3c-0.5-0.1-1.2-0.1-1.9-0.4l0,0h-0.1c0,0,0,0-0.1,0
				c-0.3-0.1-0.5-0.1-0.7-0.4c-0.1-0.1-0.4-0.4-0.7-0.5c-0.1-0.3-0.4-0.4-0.4-0.7c0-0.3-0.1-0.5-0.1-1c0-0.1,0-0.3,0-0.4
				s0-0.3,0.1-0.4c0.1-0.1,0.1-0.3,0.1-0.4s0.1-0.3,0.3-0.4l0,0l0,0l0,0l0,0l0,0c0,0,0,0,0-0.1c0,0,0,0,0.1,0l0,0l0,0l0,0l0,0l0,0
				l0,0l0,0c0,0,0,0,0.1,0l0,0l0,0l0,0l0,0c0.3-0.1,0.5-0.4,0.7-0.7c0.1-0.1,0.4-0.4,0.7-0.7c0.1-0.3,0.4-0.7,0.5-1
				c0.1-0.4,0.3-0.8,0.3-1.4c0.1-2.5,0.4-4.6,0.7-6.4s0.7-3.3,1.2-4.6c0.5-1.3,1.4-2.3,2.3-3.1c1.1-0.8,2.3-1.5,4-2.2
				c0.4-0.1,0.5-0.1,0.7-0.3c0.1-0.1,0.3-0.1,0.4-0.3c0.1-0.1,0.3-0.1,0.3-0.4c0-0.1,0.1-0.3,0.1-0.3s0,0,0-0.1l0,0l0,0
				c0,0,0,0,0-0.1l0,0c0-0.1,0-0.1,0.1-0.1c0.1,0,0.1-0.1,0.1-0.1s0.1-0.1,0.3-0.1s0.1-0.1,0.1-0.1c0.1,0,0.1,0,0.1,0h0.1h0.1h0.1
				c0.1,0,0.3,0,0.3,0s0.1,0,0.3,0.1c0.1,0,0.1,0.1,0.3,0.1c0,0,0.1,0.1,0.3,0.1c0.2,0,0.1,0.1,0.1,0.1l0.1,0.1l0,0l0,0l0,0l0,0
				c0,0,0,0,0,0.1l0,0l0,0c0,0,0,0,0.1,0.1c0,0.1,0,0.1,0.1,0.3c0.1,0.2,0.1,0.3,0.3,0.4c0.1,0.1,0.3,0.1,0.4,0.3
				c0.1,0.1,0.4,0.1,0.7,0.3c1.6,0.5,3,1.2,4,2.2c1,0.8,1.8,1.9,2.3,3.1s1.1,2.9,1.2,4.6c0.3,1.8,0.5,4,0.8,6.4c0,0.5,0.1,1,0.3,1.4
				c0.1,0.4,0.4,0.7,0.5,1s0.4,0.5,0.7,0.7c0.3,0.1,0.5,0.4,0.7,0.7l0,0l0,0l0,0l0,0c0,0,0,0,0,0.1l0,0l0,0l0,0l0,0l0,0l0,0
				c0.1,0,0.1,0,0.1,0.1C654.7,3.6,654.7,3.8,654.8,3.8z M644.2,10.6L644.2,10.6l0.2,0.1l0.1,0.1v0.1c0,0,0,0,0,0.1l0,0l0,0l0,0l0,0
				l0,0l0,0l0,0c-0.1,0.3-0.4,0.5-0.5,0.7c-0.1,0.1-0.4,0.4-0.7,0.5c-0.3,0.1-0.5,0.4-0.7,0.4c-0.3,0.1-0.5,0.3-1,0.4
				c0,0-0.1,0-0.3,0c-0.1,0-0.3,0-0.4,0s-0.1,0-0.3,0c-0.1,0-0.3,0-0.3,0c-0.1,0-0.3,0-0.4,0c-0.1,0-0.1,0-0.3,0c-0.1,0-0.3,0-0.4,0
				s-0.1,0-0.4,0c-0.3-0.1-0.5-0.1-0.8-0.3c-0.3-0.1-0.5-0.3-0.7-0.4c-0.1-0.1-0.4-0.4-0.7-0.5c-0.1-0.1-0.4-0.4-0.5-0.7l0,0l0,0
				l0,0l0,0l0,0l0,0l0,0l0,0l0,0l0,0l0,0c0,0,0,0,0-0.1s0-0.1,0-0.1s0-0.1,0.1-0.1s0.1-0.1,0.1-0.1s0.1,0,0.3,0l0,0l0,0l0,0l0,0l0,0
				l0,0c0.3,0,0.5,0,0.8,0c0.3,0,0.5,0,1,0c0.3,0,0.5,0,1,0c0.3,0,0.5,0,0.8,0l0,0l0,0l0,0l0,0c0.3,0,0.5,0,1,0s0.7,0,1,0
				c0.3,0,0.5,0,1,0c0.3,0,0.5,0,0.8,0C644.2,10.6,644.2,10.6,644.2,10.6L644.2,10.6L644.2,10.6L644.2,10.6L644.2,10.6z"/>
		</g>
	</g>
</g>
</svg>
