<?xml version="1.0" encoding="utf-8"?>
<!-- Generator: Adobe Illustrator 19.1.0, SVG Export Plug-In . SVG Version: 6.00 Build 0)  -->
<svg version="1.1" id="Layer_1" xmlns="http://www.w3.org/2000/svg" xmlns:xlink="http://www.w3.org/1999/xlink" x="0px" y="0px"
	 viewBox="265 -125 600 320" style="enable-background:new 265 -125 600 320;" xml:space="preserve">
<style type="text/css">
	.st0{fill:#4F95BA;}
	.st1{fill:#AFD136;}
	.st2{opacity:0.5;enable-background:new    ;}
	.st3{fill:#FFFFFF;}
	.st4{fill:#D5E2E7;}
	.st5{fill:#333333;}
	.st6{fill:#77BCE0;}
	.st7{fill:#E12526;}
	.st8{fill:#4D4C4C;}
	.st9{fill:#CCCBCB;}
	.st10{opacity:0.5;}
	.st11{fill:#EF504E;}
	.st12{fill:#FDC053;}
	.st13{fill:#8BC43F;}
	.st14{fill:none;stroke:#FFFFFF;stroke-miterlimit:10;}
	.st15{fill:#E29A9A;stroke:#E12526;stroke-miterlimit:10;}
	.st16{opacity:0.5;clip-path:url(#SVGID_2_);}
	.st17{opacity:0.5;fill:#4F95BA;}
	.st18{display:none;}
	.st19{display:inline;}
	.st20{fill:#D6E3E8;}
	.st21{fill:#78BDE1;}
	.st22{fill:#E22726;}
	.st23{fill:#FCD9D9;}
	.st24{fill:none;stroke:#B0D235;stroke-width:12;stroke-miterlimit:10;}
	.st25{fill:#B0D235;}
	.st26{display:inline;fill:#78BDE1;}
	.st27{fill:#77BDE1;}
</style>
<g>
	<g>
		<path class="st0" d="M790.9,147.3h-359c-5.7,0-10.3-4.7-10.3-10.3v-9.4c0-2.8,2.4-5.1,5.1-5.1H796c2.8,0,5.1,2.4,5.1,5.1v9.4
			C801,142.6,796.5,147.3,790.9,147.3z"/>
		<path class="st0" d="M762.1-77.3H460.6c-5.7,0-10.3,4.7-10.3,10.3v214.1h322.2V-67C772.4-72.7,767.7-77.3,762.1-77.3z"/>
	</g>
	<path class="st1" d="M763.1,122.3H459.4V-62.1c0-2.8,2.4-5.1,5.1-5.1h293.1c2.8,0,5.1,2.4,5.1,5.1L763.1,122.3L763.1,122.3z"/>
	<path class="st1" d="M765.1,134.8h21.4c1.1,0,2-0.9,2-2l0,0c0-1.1-0.9-2-2-2h-21.4c-1.1,0-2,0.9-2,2l0,0
		C763.1,133.9,763.9,134.8,765.1,134.8z"/>
	<circle class="st1" cx="756.8" cy="132.9" r="2.4"/>
	<path class="st2" d="M574.9,122.3v3c0,1.4,1,2.4,2.4,2.4h70.4c1.4,0,2.4-1,2.4-2.4v-3H574.9z"/>
	<g>
		<path class="st3" d="M748.8,110.4H476.2c-1.5,0-2.6-1.1-2.6-2.6V-52.8c0-1.4,1.1-2.6,2.6-2.6h272.7c1.4,0,2.6,1.2,2.6,2.6v160.7
			C751.4,109.2,750.2,110.4,748.8,110.4z"/>
		<path class="st4" d="M751.4,108.1V-41.1H473.6v149.2c0,1.4,1,2.4,2.4,2.4h273.1C750.3,110.4,751.4,109.2,751.4,108.1z"/>
		<path class="st5" d="M528.4-41.1h-54.9v149.2c0,1.4,1,2.4,2.4,2.4h52.5V-41.1z"/>
		<rect x="528.4" y="-23.5" class="st5" width="141.6" height="14.9"/>
		<rect x="528.4" y="-8.9" class="st6" width="141.6" height="7.4"/>
		<rect x="674" y="-35.6" class="st3" width="72.4" height="35"/>
		<rect x="676.6" y="-33.1" class="st4" width="67.1" height="29.8"/>
		<rect x="674" y="6.4" class="st3" width="72.4" height="35"/>
		<rect x="676.6" y="9" class="st4" width="67.1" height="29.8"/>
		<rect x="476.7" y="-6.9" class="st7" width="47.8" height="7.4"/>
		<rect x="476.7" y="-17.9" width="47.8" height="7.4"/>
		<rect x="476.7" y="1.6" class="st8" width="47.8" height="7.4"/>
		<rect x="476.7" y="10.1" class="st8" width="47.8" height="7.4"/>
		<rect x="476.7" y="18.5" class="st8" width="47.8" height="7.4"/>
		<rect x="476.7" y="27.1" class="st8" width="47.8" height="7.4"/>
		<g>
			<rect x="533.2" y="4.1" class="st3" width="133.2" height="37.6"/>
			<rect x="537.6" y="8.4" class="st7" width="18.1" height="3.5"/>
			<rect x="537.6" y="16.3" class="st9" width="125.5" height="2.1"/>
			<rect x="537.6" y="20.4" class="st9" width="125.5" height="2.1"/>
			<rect x="537.6" y="24.5" class="st9" width="125.5" height="2.1"/>
			<rect x="537.6" y="28.7" class="st9" width="125.5" height="2.1"/>
		</g>
		<g class="st10">
			<rect x="533.2" y="47.1" class="st3" width="133.2" height="37.6"/>
			<rect x="537.6" y="51.4" class="st7" width="18.1" height="3.5"/>
			<rect x="537.6" y="59.3" class="st9" width="125.5" height="2.1"/>
			<rect x="537.6" y="63.4" class="st9" width="125.5" height="2.1"/>
			<rect x="537.6" y="67.6" class="st9" width="125.5" height="2.1"/>
			<rect x="537.6" y="71.7" class="st9" width="125.5" height="2.1"/>
		</g>
		<circle class="st11" cx="481.9" cy="-48.1" r="2.5"/>
		<circle class="st12" cx="489.4" cy="-48.1" r="2.5"/>
		<circle class="st13" cx="496.8" cy="-48.1" r="2.5"/>
		<g>
			<g>
				<path class="st3" d="M510.7-33.6c-0.1,0-0.1,0.1-0.2,0.2l-3.8,8.6v0.1c0,0,0,0,0.1,0l9.2-1.4c0.2,0,0.2-0.1,0.2-0.1
					c0.5-0.4-0.2-2.5-1.8-4.5C512.8-32.7,511.2-33.9,510.7-33.6z M508-25.5c-0.1,0-0.1,0-0.2,0c0,0,0-0.1,0-0.2l1.2-2.7
					c0,0.1,0,0.1,0.1,0.2c0.1,0.3,0.3,0.8,0.6,1.2s0.6,0.9,1.1,1L508-25.5z M514.6-26.4l-2.9,0.4l0,0l0,0h-0.1c-0.4,0-1-0.4-1.6-1.1
					c-0.2-0.3-0.5-0.8-0.5-1.1c-0.1-0.3-0.1-0.5-0.1-0.6l1.2-2.8h0.1c0,0.2,0.1,0.2,0.2,0.4c0.2,0.5,0.5,1.1,0.9,1.7l-0.8,1.7l0,0
					l0,0l1.8-0.2c0.4,0.5,0.9,1,1.4,1.4C514.2-26.7,514.4-26.5,514.6-26.4L514.6-26.4z M512.6-29.1c0.2,0.2,0.4,0.5,0.5,0.6
					c0,0,0,0,0.1,0v0.1h-0.1C512.9-28.6,512.8-28.8,512.6-29.1c-0.2-0.1-0.3-0.3-0.4-0.5l0.1-0.2h0.1v0.1
					C512.3-29.8,512.5-29.5,512.6-29.1z M512.3-30.5L512.3-30.5L512.3-30.5h-0.2h-0.2l0,0l0,0l0,0l0.2,0.2h0.1v-0.2
					C512.3-30.3,512.3-30.5,512.3-30.5L512.3-30.5c0.2-0.1,0.5,0.2,1,0.8s0.6,1.1,0.5,1.2l0,0v-0.4v-0.4l0,0v0.4v-0.2v-0.2l0,0l0,0
					l0,0l0,0l0,0l0,0l0,0v0.4c-0.2,0-0.5-0.2-0.9-0.5C512.5-30,512.3-30.2,512.3-30.5z M512.2-28.7c0.2,0.2,0.2,0.3,0.4,0.5
					l-1.2,0.2l0,0c0,0,0,0,0-0.1l0,0l0.5-1.1C512-29.1,512.1-29,512.2-28.7z M515.6-26.5L515.6-26.5L515.6-26.5
					C515.5-26.5,515.5-26.5,515.6-26.5C515.5-26.5,515.5-26.5,515.6-26.5C515.5-26.5,515.5-26.5,515.6-26.5
					C515.5-26.5,515.5-26.5,515.6-26.5C515.5-26.4,515.5-26.4,515.6-26.5L515.6-26.5L515.6-26.5L515.6-26.5L515.6-26.5l-0.1,0.4v0.3
					l0,0v-0.3c-0.4,0-1.4-0.9-2.1-1.8l0.6-0.2c0.1,0,0.1-0.1,0.1-0.1c0.2-0.2-0.1-0.8-0.5-1.5c-0.5-0.6-1-1-1.2-0.9c0,0,0,0-0.1,0.1
					l-0.2,0.6c-0.8-1.2-1.1-2.3-1-2.7l0,0l0,0l0,0l0,0l0,0l0,0l0,0l0,0l0,0c0,0,0,0,0.1-0.1l0,0l0,0c0.4-0.3,1.8,0.8,3.1,2.5
					C515.3-28.5,516.1-26.9,515.6-26.5z"/>
				<path class="st3" d="M517.1-32.6c-0.1-0.1-0.2-0.1-0.3-0.1l-1.9,1.5c-0.1,0.1-0.1,0.2-0.1,0.3s0.2,0.1,0.3,0.1l1.9-1.5
					C517.1-32.4,517.2-32.5,517.1-32.6z"/>
				<path class="st3" d="M516.7-30.9l-1.1,0.3c-0.1,0-0.2,0.2-0.2,0.2l0.2,0.2l1.1-0.3c0.1,0,0.2-0.2,0.2-0.2S516.8-30.9,516.7-30.9
					z"/>
				<path class="st3" d="M514.8-31.5l0.6-1c0.1-0.1,0.1-0.2-0.1-0.3c-0.1-0.1-0.2-0.1-0.3,0.1l-0.6,1c-0.1,0.1-0.1,0.2,0.1,0.3
					C514.6-31.4,514.7-31.4,514.8-31.5z"/>
			</g>
			<path class="st3" d="M485-30.1v5.5h-1.1v-5.8h0.9C484.8-30.5,485-30.2,485-30.1z"/>
			<path class="st3" d="M485-31.1L485-31.1c-0.5,0-1.1-0.5-1.1-1.1v-0.2l0,0c0.5,0,1.1,0.5,1.1,1.1V-31.1z"/>
			<path class="st3" d="M487.2-29.8c0.4-0.3,1-0.6,1.8-0.6s1.5,0.4,1.6,1.2c0,0.2,0,0.5,0,0.6v4.1h-1.1v-3.9c0-0.2,0-0.3,0-0.5
				c-0.1-0.4-0.3-0.5-0.8-0.5s-1,0.3-1.4,0.5v4.4h-1.1v-5.8h0.8c0.2,0,0.2,0.1,0.3,0.2L487.2-29.8z"/>
			<path class="st3" d="M492.8-29.6c0.2-0.2,0.9-0.5,1.7-0.5c1,0,1.8,0.8,1.8,2.6c0,2-0.6,3.4-2.6,3.4c-0.8,0-1.5-0.2-2-0.5v-7.8
				h1.1V-29.6L492.8-29.6z M492.8-25.3c0.2,0.1,0.5,0.2,0.9,0.2c1,0,1.4-1,1.4-2.3c0-1.5-0.3-1.9-0.9-1.9c-0.4,0-0.9,0.3-1.2,0.5
				v3.3h-0.2V-25.3z"/>
			<path class="st3" d="M498.5-30.1v5.5h-1.1v-5.8h0.9C498.5-30.5,498.5-30.2,498.5-30.1z M498.5-31.1L498.5-31.1
				c-0.5,0-1.1-0.5-1.1-1.1v-0.2l0,0c0.5,0,1.1,0.5,1.1,1.1V-31.1z"/>
			<path class="st3" d="M507.8-30.5h-1.2l-1.7,3.9c-0.1,0.1-0.1,0.2-0.2,0.2l-1.4-3.9c-0.1-0.2-0.2-0.2-0.3-0.2l0,0h-1.7
				c0-0.3,0-0.5,0.1-0.8c0.1-0.2,0.2-0.3,0.8-0.3c0.3,0,0.8,0.1,0.9,0.2l0.1-0.9c-0.2-0.1-0.8-0.2-1.1-0.2c-1.2,0-1.7,0.5-1.9,1.5
				c0,0.2-0.1,0.5-0.1,0.5h-0.5v1.1h0.6v4.7h1.2v-4.7h1.1l1.7,4.4c-0.4,1-0.6,1.7-1.4,1.7c-0.4,0-0.8-0.2-1.4-0.3l-0.3,1
				c0.3,0.2,0.9,0.4,1.7,0.4c1.4,0,1.9-1.1,2.6-2.6c0.2-0.3,0.2-0.6,0.4-1L507.8-30.5z"/>
		</g>
		<line class="st14" x1="670" y1="-41.1" x2="670" y2="110.4"/>
		<polygon class="st15" points="743.2,21.3 739,21.7 728.8,36.4 722.2,22.5 710.1,34.9 707.9,24 698.9,34.5 696.2,28 684.5,34.5 
			681.8,20.4 677.1,38.7 743.2,38.7 		"/>
		<polygon class="st15" points="743.2,-21.1 739,-21 728.8,-6.2 722.2,-20.2 710.1,-7.7 707.9,-18.7 698.9,-8.2 696.2,-14.7 
			684.5,-8.2 681.8,-22.3 677.1,-4 743.2,-4 		"/>
		<g>
			<g>
				<g>
					<g>
						<g>
							<defs>
								<path id="SVGID_1_" d="M751.4,108.1V-41.1H473.6v149.2c0,1.4,1,2.4,2.4,2.4h273.1C750.3,110.4,751.4,109.2,751.4,108.1z"/>
							</defs>
							<clipPath id="SVGID_2_">
								<use xlink:href="#SVGID_1_"  style="overflow:visible;"/>
							</clipPath>
							<g class="st16">
								<rect x="533.2" y="91.7" class="st3" width="133.2" height="37.6"/>
								<rect x="537.6" y="95.8" class="st7" width="18.1" height="3.5"/>
								<rect x="537.6" y="103.8" class="st9" width="125.5" height="2.1"/>
								<rect x="537.6" y="108" class="st9" width="125.5" height="2.1"/>
								<rect x="537.6" y="112" class="st9" width="125.5" height="2.1"/>
								<rect x="537.6" y="116.2" class="st9" width="125.5" height="2.1"/>
							</g>
						</g>
					</g>
				</g>
			</g>
		</g>
	</g>
	<path class="st17" d="M748.8,110.4H476.2c-1.5,0-2.6-1.1-2.6-2.6V-52.8c0-1.4,1.1-2.6,2.6-2.6h272.7c1.4,0,2.6,1.2,2.6,2.6v160.7
		C751.4,109.2,750.2,110.4,748.8,110.4z"/>
</g>
<g id="Layer_1_1_" class="st18">
	<g class="st19">
		<rect x="910.5" y="-133.4" class="st20" width="187.4" height="268.5"/>
		<path class="st21" d="M1102-125c0-6.6-5.4-12-12-12H919c-6.6,0-12,5.4-12,12v251c0,6.6,5.4,12,12,12h171c6.6,0,12-5.4,12-12V-125z
			 M1092,126c0,1.1-0.9,2-2,2H919c-1.1,0-2-0.9-2-2v-251c0-1.1,0.9-2,2-2h171c1.1,0,2,0.9,2,2V126z"/>
		<rect x="928.7" y="-116" class="st21" width="151.7" height="206.5"/>
		<rect x="934" y="-110" class="st3" width="141" height="196"/>
		<polygon class="st20" points="934,86 1075,-12.7 1075,86 		"/>
		<circle class="st21" cx="1003.5" cy="101.5" r="6.5"/>
	</g>
	<g class="st19">
		<path class="st22" d="M1228-212h-194c-7.2,0-13,5.8-13,13v129c0,7.1,5.8,13,13,13h7.9l-8.8,32.8c-0.7,2.7,2.2,4.8,4.6,3.3
			l54.6-36.1H1228c7.2,0,13-5.9,13-13v-129C1241-206.2,1235.2-212,1228-212z"/>
		<path class="st23" d="M1225-202h-188c-3.3,0-6,2.7-6,6v123c0,3.3,2.7,6,6,6h18l-7.4,27.6l41.6-27.6H1225c3.3,0,6-2.7,6-6v-123
			C1231-199.3,1228.3-202,1225-202z"/>
		<path class="st22" d="M1197.7-155h-137.4c-3.3,0-6-2.7-6-6l0,0c0-3.3,2.7-6,6-6h137.3c3.3,0,6,2.7,6,6l0,0
			C1203.7-157.7,1201-155,1197.7-155z"/>
		<path class="st22" d="M1197.7-131h-137.4c-3.3,0-6-2.7-6-6l0,0c0-3.3,2.7-6,6-6h137.3c3.3,0,6,2.7,6,6l0,0
			C1203.7-133.7,1201-131,1197.7-131z"/>
		<path class="st22" d="M1197.7-107h-137.4c-3.3,0-6-2.7-6-6l0,0c0-3.3,2.7-6,6-6h137.3c3.3,0,6,2.7,6,6l0,0
			C1203.7-109.7,1201-107,1197.7-107z"/>
	</g>
	<g class="st19">
		<g>
			<path class="st24" d="M1002.3,51.3h111c6.6,0,12.4-4.3,14.3-10.6l13-21.4c1.9-6.3,7.7-10.6,14.3-10.6h61.7"/>
			<g>
				<g>
					<circle class="st3" cx="1003.6" cy="51.3" r="22.6"/>
					<path class="st25" d="M1003.6,76.8c14.1,0,25.6-11.5,25.6-25.6s-11.5-25.6-25.6-25.6S978,37.1,978,51.2S989.5,76.8,1003.6,76.8
						C1017.7,76.8,989.5,76.8,1003.6,76.8z M1003.6,31.7c10.8,0,19.6,8.8,19.6,19.6s-8.8,19.6-19.6,19.6S984,62.1,984,51.3
						S992.8,31.7,1003.6,31.7C1014.3,31.7,992.8,31.7,1003.6,31.7z"/>
				</g>
			</g>
			<g>
				<g>
					<circle class="st3" cx="1215.4" cy="8.6" r="22.6"/>
					<path class="st25" d="M1215.4,34.2c-14.1,0-25.6-11.5-25.6-25.6s11.5-25.6,25.6-25.6S1241-5.5,1241,8.6
						S1229.5,34.2,1215.4,34.2S1229.5,34.2,1215.4,34.2z M1215.4-10.9c-10.8,0-19.6,8.8-19.6,19.6s8.8,19.6,19.6,19.6
						s19.6-8.8,19.6-19.6C1235-2.1,1226.2-10.9,1215.4-10.9C1204.7-10.9,1226.2-10.9,1215.4-10.9z"/>
				</g>
			</g>
		</g>
	</g>
	<g class="st19">
		<path class="st25" d="M1212.8,11l-1.8,5.5h-2.3l6-17.5h2.7l6,17.5h-2.4l-2-5.5H1212.8z M1218.6,9.2l-1.7-5
			c-0.4-1.1-0.6-2.2-0.9-3.2h-0.1c-0.3,1-0.5,2.1-0.9,3.2l-1.7,5.1h5.3V9.2z"/>
	</g>
	<rect x="265" y="-165" class="st26" width="600" height="400"/>
</g>
<g>
	<rect x="314.5" y="-22.6" class="st3" width="122.5" height="186.8"/>
	<path class="st0" d="M439.9-16.7c0-4.5-3.8-8.3-8.3-8.3H320.4c-4.5,0-8.3,3.8-8.3,8.3v174.8c0,4.5,3.8,8.3,8.3,8.3h111.1
		c4.5,0,8.3-3.8,8.3-8.3V-16.7z M433,158.1c0,0.7-0.5,1.4-1.4,1.4H320.4c-0.7,0-1.4-0.5-1.4-1.4V-16.7c0-0.7,0.5-1.4,1.4-1.4h111.1
		c0.7,0,1.4,0.5,1.4,1.4V158.1z"/>
	<rect x="327.1" y="-10.6" class="st27" width="97.6" height="143.9"/>
	<rect x="330.9" y="-5.8" class="st3" width="90.1" height="134.3"/>
	<circle class="st27" cx="379.2" cy="141" r="4.5"/>
	<rect x="330.9" y="17.7" class="st3" width="20.7" height="11.9"/>
	<rect x="333.9" y="-1.3" class="st4" width="83.8" height="125.9"/>
	<rect x="348.4" y="7.1" class="st6" width="54.9" height="4"/>
	<rect x="356.7" y="15.1" class="st6" width="38.2" height="4"/>
	<rect x="337.7" y="101.9" class="st6" width="76.1" height="19.9"/>
	<rect x="355.8" y="109.9" class="st3" width="40.1" height="4"/>
	<g>
		<path class="st6" d="M387.2,65.4c0.1,0.1,0.2,0.2,0.2,0.3c0,0.1,0.1,0.2,0.2,0.3c0.1,0.1,0.1,0.2,0.1,0.4c0,0.1,0,0.3,0,0.4
			c0,0.2-0.1,0.5-0.2,0.7s-0.2,0.4-0.4,0.6c-0.2,0.2-0.4,0.3-0.5,0.4c-0.2,0.1-0.4,0.2-0.7,0.3h0c-0.5,0.1-1.1,0.2-1.6,0.3
			s-1,0.2-1.6,0.2c-0.6,0.1-1.1,0.1-1.6,0.2c-0.5,0-1.1,0.1-1.7,0.1c-0.3,0-0.6,0-0.9,0.1c-0.3,0-0.7,0-1,0s-0.6,0-1,0
			c-0.3,0-0.6,0-1,0c0,0,0,0,0,0l0,0l0,0c0,0,0,0,0,0c-0.3,0-0.6,0-1,0s-0.7,0-1,0c-0.3,0-0.6,0-1,0c-0.3,0-0.6,0-0.9-0.1
			c-0.6,0-1.1-0.1-1.6-0.1c-0.5,0-1-0.1-1.6-0.2c-0.5-0.1-1-0.2-1.5-0.2c-0.5-0.1-1-0.2-1.6-0.3c0,0,0,0,0,0c0,0-0.1,0-0.1,0
			c0,0,0,0-0.1,0c-0.2-0.1-0.4-0.2-0.6-0.3c-0.2-0.1-0.3-0.3-0.5-0.4c-0.2-0.2-0.3-0.4-0.3-0.6c0-0.2-0.1-0.4-0.1-0.7
			c0-0.1,0-0.2,0-0.4c0-0.1,0-0.2,0.1-0.4c0.1-0.1,0.1-0.2,0.2-0.3c0-0.1,0.1-0.2,0.2-0.3c0,0,0,0,0,0c0,0,0,0,0,0l0,0c0,0,0,0,0,0
			l0,0c0,0,0,0,0-0.1c0,0,0,0,0.1,0c0,0,0,0,0,0l0,0l0,0c0,0,0,0,0,0c0,0,0,0,0,0c0,0,0,0,0,0c0,0,0,0,0,0s0,0,0.1,0c0,0,0,0,0,0
			s0,0,0,0c0,0,0,0,0,0c0,0,0,0,0,0c0.2-0.2,0.4-0.3,0.6-0.5c0.2-0.2,0.3-0.4,0.5-0.6c0.2-0.2,0.3-0.5,0.4-0.8
			c0.1-0.3,0.2-0.7,0.2-1.1c0.1-2,0.3-3.8,0.6-5.2c0.2-1.4,0.6-2.7,1-3.7s1.1-1.9,1.9-2.6c0.8-0.7,1.9-1.2,3.2-1.7
			c0.3-0.1,0.5-0.2,0.6-0.2c0.1-0.1,0.2-0.2,0.4-0.2c0.1-0.1,0.2-0.2,0.2-0.3c0-0.1,0.1-0.2,0.2-0.2c0,0,0,0,0-0.1c0,0,0,0,0,0
			s0,0,0,0c0,0,0,0,0-0.1h0c0-0.1,0-0.1,0.1-0.2c0.1,0,0.1-0.1,0.2-0.2c0,0,0.1-0.1,0.2-0.1c0.1,0,0.2-0.1,0.2-0.1
			c0.1,0,0.1,0,0.2,0c0,0,0.1,0,0.1,0c0,0,0.1,0,0.1,0c0,0,0.1,0,0.2,0c0.1,0,0.2,0,0.2,0c0,0,0.1,0,0.2,0.1c0.1,0,0.2,0.1,0.2,0.1
			c0,0,0.1,0.1,0.2,0.1s0.2,0.1,0.2,0.2c0,0,0.1,0.1,0.2,0.2c0,0,0,0,0,0l0,0l0,0c0,0,0,0,0,0c0,0,0,0,0,0.1c0,0,0,0,0,0
			c0,0,0,0,0,0c0,0,0,0,0.1,0.1c0,0.1,0,0.2,0.1,0.2c0.1,0.1,0.2,0.2,0.2,0.3c0.1,0.1,0.2,0.2,0.4,0.2c0.2,0.1,0.3,0.2,0.5,0.2
			c1.4,0.5,2.4,1,3.2,1.7c0.8,0.7,1.4,1.5,1.9,2.6c0.5,1,0.8,2.3,1,3.7c0.2,1.4,0.4,3.2,0.6,5.2c0,0.4,0.1,0.8,0.2,1.1
			c0.1,0.3,0.3,0.6,0.4,0.8c0.1,0.2,0.3,0.4,0.5,0.6c0.2,0.2,0.4,0.3,0.6,0.5c0,0,0,0,0,0s0,0,0,0c0,0,0,0,0,0s0,0,0,0
			c0,0,0,0,0,0.1c0,0,0,0,0,0s0,0,0,0c0,0,0,0,0,0l0,0l0,0c0,0,0,0,0,0c0.1,0,0.1,0,0.1,0.1C387.2,65.3,387.2,65.3,387.2,65.4z
			 M378.7,70.9c0.1,0,0.1,0,0.2,0c0,0,0.1,0.1,0.2,0.1c0,0,0.1,0.1,0.1,0.1s0,0.1,0,0.2c0,0,0,0,0,0.1v0l0,0c0,0,0,0,0,0
			c0,0,0,0,0,0v0c0,0,0,0,0,0c0,0,0,0,0,0c-0.1,0.2-0.3,0.4-0.4,0.6s-0.3,0.3-0.5,0.4c-0.2,0.1-0.4,0.3-0.6,0.4
			c-0.2,0.1-0.4,0.2-0.7,0.3c0,0-0.1,0-0.2,0c-0.1,0-0.2,0-0.3,0c-0.1,0-0.2,0-0.2,0c-0.1,0-0.2,0-0.2,0c-0.1,0-0.2,0-0.3,0
			c-0.1,0-0.2,0-0.2,0s-0.2,0-0.3,0c-0.1,0-0.2,0-0.3,0c-0.2-0.1-0.4-0.2-0.6-0.2c-0.2-0.1-0.4-0.2-0.6-0.4
			c-0.2-0.2-0.3-0.3-0.5-0.5c-0.2-0.2-0.3-0.4-0.4-0.6c0,0,0,0,0,0l0,0l0,0c0,0,0,0,0,0c0,0,0,0,0,0c0,0,0,0,0,0s0,0,0,0
			c0,0,0,0,0,0c0,0,0,0,0,0c0,0,0,0,0,0v0c0,0,0,0,0-0.1c0-0.1,0-0.1,0-0.2c0,0,0-0.1,0.1-0.1c0.1,0,0.1-0.1,0.2-0.1
			c0,0,0.1,0,0.2,0c0,0,0,0,0,0c0,0,0,0,0,0c0,0,0,0,0,0l0,0l0,0c0,0,0,0,0,0c0.2,0,0.4,0,0.7,0c0.2,0,0.5,0,0.7,0
			c0.2,0,0.5,0,0.7,0s0.5,0,0.7,0c0,0,0,0,0,0l0,0l0,0c0,0,0,0,0,0c0.2,0,0.4,0,0.7,0c0.3,0,0.5,0,0.7,0c0.2,0,0.4,0,0.7,0
			c0.2,0,0.5,0,0.7,0C378.6,70.9,378.6,70.9,378.7,70.9C378.6,70.9,378.6,70.9,378.7,70.9C378.7,70.9,378.7,70.9,378.7,70.9
			C378.7,70.9,378.7,70.9,378.7,70.9L378.7,70.9z"/>
	</g>
</g>
<g>
	<rect x="636.9" y="-54.7" class="st0" width="114.6" height="72.9"/>
	<rect x="644.8" y="-46.8" class="st3" width="98.9" height="57.1"/>
	<g>
		<path class="st6" d="M704.7-4.6c0.1,0.1,0.1,0.2,0.2,0.3c0,0.1,0.1,0.2,0.1,0.3c0.1,0.1,0.1,0.2,0.1,0.3c0,0.1,0,0.3,0,0.4
			c0,0.2-0.1,0.4-0.1,0.6c-0.1,0.2-0.2,0.4-0.3,0.5c-0.1,0.2-0.3,0.3-0.5,0.4c-0.2,0.1-0.4,0.2-0.6,0.3h0c-0.5,0.1-1,0.2-1.4,0.3
			c-0.5,0.1-0.9,0.1-1.4,0.2c-0.5,0.1-1,0.1-1.4,0.1c-0.5,0-1,0.1-1.5,0.1c-0.3,0-0.5,0-0.8,0.1c-0.3,0-0.6,0-0.9,0s-0.6,0-0.9,0
			c-0.3,0-0.6,0-0.9,0c0,0,0,0,0,0l0,0l0,0c0,0,0,0,0,0c-0.3,0-0.6,0-0.9,0s-0.6,0-0.9,0c-0.3,0-0.6,0-0.9,0c-0.3,0-0.6,0-0.8-0.1
			c-0.5,0-1-0.1-1.5-0.1c-0.5,0-0.9-0.1-1.4-0.1c-0.5-0.1-0.9-0.1-1.4-0.2c-0.4-0.1-0.9-0.1-1.4-0.3c0,0,0,0,0,0c0,0-0.1,0-0.1,0
			c0,0,0,0-0.1,0c-0.2-0.1-0.4-0.1-0.5-0.3c-0.1-0.1-0.3-0.3-0.5-0.4c-0.1-0.2-0.3-0.3-0.3-0.5s-0.1-0.4-0.1-0.7c0-0.1,0-0.2,0-0.3
			c0-0.1,0-0.2,0.1-0.3c0.1-0.1,0.1-0.2,0.1-0.3c0-0.1,0.1-0.2,0.2-0.3c0,0,0,0,0,0c0,0,0,0,0,0l0,0c0,0,0,0,0,0l0,0c0,0,0,0,0-0.1
			c0,0,0,0,0.1,0c0,0,0,0,0,0l0,0l0,0c0,0,0,0,0,0c0,0,0,0,0,0c0,0,0,0,0,0s0,0,0,0s0,0,0.1,0c0,0,0,0,0,0s0,0,0,0c0,0,0,0,0,0
			c0,0,0,0,0,0c0.2-0.1,0.4-0.3,0.5-0.5c0.1-0.1,0.3-0.3,0.5-0.5c0.1-0.2,0.3-0.5,0.4-0.7c0.1-0.3,0.2-0.6,0.2-1
			c0.1-1.8,0.3-3.4,0.5-4.7s0.5-2.4,0.9-3.4s1-1.7,1.7-2.3c0.8-0.6,1.7-1.1,2.9-1.6c0.3-0.1,0.4-0.1,0.5-0.2
			c0.1-0.1,0.2-0.1,0.3-0.2c0.1-0.1,0.2-0.1,0.2-0.3c0-0.1,0.1-0.2,0.1-0.2c0,0,0,0,0-0.1c0,0,0,0,0,0s0,0,0,0c0,0,0,0,0-0.1h0
			c0-0.1,0-0.1,0.1-0.1c0.1,0,0.1-0.1,0.1-0.1c0,0,0.1-0.1,0.2-0.1s0.1-0.1,0.1-0.1c0.1,0,0.1,0,0.1,0c0,0,0.1,0,0.1,0
			c0,0,0.1,0,0.1,0s0.1,0,0.1,0c0.1,0,0.2,0,0.2,0c0,0,0.1,0,0.2,0.1c0.1,0,0.1,0.1,0.2,0.1c0,0,0.1,0.1,0.2,0.1s0.1,0.1,0.1,0.1
			c0,0,0.1,0.1,0.1,0.1c0,0,0,0,0,0l0,0l0,0c0,0,0,0,0,0c0,0,0,0,0,0.1c0,0,0,0,0,0c0,0,0,0,0,0c0,0,0,0,0.1,0.1
			c0,0.1,0,0.1,0.1,0.2c0.1,0.1,0.1,0.2,0.2,0.3c0.1,0.1,0.2,0.1,0.3,0.2c0.1,0.1,0.3,0.1,0.5,0.2c1.2,0.4,2.2,0.9,2.9,1.6
			c0.7,0.6,1.3,1.4,1.7,2.3c0.4,0.9,0.8,2.1,0.9,3.4c0.2,1.3,0.4,2.9,0.6,4.7c0,0.4,0.1,0.7,0.2,1c0.1,0.3,0.3,0.5,0.4,0.7
			c0.1,0.2,0.3,0.4,0.5,0.5c0.2,0.1,0.4,0.3,0.5,0.5c0,0,0,0,0,0s0,0,0,0c0,0,0,0,0,0s0,0,0,0c0,0,0,0,0,0.1c0,0,0,0,0,0
			c0,0,0,0,0,0c0,0,0,0,0,0l0,0l0,0c0,0,0,0,0,0c0.1,0,0.1,0,0.1,0.1C704.6-4.7,704.6-4.6,704.7-4.6z M696.9,0.4c0.1,0,0.1,0,0.1,0
			s0.1,0.1,0.1,0.1s0.1,0.1,0.1,0.1s0,0.1,0,0.1c0,0,0,0,0,0.1v0l0,0c0,0,0,0,0,0c0,0,0,0,0,0v0c0,0,0,0,0,0c0,0,0,0,0,0
			c-0.1,0.2-0.3,0.4-0.4,0.5c-0.1,0.1-0.3,0.3-0.5,0.4c-0.2,0.1-0.4,0.3-0.5,0.3c-0.2,0.1-0.4,0.2-0.7,0.3c0,0-0.1,0-0.2,0
			c-0.1,0-0.2,0-0.3,0c-0.1,0-0.1,0-0.2,0c-0.1,0-0.2,0-0.2,0c-0.1,0-0.2,0-0.3,0c-0.1,0-0.1,0-0.2,0c-0.1,0-0.2,0-0.3,0
			c-0.1,0-0.1,0-0.3,0c-0.2-0.1-0.4-0.1-0.6-0.2c-0.2-0.1-0.4-0.2-0.5-0.3c-0.1-0.1-0.3-0.3-0.5-0.4c-0.1-0.1-0.3-0.3-0.4-0.5
			c0,0,0,0,0,0l0,0l0,0c0,0,0,0,0,0c0,0,0,0,0,0c0,0,0,0,0,0s0,0,0,0c0,0,0,0,0,0c0,0,0,0,0,0c0,0,0,0,0,0v0c0,0,0,0,0-0.1
			c0-0.1,0-0.1,0-0.1c0,0,0-0.1,0.1-0.1c0.1,0,0.1-0.1,0.1-0.1s0.1,0,0.2,0c0,0,0,0,0,0s0,0,0,0c0,0,0,0,0,0l0,0l0,0c0,0,0,0,0,0
			c0.2,0,0.4,0,0.6,0s0.4,0,0.7,0c0.2,0,0.4,0,0.7,0c0.2,0,0.4,0,0.6,0c0,0,0,0,0,0l0,0l0,0c0,0,0,0,0,0c0.2,0,0.4,0,0.7,0
			c0.3,0,0.5,0,0.7,0c0.2,0,0.4,0,0.7,0c0.2,0,0.4,0,0.6,0C696.9,0.4,696.9,0.4,696.9,0.4C696.9,0.4,696.9,0.4,696.9,0.4
			C696.9,0.4,696.9,0.4,696.9,0.4C696.9,0.4,696.9,0.4,696.9,0.4L696.9,0.4z"/>
	</g>
	<rect x="672.8" y="-36.3" class="st6" width="42.7" height="3.1"/>
	<rect x="679.3" y="-30.1" class="st6" width="29.7" height="3.1"/>
</g>
</svg>
