<?xml version="1.0" encoding="utf-8"?>
<!-- Generator: Adobe Illustrator 19.1.0, SVG Export Plug-In . SVG Version: 6.00 Build 0)  -->
<svg version="1.1" id="Layer_1" xmlns="http://www.w3.org/2000/svg" xmlns:xlink="http://www.w3.org/1999/xlink" x="0px" y="0px"
	 viewBox="200 -60 600 320" style="enable-background:new 200 -60 600 320;" xml:space="preserve">
<style type="text/css">
	.st0{display:none;}
	.st1{display:inline;}
	.st2{fill:#D6E3E8;}
	.st3{fill:#78BDE1;}
	.st4{fill:#FFFFFF;}
	.st5{fill:#E22726;}
	.st6{fill:#FCD9D9;}
	.st7{fill:none;stroke:#B0D235;stroke-width:12;stroke-miterlimit:10;}
	.st8{fill:#B0D235;}
	.st9{display:inline;fill:#78BDE1;}
	.st10{fill:#4F95BA;}
	.st11{fill:#77BDE1;}
	.st12{fill:#AFD136;}
	.st13{opacity:0.5;enable-background:new    ;}
	.st14{fill:#D5E2E7;}
	.st15{fill:#333333;}
	.st16{fill:#77BCE0;}
	.st17{fill:#E12526;}
	.st18{fill:#4D4C4C;}
	.st19{fill:#CCCBCB;}
	.st20{opacity:0.5;}
	.st21{fill:#EF504E;}
	.st22{fill:#FDC053;}
	.st23{fill:#8BC43F;}
	.st24{fill:none;stroke:#FFFFFF;stroke-miterlimit:10;}
	.st25{opacity:0.5;clip-path:url(#SVGID_2_);}
	.st26{opacity:0.8;fill:#35677B;enable-background:new    ;}
	.st27{opacity:0.8;fill:#D8D8D7;enable-background:new    ;}
	.st28{fill:#FBD8D8;}
</style>
<g id="Layer_1_1_" class="st0">
	<g class="st1">
		<rect x="1375.5" y="-358.4" class="st2" width="187.4" height="268.5"/>
		<path class="st3" d="M1567-350c0-6.6-5.4-12-12-12h-171c-6.6,0-12,5.4-12,12v251c0,6.6,5.4,12,12,12h171c6.6,0,12-5.4,12-12V-350z
			 M1557-99c0,1.1-0.9,2-2,2h-171c-1.1,0-2-0.9-2-2v-251c0-1.1,0.9-2,2-2h171c1.1,0,2,0.9,2,2V-99z"/>
		<rect x="1393.7" y="-341" class="st3" width="151.7" height="206.5"/>
		<rect x="1399" y="-335" class="st4" width="141" height="196"/>
		<polygon class="st2" points="1399,-139 1540,-237.7 1540,-139 		"/>
		<circle class="st3" cx="1468.5" cy="-123.5" r="6.5"/>
	</g>
	<g class="st1">
		<path class="st5" d="M1693-437h-194c-7.2,0-13,5.8-13,13v129c0,7.1,5.8,13,13,13h7.9l-8.8,32.8c-0.7,2.7,2.2,4.8,4.6,3.3
			l54.6-36.1H1693c7.2,0,13-5.9,13-13v-129C1706-431.2,1700.2-437,1693-437z"/>
		<path class="st6" d="M1690-427h-188c-3.3,0-6,2.7-6,6v123c0,3.3,2.7,6,6,6h18l-7.4,27.6l41.6-27.6H1690c3.3,0,6-2.7,6-6v-123
			C1696-424.3,1693.3-427,1690-427z"/>
		<path class="st5" d="M1662.7-380h-137.4c-3.3,0-6-2.7-6-6l0,0c0-3.3,2.7-6,6-6h137.3c3.3,0,6,2.7,6,6l0,0
			C1668.7-382.7,1666-380,1662.7-380z"/>
		<path class="st5" d="M1662.7-356h-137.4c-3.3,0-6-2.7-6-6l0,0c0-3.3,2.7-6,6-6h137.3c3.3,0,6,2.7,6,6l0,0
			C1668.7-358.7,1666-356,1662.7-356z"/>
		<path class="st5" d="M1662.7-332h-137.4c-3.3,0-6-2.7-6-6l0,0c0-3.3,2.7-6,6-6h137.3c3.3,0,6,2.7,6,6l0,0
			C1668.7-334.7,1666-332,1662.7-332z"/>
	</g>
	<g class="st1">
		<g>
			<path class="st7" d="M1467.3-173.7h111c6.6,0,12.4-4.3,14.3-10.6l13-21.4c1.9-6.3,7.7-10.6,14.3-10.6h61.7"/>
			<g>
				<g>
					<circle class="st4" cx="1468.6" cy="-173.7" r="22.6"/>
					<path class="st8" d="M1468.6-148.2c14.1,0,25.6-11.5,25.6-25.6c0-14.1-11.5-25.6-25.6-25.6s-25.6,11.5-25.6,25.6
						C1443-159.7,1454.5-148.2,1468.6-148.2S1454.5-148.2,1468.6-148.2z M1468.6-193.3c10.8,0,19.6,8.8,19.6,19.6
						c0,10.8-8.8,19.6-19.6,19.6s-19.6-8.8-19.6-19.6C1449-184.5,1457.8-193.3,1468.6-193.3C1479.3-193.3,1457.8-193.3,1468.6-193.3
						z"/>
				</g>
			</g>
			<g>
				<g>
					<circle class="st4" cx="1680.4" cy="-216.4" r="22.6"/>
					<path class="st8" d="M1680.4-190.8c-14.1,0-25.6-11.5-25.6-25.6s11.5-25.6,25.6-25.6s25.6,11.5,25.6,25.6
						S1694.5-190.8,1680.4-190.8S1694.5-190.8,1680.4-190.8z M1680.4-235.9c-10.8,0-19.6,8.8-19.6,19.6s8.8,19.6,19.6,19.6
						s19.6-8.8,19.6-19.6S1691.2-235.9,1680.4-235.9C1669.7-235.9,1691.2-235.9,1680.4-235.9z"/>
				</g>
			</g>
		</g>
	</g>
	<g class="st1">
		<path class="st8" d="M1677.8-214l-1.8,5.5h-2.3l6-17.5h2.7l6,17.5h-2.4l-2-5.5H1677.8z M1683.6-215.8l-1.7-5
			c-0.4-1.1-0.6-2.2-0.9-3.2h-0.1c-0.3,1-0.5,2.1-0.9,3.2l-1.7,5.1L1683.6-215.8L1683.6-215.8L1683.6-215.8z"/>
	</g>
	<rect x="730" y="-390" class="st9" width="600" height="400"/>
</g>
<g>
	<g>
		<path class="st10" d="M586.2,259H264.9c-5.1,0-9.2-4.2-9.2-9.2v-8.4c0-2.5,2.1-4.6,4.6-4.6h330.6c2.5,0,4.6,2.1,4.6,4.6v8.4
			C595.4,254.9,591.3,259,586.2,259z"/>
		<path class="st10" d="M560.5,58H290.6c-5.1,0-9.2,4.2-9.2,9.2v191.7h288.4V67.2C569.7,62.1,565.6,58,560.5,58z"/>
	</g>
	<path class="st11" d="M561.4,236.7H289.7V71.6c0-2.5,2.1-4.6,4.6-4.6h262.4c2.5,0,4.6,2.1,4.6,4.6L561.4,236.7L561.4,236.7z"/>
	<path class="st12" d="M563.3,247.9h19.2c1,0,1.8-0.8,1.8-1.8l0,0c0-1-0.8-1.8-1.8-1.8h-19.2c-1,0-1.8,0.8-1.8,1.8l0,0
		C561.4,247,562.2,247.9,563.3,247.9z"/>
	<circle class="st12" cx="555.7" cy="246.3" r="2.1"/>
	<path class="st13" d="M392.9,236.7v2.7c0,1.2,0.9,2.1,2.1,2.1h63.1c1.2,0,2.1-0.9,2.1-2.1v-2.7H392.9z"/>
	<path class="st4" d="M548.6,226H304.5c-1.3,0-2.3-1-2.3-2.3V79.9c0-1.2,1-2.3,2.3-2.3h244.1c1.2,0,2.3,1.1,2.3,2.3v143.8
		C550.9,225,549.9,226,548.6,226z"/>
	<path class="st14" d="M550.9,223.9V90.4H302.2v133.5c0,1.2,0.9,2.1,2.1,2.1h244.5C550,226,550.9,225.1,550.9,223.9z"/>
	<path class="st15" d="M351.3,90.4h-49.1v133.5c0,1.2,0.9,2.1,2.1,2.1h47V90.4z"/>
	<rect x="351.3" y="106.1" class="st15" width="126.8" height="13.3"/>
	<rect x="351.3" y="119.3" class="st16" width="126.8" height="6.6"/>
	<rect x="481.6" y="95.3" class="st4" width="64.8" height="31.3"/>
	<rect x="483.9" y="97.6" class="st14" width="60.1" height="26.7"/>
	<rect x="481.6" y="132.9" class="st4" width="64.8" height="31.3"/>
	<rect x="483.9" y="135.2" class="st14" width="60.1" height="26.7"/>
	<rect x="305.1" y="121" class="st17" width="42.8" height="6.6"/>
	<rect x="305.1" y="111.1" width="42.8" height="6.6"/>
	<rect x="305.1" y="128.7" class="st18" width="42.8" height="6.6"/>
	<rect x="305.1" y="136.2" class="st18" width="42.8" height="6.6"/>
	<rect x="305.1" y="143.8" class="st18" width="42.8" height="6.6"/>
	<rect x="305.1" y="151.4" class="st18" width="42.8" height="6.6"/>
	<g>
		<rect x="355.6" y="130.8" class="st4" width="119.2" height="33.7"/>
		<rect x="359.5" y="134.6" class="st17" width="16.2" height="3.2"/>
		<rect x="359.5" y="141.8" class="st19" width="112.4" height="1.9"/>
		<rect x="359.5" y="145.5" class="st19" width="112.4" height="1.9"/>
		<rect x="359.5" y="149.2" class="st19" width="112.4" height="1.9"/>
		<rect x="359.5" y="152.9" class="st19" width="112.4" height="1.9"/>
	</g>
	<g class="st20">
		<rect x="355.6" y="169.3" class="st4" width="119.2" height="33.7"/>
		<rect x="359.5" y="173.1" class="st17" width="16.2" height="3.2"/>
		<rect x="359.5" y="180.3" class="st19" width="112.4" height="1.9"/>
		<rect x="359.5" y="184" class="st19" width="112.4" height="1.9"/>
		<rect x="359.5" y="187.7" class="st19" width="112.4" height="1.9"/>
		<rect x="359.5" y="191.4" class="st19" width="112.4" height="1.9"/>
	</g>
	<circle class="st21" cx="309.6" cy="84.2" r="2.2"/>
	<circle class="st22" cx="316.3" cy="84.2" r="2.2"/>
	<circle class="st23" cx="323" cy="84.2" r="2.2"/>
	<g>
		<g>
			<path class="st4" d="M335.4,97.2c-0.1,0-0.1,0.1-0.2,0.2l-3.3,7.7v0.1c0,0,0,0,0.1,0l8.3-1.2c0.2,0,0.2-0.1,0.2-0.1
				c0.5-0.4-0.2-2.2-1.6-4C337.4,97.9,335.9,96.8,335.4,97.2z M333,104.3c-0.1,0-0.1,0-0.2,0c0,0,0-0.1,0-0.2l1.1-2.4
				c0,0.1,0,0.1,0.1,0.2c0.1,0.3,0.3,0.7,0.6,1.1c0.3,0.4,0.6,0.8,1,0.9L333,104.3z M338.9,103.6l-2.6,0.4l0,0l0,0h-0.1
				c-0.4,0-0.9-0.4-1.4-1c-0.2-0.3-0.5-0.7-0.5-1c-0.1-0.3-0.1-0.5-0.1-0.6l1.1-2.5h0.1c0,0.2,0.1,0.2,0.2,0.4
				c0.2,0.5,0.5,1,0.8,1.5l-0.7,1.5l0,0l0,0l1.6-0.2c0.4,0.5,0.8,0.9,1.2,1.2C338.6,103.3,338.8,103.4,338.9,103.6
				C338.9,103.5,338.9,103.6,338.9,103.6z M337.3,101.1c0.2,0.2,0.4,0.5,0.5,0.6c0,0,0,0,0.1,0v0.1h-0.2c-0.2-0.2-0.3-0.4-0.5-0.6
				s-0.3-0.4-0.4-0.6l0.1-0.2h0.1v0.1C337,100.6,337.1,100.9,337.3,101.1z M337,99.9L337,99.9L337,99.9h-0.2h-0.2l0,0l0,0l0,0
				l0.2,0.2h0.1v-0.2C337,100,337,99.9,337,99.9L337,99.9c0.2-0.1,0.5,0.2,0.9,0.7s0.6,1,0.5,1.1l0,0v-0.4v-0.4l0,0v0.4v-0.2v-0.2
				l0,0l0,0l0,0l0,0l0,0l0,0l0,0v0.4c-0.2,0-0.5-0.2-0.8-0.5C337.1,100.3,337,100.1,337,99.9z M336.8,101.4c0.2,0.2,0.2,0.3,0.4,0.5
				l-1.1,0.2l0,0c0,0,0,0,0-0.1l0,0l0.5-1C336.6,101.1,336.7,101.3,336.8,101.4z M339.9,103.4L339.9,103.4L339.9,103.4
				C339.8,103.4,339.8,103.4,339.9,103.4C339.8,103.4,339.8,103.4,339.9,103.4C339.8,103.4,339.8,103.4,339.9,103.4
				C339.8,103.4,339.8,103.4,339.9,103.4C339.8,103.5,339.8,103.5,339.9,103.4L339.9,103.4L339.9,103.4L339.9,103.4L339.9,103.4
				l-0.1,0.4v0.3l0,0v-0.3c-0.4,0-1.2-0.8-1.9-1.6l0.6-0.2c0.1,0,0.1-0.1,0.1-0.1c0.2-0.2-0.1-0.7-0.5-1.3c-0.5-0.6-0.9-0.9-1.1-0.8
				c0,0,0,0-0.1,0.1l-0.2,0.5c-0.7-1.1-1-2-0.9-2.4l0,0l0,0l0,0l0,0l0,0l0,0l0,0l0,0l0,0c0,0,0,0,0.1-0.1l0,0l0,0
				c0.4-0.3,1.6,0.7,2.8,2.2C339.6,101.6,340.3,103.1,339.9,103.4z"/>
			<path class="st4" d="M341.3,98c-0.1-0.1-0.2-0.1-0.3-0.1l-1.7,1.3c-0.1,0.1-0.1,0.2-0.1,0.3c0,0.1,0.2,0.1,0.3,0.1l1.7-1.3
				C341.3,98.3,341.3,98.2,341.3,98z"/>
			<path class="st4" d="M340.8,99.6l-1,0.3c-0.1,0-0.2,0.2-0.2,0.2c0,0.1,0.2,0.2,0.2,0.2l1-0.3c0.1,0,0.2-0.2,0.2-0.2
				C341,99.6,340.9,99.5,340.8,99.6z"/>
			<path class="st4" d="M339.1,98.9l0.6-0.9c0.1-0.1,0.1-0.2-0.1-0.3c-0.1-0.1-0.2-0.1-0.3,0.1l-0.6,0.9c-0.1,0.1-0.1,0.2,0.1,0.3
				C338.9,99,339,99,339.1,98.9z"/>
		</g>
		<path class="st4" d="M312.4,100.3v4.9h-1V100h0.8C312.2,99.9,312.4,100.1,312.4,100.3z"/>
		<path class="st4" d="M312.4,99.3L312.4,99.3c-0.5,0-1-0.5-1-1v-0.2l0,0c0.5,0,1,0.5,1,1V99.3z"/>
		<path class="st4" d="M314.4,100.6c0.4-0.3,0.9-0.6,1.6-0.6c0.8,0,1.3,0.4,1.4,1.1c0,0.2,0,0.5,0,0.6v3.6h-1v-3.6
			c0-0.2,0-0.3,0-0.5c-0.1-0.4-0.3-0.5-0.7-0.5c-0.5,0-0.9,0.3-1.2,0.5v3.9h-1v-5.2h0.7c0.2,0,0.2,0.1,0.3,0.2L314.4,100.6z"/>
		<path class="st4" d="M319.5,100.7c0.2-0.2,0.8-0.5,1.5-0.5c0.9,0,1.6,0.7,1.6,2.3c0,1.8-0.6,3.1-2.3,3.1c-0.7,0-1.3-0.2-1.8-0.5
			v-6.9h1L319.5,100.7L319.5,100.7z M319.5,104.6c0.2,0.1,0.5,0.2,0.8,0.2c0.9,0,1.2-0.9,1.2-2c0-1.3-0.3-1.7-0.8-1.7
			c-0.4,0-0.8,0.3-1.1,0.5v3H319.5z"/>
		<path class="st4" d="M324.6,100.3v4.9h-1V100h0.8C324.5,99.9,324.6,100.1,324.6,100.3z M324.6,99.3L324.6,99.3c-0.5,0-1-0.5-1-1
			v-0.2l0,0c0.5,0,1,0.5,1,1V99.3z"/>
		<path class="st4" d="M332.9,99.9h-1l-1.5,3.5c-0.1,0.1-0.1,0.2-0.2,0.2l-1.2-3.5c-0.1-0.2-0.2-0.2-0.3-0.2l0,0h-1.5
			c0-0.3,0-0.5,0.1-0.7s0.2-0.3,0.7-0.3c0.3,0,0.7,0.1,0.8,0.2l0.1-0.8c-0.2-0.1-0.7-0.2-1-0.2c-1.1,0-1.5,0.5-1.7,1.3
			c0,0.2-0.1,0.5-0.1,0.5h-0.6v1h0.6v4.2h1.1v-4.2h1l1.5,3.9c-0.4,0.9-0.6,1.5-1.2,1.5c-0.4,0-0.7-0.2-1.2-0.3l-0.4,0.9
			c0.3,0.2,0.8,0.4,1.5,0.4c1.2,0,1.7-1,2.3-2.3c0.2-0.3,0.2-0.6,0.4-0.9L332.9,99.9z"/>
	</g>
	<line class="st24" x1="478.2" y1="90.4" x2="478.2" y2="226"/>
	<polygon class="st17" points="543.6,146.3 539.9,146.5 530.8,159.9 524.8,147.3 514.1,158.4 512,148.7 504,158.1 501.5,152.2 
		491,158.1 488.6,145.4 484.4,161.9 543.6,161.9 	"/>
	<polygon class="st17" points="543.6,108.2 539.9,108.3 530.8,121.7 524.8,109.1 514.1,120.2 512,110.6 504,119.9 501.5,114 
		491,119.9 488.6,107.2 484.4,123.7 543.6,123.7 	"/>
	<g>
		<g>
			<g>
				<defs>
					<path id="SVGID_1_" d="M550.9,223.9V90.4H302.2v133.5c0,1.2,0.9,2.1,2.1,2.1h244.5C550,226,550.9,225.1,550.9,223.9z"/>
				</defs>
				<clipPath id="SVGID_2_">
					<use xlink:href="#SVGID_1_"  style="overflow:visible;"/>
				</clipPath>
				<g class="st25">
					<rect x="355.6" y="209.2" class="st4" width="119.2" height="33.7"/>
					<rect x="359.5" y="213" class="st17" width="16.2" height="3.2"/>
					<rect x="359.5" y="220.1" class="st19" width="112.4" height="1.9"/>
					<rect x="359.5" y="223.8" class="st19" width="112.4" height="1.9"/>
					<rect x="359.5" y="227.5" class="st19" width="112.4" height="1.9"/>
					<rect x="359.5" y="231.2" class="st19" width="112.4" height="1.9"/>
				</g>
			</g>
		</g>
	</g>
	<path class="st26" d="M550.9,223.8V90.2H302.2v133.5c0,1.2,0.9,2.1,2.1,2.1h244.5C550,225.8,550.9,224.9,550.9,223.8z"/>
	<g>
		<path class="st4" d="M476.5,214.4H374.6c-1.3,0-2.3-1.1-2.3-2.3V99.4c0-1.2,1-2.3,2.3-2.3h101.9c1.2,0,2.3,1.1,2.3,2.3v112.7
			C478.8,213.4,477.7,214.4,476.5,214.4z"/>
		<rect x="374.6" y="99.4" class="st14" width="101.9" height="112.7"/>
		<path class="st4" d="M469.5,170.4h-88c-1.2,0-2.3,1.1-2.3,2.3V195c0,1.2,1.1,2.3,2.3,2.3h88c1.2,0,2.3-1.1,2.3-2.3v-22.3
			C471.9,171.4,470.9,170.4,469.5,170.4z"/>
		<path class="st17" d="M448.2,205.7h21.3c1.2,0,2.3-1.1,2.3-2.3v-1.1c0-1.2-1.1-2.3-2.3-2.3h-21.3c-1.2,0-2.3,1.1-2.3,2.3v1.1
			C445.9,204.6,447,205.7,448.2,205.7z"/>
		<path class="st10" d="M444,158h-61.6c-1.1,0-1.9,0.8-1.9,1.9l0,0c0,1.1,0.8,1.9,1.9,1.9H444c1.1,0,1.9-0.8,1.9-1.9l0,0
			C445.9,158.9,445.1,158,444,158z"/>
		<path class="st10" d="M444,151.7h-61.6c-1.1,0-1.9,0.8-1.9,1.9l0,0c0,1.1,0.8,1.9,1.9,1.9H444c1.1,0,1.9-0.8,1.9-1.9l0,0
			C445.9,152.5,445.1,151.7,444,151.7z"/>
		<path class="st10" d="M407.1,145.3h-24.8c-1.1,0-1.9,0.8-1.9,1.9l0,0c0,1.1,0.8,1.9,1.9,1.9h24.8c1.1,0,1.9-0.8,1.9-1.9l0,0
			C409.1,146.2,408.2,145.3,407.1,145.3z"/>
		<path class="st27" d="M411.3,176.3h-24.8c-1.1,0-1.9,0.8-1.9,1.9l0,0c0,1.1,0.8,1.9,1.9,1.9h24.8c1.1,0,1.9-0.8,1.9-1.9l0,0
			C413.2,177.2,412.3,176.3,411.3,176.3z"/>
		<path class="st10" d="M444,133.1h-61.6c-1.1,0-1.9,0.8-1.9,1.9l0,0c0,1.1,0.8,1.9,1.9,1.9H444c1.1,0,1.9-0.8,1.9-1.9l0,0
			C445.9,134,445.1,133.1,444,133.1z"/>
		<path class="st10" d="M444,126.7h-61.6c-1.1,0-1.9,0.8-1.9,1.9l0,0c0,1.1,0.8,1.9,1.9,1.9H444c1.1,0,1.9-0.8,1.9-1.9l0,0
			C445.9,127.6,445.1,126.7,444,126.7z"/>
		<path class="st10" d="M407.1,120.4h-24.8c-1.1,0-1.9,0.8-1.9,1.9l0,0c0,1.1,0.8,1.9,1.9,1.9h24.8c1.1,0,1.9-0.8,1.9-1.9l0,0
			C409.1,121.2,408.2,120.4,407.1,120.4z"/>
		<path class="st10" d="M407.1,109.2h-24.8c-1.1,0-1.9,0.8-1.9,1.9l0,0c0,1.1,0.8,1.9,1.9,1.9h24.8c1.1,0,1.9-0.8,1.9-1.9l0,0
			C409.1,110,408.2,109.2,407.1,109.2z"/>
	</g>
</g>
<g>
	<rect x="586" y="0.2" class="st4" width="124.4" height="178.3"/>
	<path class="st10" d="M713.2,5.7c0-4.4-3.6-8-8-8H591.7c-4.4,0-8,3.6-8,8v166.7c0,4.4,3.6,8,8,8h113.6c4.4,0,8-3.6,8-8L713.2,5.7
		L713.2,5.7z M706.5,172.4c0,0.7-0.6,1.3-1.3,1.3H591.7c-0.7,0-1.3-0.6-1.3-1.3V5.7c0-0.7,0.6-1.3,1.3-1.3h113.6
		c0.7,0,1.3,0.6,1.3,1.3L706.5,172.4L706.5,172.4z"/>
	<rect x="598.1" y="11.7" class="st11" width="100.7" height="137.1"/>
	<rect x="601.6" y="15.7" class="st14" width="93.6" height="130.2"/>
	<circle class="st11" cx="647.8" cy="156.1" r="4.3"/>
	<path class="st4" d="M688.8,103.5h-80c-1.2,0-2.3,1.1-2.3,2.3v22.3c0,1.2,1.1,2.3,2.3,2.3h80c1.2,0,2.3-1.1,2.3-2.3v-22.3
		C691.1,104.5,690.1,103.5,688.8,103.5z"/>
	<path class="st17" d="M675.5,138.8h13.3c1.2,0,2.3-1.1,2.3-2.3v-1.1c0-1.2-1.1-2.3-2.3-2.3h-13.3c-1.2,0-2.3,1.1-2.3,2.3v1.1
		C673.1,137.7,674.2,138.8,675.5,138.8z"/>
	<path class="st10" d="M671.2,91.1h-61.6c-1.1,0-1.9,0.8-1.9,1.9l0,0c0,1.1,0.8,1.9,1.9,1.9h61.6c1.1,0,1.9-0.8,1.9-1.9l0,0
		C673.1,92.1,672.3,91.1,671.2,91.1z"/>
	<path class="st10" d="M671.2,84.8h-61.6c-1.1,0-1.9,0.8-1.9,1.9l0,0c0,1.1,0.8,1.9,1.9,1.9h61.6c1.1,0,1.9-0.8,1.9-1.9l0,0
		C673.1,85.7,672.3,84.8,671.2,84.8z"/>
	<path class="st10" d="M634.3,78.4h-24.8c-1.1,0-1.9,0.8-1.9,1.9l0,0c0,1.1,0.8,1.9,1.9,1.9h24.8c1.1,0,1.9-0.8,1.9-1.9l0,0
		C636.3,79.4,635.4,78.4,634.3,78.4z"/>
	<path class="st10" d="M671.2,66.2h-61.6c-1.1,0-1.9,0.8-1.9,1.9l0,0c0,1.1,0.8,1.9,1.9,1.9h61.6c1.1,0,1.9-0.8,1.9-1.9l0,0
		C673.1,67.1,672.3,66.2,671.2,66.2z"/>
	<path class="st10" d="M671.2,59.9h-61.6c-1.1,0-1.9,0.8-1.9,1.9l0,0c0,1.1,0.8,1.9,1.9,1.9h61.6c1.1,0,1.9-0.8,1.9-1.9l0,0
		C673.1,60.7,672.3,59.9,671.2,59.9z"/>
	<path class="st10" d="M634.3,53.5h-24.8c-1.1,0-1.9,0.8-1.9,1.9l0,0c0,1.1,0.8,1.9,1.9,1.9h24.8c1.1,0,1.9-0.8,1.9-1.9l0,0
		C636.3,54.3,635.4,53.5,634.3,53.5z"/>
	<path class="st10" d="M634.3,42.3h-24.8c-1.1,0-1.9,0.8-1.9,1.9l0,0c0,1.1,0.8,1.9,1.9,1.9h24.8c1.1,0,1.9-0.8,1.9-1.9l0,0
		C636.3,43.2,635.4,42.3,634.3,42.3z"/>
</g>
<g>
	<path class="st17" d="M550.8,42.6h-79c-2.9,0-5.3,2.7-5.3,5.6v52.5c0,2.9,2.4,5.3,5.3,5.3h3.2l-3.7,13.3c-0.3,1.1,1,1.9,1.8,1.3
		l22.3-14.7h55.3c2.9,0,5.1-2.4,5.1-5.3V48.1C555.8,45.3,553.7,42.6,550.8,42.6z"/>
	<path class="st28" d="M549.6,46.9H473c-1.3,0-2.2,1.2-2.2,2.6v50.2c0,1.3,0.9,3.2,2.2,3.2h7.3l-3,11.2l17-11.2h55.3
		c1.3,0,3-1.9,3-3.2V49.5C552.6,48.1,550.9,46.9,549.6,46.9z"/>
	<path class="st17" d="M538.4,66.1h-56c-1.3,0-2.5-1.1-2.5-2.5l0,0c0-1.3,1.1-2.5,2.5-2.5h56c1.3,0,2.5,1.1,2.5,2.5l0,0
		C540.9,65.1,539.8,66.1,538.4,66.1z"/>
	<path class="st17" d="M538.4,75.9h-56c-1.3,0-2.5-1.1-2.5-2.5l0,0c0-1.3,1.1-2.5,2.5-2.5h56c1.3,0,2.5,1.1,2.5,2.5l0,0
		C540.9,74.9,539.8,75.9,538.4,75.9z"/>
	<path class="st17" d="M538.4,85.7h-56c-1.3,0-2.5-1.1-2.5-2.5l0,0c0-1.3,1.1-2.5,2.5-2.5h56c1.3,0,2.5,1.1,2.5,2.5l0,0
		C540.9,84.7,539.8,85.7,538.4,85.7z"/>
</g>
<g>
	<path class="st17" d="M657.6-60H546.8c-4.1,0-7.3,3-7.3,7.1v73.7c0,4.1,3.3,7.4,7.3,7.4H579l29.5,19.5c1.3,0.9,3-0.4,2.6-1.9
		l-4.8-17.6h51.3c4.1,0,7.5-3.3,7.5-7.4v-73.7C665.2-57,661.7-60,657.6-60z"/>
	<path class="st28" d="M655.9-54H548.6c-1.9,0-4.2,0.9-4.2,2.8V19c0,1.9,2.3,4,4.2,4h30.1l26.6,17.3L598.2,23h57.7
		c1.9,0,4.5-2.1,4.5-4v-70.2C660.4-53.1,657.8-54,655.9-54z"/>
	<path class="st17" d="M640.9-27.8h-79.6c-1.6,0-2.8-1.3-2.8-2.8v-1.2c0-1.6,1.3-2.8,2.8-2.8h79.6c1.6,0,2.8,1.3,2.8,2.8v1.2
		C643.7-29.1,642.5-27.8,640.9-27.8z"/>
	<path class="st17" d="M640.9-14.1h-79.6c-1.6,0-2.8-1.3-2.8-2.8v-1.2c0-1.6,1.3-2.8,2.8-2.8h79.6c1.6,0,2.8,1.3,2.8,2.8v1.2
		C643.7-15.4,642.5-14.1,640.9-14.1z"/>
	<path class="st17" d="M640.9-0.4h-79.6c-1.6,0-2.8-1.3-2.8-2.8v-1.2c0-1.6,1.3-2.8,2.8-2.8h79.6c1.6,0,2.8,1.3,2.8,2.8v1.2
		C643.7-1.6,642.5-0.4,640.9-0.4z"/>
</g>
</svg>
