<?xml version="1.0" encoding="utf-8"?>
<!-- Generator: Adobe Illustrator 19.1.0, SVG Export Plug-In . SVG Version: 6.00 Build 0)  -->
<svg version="1.1" id="Layer_1" xmlns="http://www.w3.org/2000/svg" xmlns:xlink="http://www.w3.org/1999/xlink" x="0px" y="0px"
	 viewBox="265 -164.7 600 320" style="enable-background:new 265 -164.7 600 320;" xml:space="preserve">
<style type="text/css">
	.st0{display:none;}
	.st1{display:inline;}
	.st2{fill:#D6E3E8;}
	.st3{fill:#78BDE1;}
	.st4{fill:#FFFFFF;}
	.st5{fill:#E22726;}
	.st6{fill:#FCD9D9;}
	.st7{fill:none;stroke:#B0D235;stroke-width:12;stroke-miterlimit:10;}
	.st8{fill:#B0D235;}
	.st9{display:inline;fill:#78BDE1;}
	.st10{fill:#4F95BA;}
	.st11{fill:#AFD136;}
	.st12{opacity:0.5;enable-background:new    ;}
	.st13{fill:#D5E2E7;}
	.st14{fill:#333333;}
	.st15{fill:#77BCE0;}
	.st16{fill:#E12526;}
	.st17{fill:#4D4C4C;}
	.st18{fill:#CCCBCB;}
	.st19{opacity:0.5;}
	.st20{fill:#EF504E;}
	.st21{fill:#FDC053;}
	.st22{fill:#8BC43F;}
	.st23{fill:none;stroke:#FFFFFF;stroke-miterlimit:10;}
	.st24{opacity:0.5;clip-path:url(#SVGID_2_);}
	.st25{opacity:0.3;fill:#FFFFFF;enable-background:new    ;}
	.st26{opacity:0.8;fill:#35677B;enable-background:new    ;}
	.st27{opacity:0.8;fill:#D8D8D7;enable-background:new    ;}
	.st28{fill:#77BDE1;}
	.st29{fill:#FBD8D8;}
</style>
<g id="Layer_1_1_" class="st0">
	<g class="st1">
		<rect x="1175.5" y="-298.4" class="st2" width="187.4" height="268.5"/>
		<path class="st3" d="M1367-290c0-6.6-5.4-12-12-12h-171c-6.6,0-12,5.4-12,12v251c0,6.6,5.4,12,12,12h171c6.6,0,12-5.4,12-12V-290z
			 M1357-39c0,1.1-0.9,2-2,2h-171c-1.1,0-2-0.9-2-2v-251c0-1.1,0.9-2,2-2h171c1.1,0,2,0.9,2,2V-39z"/>
		<rect x="1193.7" y="-281" class="st3" width="151.7" height="206.5"/>
		<rect x="1199" y="-275" class="st4" width="141" height="196"/>
		<polygon class="st2" points="1199,-79 1340,-177.7 1340,-79 		"/>
		<circle class="st3" cx="1268.5" cy="-63.5" r="6.5"/>
	</g>
	<g class="st1">
		<path class="st5" d="M1493-377h-194c-7.2,0-13,5.8-13,13v129c0,7.1,5.8,13,13,13h7.9l-8.8,32.8c-0.7,2.7,2.2,4.8,4.6,3.3
			l54.6-36.1H1493c7.2,0,13-5.9,13-13v-129C1506-371.2,1500.2-377,1493-377z"/>
		<path class="st6" d="M1490-367h-188c-3.3,0-6,2.7-6,6v123c0,3.3,2.7,6,6,6h18l-7.4,27.6l41.6-27.6H1490c3.3,0,6-2.7,6-6v-123
			C1496-364.3,1493.3-367,1490-367z"/>
		<path class="st5" d="M1462.7-320h-137.4c-3.3,0-6-2.7-6-6l0,0c0-3.3,2.7-6,6-6h137.3c3.3,0,6,2.7,6,6l0,0
			C1468.7-322.7,1466-320,1462.7-320z"/>
		<path class="st5" d="M1462.7-296h-137.4c-3.3,0-6-2.7-6-6l0,0c0-3.3,2.7-6,6-6h137.3c3.3,0,6,2.7,6,6l0,0
			C1468.7-298.7,1466-296,1462.7-296z"/>
		<path class="st5" d="M1462.7-272h-137.4c-3.3,0-6-2.7-6-6l0,0c0-3.3,2.7-6,6-6h137.3c3.3,0,6,2.7,6,6l0,0
			C1468.7-274.7,1466-272,1462.7-272z"/>
	</g>
	<g class="st1">
		<g>
			<path class="st7" d="M1267.3-113.7h111c6.6,0,12.4-4.3,14.3-10.6l13-21.4c1.9-6.3,7.7-10.6,14.3-10.6h61.7"/>
			<g>
				<g>
					<circle class="st4" cx="1268.6" cy="-113.7" r="22.6"/>
					<path class="st8" d="M1268.6-88.2c14.1,0,25.6-11.5,25.6-25.6s-11.5-25.6-25.6-25.6s-25.6,11.5-25.6,25.6
						S1254.5-88.2,1268.6-88.2S1254.5-88.2,1268.6-88.2z M1268.6-133.3c10.8,0,19.6,8.8,19.6,19.6s-8.8,19.6-19.6,19.6
						s-19.6-8.8-19.6-19.6S1257.8-133.3,1268.6-133.3C1279.3-133.3,1257.8-133.3,1268.6-133.3z"/>
				</g>
			</g>
			<g>
				<g>
					<circle class="st4" cx="1480.4" cy="-156.4" r="22.6"/>
					<path class="st8" d="M1480.4-130.8c-14.1,0-25.6-11.5-25.6-25.6c0-14.1,11.5-25.6,25.6-25.6s25.6,11.5,25.6,25.6
						C1506-142.3,1494.5-130.8,1480.4-130.8S1494.5-130.8,1480.4-130.8z M1480.4-175.9c-10.8,0-19.6,8.8-19.6,19.6
						s8.8,19.6,19.6,19.6s19.6-8.8,19.6-19.6S1491.2-175.9,1480.4-175.9C1469.7-175.9,1491.2-175.9,1480.4-175.9z"/>
				</g>
			</g>
		</g>
	</g>
	<g class="st1">
		<path class="st8" d="M1477.8-154l-1.8,5.5h-2.3l6-17.5h2.7l6,17.5h-2.4l-2-5.5H1477.8z M1483.6-155.8l-1.7-5
			c-0.4-1.1-0.6-2.2-0.9-3.2h-0.1c-0.3,1-0.5,2.1-0.9,3.2l-1.7,5.1L1483.6-155.8L1483.6-155.8L1483.6-155.8z"/>
	</g>
	<rect x="530" y="-330" class="st9" width="600" height="400"/>
</g>
<g>
	<g>
		<path class="st10" d="M654.3,154.3H333c-5.1,0-9.2-4.2-9.2-9.2v-8.4c0-2.5,2.1-4.6,4.6-4.6h330.6c2.5,0,4.6,2.1,4.6,4.6v8.4
			C663.5,150.2,659.4,154.3,654.3,154.3z"/>
		<path class="st10" d="M628.6-46.7H358.7c-5.1,0-9.2,4.2-9.2,9.2v191.7h288.4V-37.5C637.8-42.6,633.7-46.7,628.6-46.7z"/>
	</g>
	<path class="st11" d="M629.5,132H357.8V-33.1c0-2.5,2.1-4.6,4.6-4.6h262.4c2.5,0,4.6,2.1,4.6,4.6L629.5,132L629.5,132z"/>
	<path class="st11" d="M631.4,143.2h19.2c1,0,1.8-0.8,1.8-1.8l0,0c0-1-0.8-1.8-1.8-1.8h-19.2c-1,0-1.8,0.8-1.8,1.8l0,0
		C629.5,142.3,630.3,143.2,631.4,143.2z"/>
	<circle class="st11" cx="623.8" cy="141.6" r="2.1"/>
	<path class="st12" d="M461,132v2.7c0,1.2,0.9,2.1,2.1,2.1h63.1c1.2,0,2.1-0.9,2.1-2.1V132H461z"/>
	<path class="st4" d="M616.7,121.3H372.6c-1.3,0-2.3-1-2.3-2.3V-24.8c0-1.2,1-2.3,2.3-2.3h244.1c1.2,0,2.3,1.1,2.3,2.3V119
		C619,120.3,618,121.3,616.7,121.3z"/>
	<path class="st13" d="M619,119.2V-14.3H370.3v133.5c0,1.2,0.9,2.1,2.1,2.1h244.5C618.1,121.3,619,120.4,619,119.2z"/>
	<path class="st14" d="M419.4-14.3h-49.1v133.5c0,1.2,0.9,2.1,2.1,2.1h47V-14.3z"/>
	<rect x="419.4" y="1.4" class="st14" width="126.8" height="13.3"/>
	<rect x="419.4" y="14.6" class="st15" width="126.8" height="6.6"/>
	<rect x="549.7" y="-9.4" class="st4" width="64.8" height="31.3"/>
	<rect x="552" y="-7.1" class="st13" width="60.1" height="26.7"/>
	<rect x="549.7" y="28.2" class="st4" width="64.8" height="31.3"/>
	<rect x="552" y="30.5" class="st13" width="60.1" height="26.7"/>
	<rect x="373.2" y="16.3" class="st16" width="42.8" height="6.6"/>
	<rect x="373.2" y="6.4" width="42.8" height="6.6"/>
	<rect x="373.2" y="24" class="st17" width="42.8" height="6.6"/>
	<rect x="373.2" y="31.5" class="st17" width="42.8" height="6.6"/>
	<rect x="373.2" y="39.1" class="st17" width="42.8" height="6.6"/>
	<rect x="373.2" y="46.7" class="st17" width="42.8" height="6.6"/>
	<g>
		<rect x="423.7" y="26.1" class="st4" width="119.2" height="33.7"/>
		<rect x="427.6" y="29.9" class="st16" width="16.2" height="3.2"/>
		<rect x="427.6" y="37.1" class="st18" width="112.4" height="1.9"/>
		<rect x="427.6" y="40.8" class="st18" width="112.4" height="1.9"/>
		<rect x="427.6" y="44.5" class="st18" width="112.4" height="1.9"/>
		<rect x="427.6" y="48.2" class="st18" width="112.4" height="1.9"/>
	</g>
	<g class="st19">
		<rect x="423.7" y="64.6" class="st4" width="119.2" height="33.7"/>
		<rect x="427.6" y="68.4" class="st16" width="16.2" height="3.2"/>
		<rect x="427.6" y="75.6" class="st18" width="112.4" height="1.9"/>
		<rect x="427.6" y="79.3" class="st18" width="112.4" height="1.9"/>
		<rect x="427.6" y="83" class="st18" width="112.4" height="1.9"/>
		<rect x="427.6" y="86.7" class="st18" width="112.4" height="1.9"/>
	</g>
	<circle class="st20" cx="377.7" cy="-20.5" r="2.2"/>
	<circle class="st21" cx="384.4" cy="-20.5" r="2.2"/>
	<circle class="st22" cx="391.1" cy="-20.5" r="2.2"/>
	<g>
		<g>
			<path class="st4" d="M403.5-7.5c-0.1,0-0.1,0.1-0.2,0.2L400,0.4v0.1c0,0,0,0,0.1,0l8.3-1.2c0.2,0,0.2-0.1,0.2-0.1
				c0.5-0.4-0.2-2.2-1.6-4C405.5-6.8,404-7.9,403.5-7.5z M401.1-0.4c-0.1,0-0.1,0-0.2,0c0,0,0-0.1,0-0.2l1.1-2.4
				c0,0.1,0,0.1,0.1,0.2c0.1,0.3,0.3,0.7,0.6,1.1s0.6,0.8,1,0.9L401.1-0.4z M407-1.1l-2.6,0.4l0,0l0,0h-0.1c-0.4,0-0.9-0.4-1.4-1
				c-0.2-0.3-0.5-0.7-0.5-1c-0.1-0.3-0.1-0.5-0.1-0.6l1.1-2.5h0.1c0,0.2,0.1,0.2,0.2,0.4c0.2,0.5,0.5,1,0.8,1.5l-0.7,1.5l0,0l0,0
				l1.6-0.2c0.4,0.5,0.8,0.9,1.2,1.2C406.7-1.4,406.9-1.3,407-1.1C407-1.2,407-1.1,407-1.1z M405.4-3.6c0.2,0.2,0.4,0.5,0.5,0.6
				c0,0,0,0,0.1,0v0.1h-0.2c-0.2-0.2-0.3-0.4-0.5-0.6c-0.2-0.2-0.3-0.4-0.4-0.6l0.1-0.2h0.1v0.1C405.1-4.1,405.2-3.8,405.4-3.6z
				 M405.1-4.8L405.1-4.8L405.1-4.8h-0.2h-0.2l0,0l0,0l0,0l0.2,0.2h0.1V-4.8C405.1-4.7,405.1-4.8,405.1-4.8L405.1-4.8
				c0.2-0.1,0.5,0.2,0.9,0.7c0.4,0.5,0.6,1,0.5,1.1l0,0v-0.4v-0.4l0,0v0.4v-0.2v-0.2l0,0l0,0l0,0l0,0l0,0l0,0l0,0v0.4
				c-0.2,0-0.5-0.2-0.8-0.5C405.2-4.4,405.1-4.6,405.1-4.8z M404.9-3.3c0.2,0.2,0.2,0.3,0.4,0.5l-1.1,0.2l0,0c0,0,0,0,0-0.1l0,0
				l0.5-1C404.7-3.6,404.8-3.4,404.9-3.3z M408-1.3L408-1.3L408-1.3C407.9-1.3,407.9-1.3,408-1.3C407.9-1.3,407.9-1.3,408-1.3
				C407.9-1.3,407.9-1.3,408-1.3C407.9-1.3,407.9-1.3,408-1.3C407.9-1.2,407.9-1.2,408-1.3L408-1.3L408-1.3L408-1.3L408-1.3
				l-0.1,0.4v0.3l0,0v-0.3c-0.4,0-1.2-0.8-1.9-1.6l0.6-0.2c0.1,0,0.1-0.1,0.1-0.1c0.2-0.2-0.1-0.7-0.5-1.3c-0.5-0.6-0.9-0.9-1.1-0.8
				c0,0,0,0-0.1,0.1l-0.2,0.5c-0.7-1.1-1-2-0.9-2.4l0,0l0,0l0,0l0,0l0,0l0,0l0,0l0,0l0,0c0,0,0,0,0.1-0.1l0,0l0,0
				c0.4-0.3,1.6,0.7,2.8,2.2C407.7-3.1,408.4-1.6,408-1.3z"/>
			<path class="st4" d="M409.4-6.7c-0.1-0.1-0.2-0.1-0.3-0.1l-1.7,1.3c-0.1,0.1-0.1,0.2-0.1,0.3s0.2,0.1,0.3,0.1l1.7-1.3
				C409.4-6.4,409.4-6.5,409.4-6.7z"/>
			<path class="st4" d="M408.9-5.1l-1,0.3c-0.1,0-0.2,0.2-0.2,0.2c0,0.1,0.2,0.2,0.2,0.2l1-0.3c0.1,0,0.2-0.2,0.2-0.2
				C409.1-5.1,409-5.2,408.9-5.1z"/>
			<path class="st4" d="M407.2-5.8l0.6-0.9c0.1-0.1,0.1-0.2-0.1-0.3c-0.1-0.1-0.2-0.1-0.3,0.1L406.8-6c-0.1,0.1-0.1,0.2,0.1,0.3
				C407-5.7,407.1-5.7,407.2-5.8z"/>
		</g>
		<path class="st4" d="M380.5-4.4v4.9h-1v-5.2h0.8C380.3-4.8,380.5-4.6,380.5-4.4z"/>
		<path class="st4" d="M380.5-5.4L380.5-5.4c-0.5,0-1-0.5-1-1v-0.2l0,0c0.5,0,1,0.5,1,1V-5.4z"/>
		<path class="st4" d="M382.5-4.1c0.4-0.3,0.9-0.6,1.6-0.6c0.8,0,1.3,0.4,1.4,1.1c0,0.2,0,0.5,0,0.6v3.6h-1V-3c0-0.2,0-0.3,0-0.5
			c-0.1-0.4-0.3-0.5-0.7-0.5c-0.5,0-0.9,0.3-1.2,0.5v3.9h-1v-5.2h0.7c0.2,0,0.2,0.1,0.3,0.2L382.5-4.1z"/>
		<path class="st4" d="M387.6-4c0.2-0.2,0.8-0.5,1.5-0.5c0.9,0,1.6,0.7,1.6,2.3c0,1.8-0.6,3.1-2.3,3.1c-0.7,0-1.3-0.2-1.8-0.5v-6.9
			h1V-4z M387.6-0.1c0.2,0.1,0.5,0.2,0.8,0.2c0.9,0,1.2-0.9,1.2-2c0-1.3-0.3-1.7-0.8-1.7c-0.4,0-0.8,0.3-1.1,0.5V-0.1z"/>
		<path class="st4" d="M392.7-4.4v4.9h-1v-5.2h0.8C392.6-4.8,392.7-4.6,392.7-4.4z M392.7-5.4L392.7-5.4c-0.5,0-1-0.5-1-1v-0.2l0,0
			c0.5,0,1,0.5,1,1V-5.4z"/>
		<path class="st4" d="M401-4.8H400l-1.5,3.5c-0.1,0.1-0.1,0.2-0.2,0.2l-1.2-3.5c-0.1-0.2-0.2-0.2-0.3-0.2l0,0h-1.5
			c0-0.3,0-0.5,0.1-0.7c0.1-0.2,0.2-0.3,0.7-0.3c0.3,0,0.7,0.1,0.8,0.2l0.1-0.8c-0.2-0.1-0.7-0.2-1-0.2c-1.1,0-1.5,0.5-1.7,1.3
			c0,0.2-0.1,0.5-0.1,0.5h-0.6v1h0.6v4.2h1.1v-4.2h1l1.5,3.9c-0.4,0.9-0.6,1.5-1.2,1.5c-0.4,0-0.7-0.2-1.2-0.3L395,2.2
			c0.3,0.2,0.8,0.4,1.5,0.4c1.2,0,1.7-1,2.3-2.3c0.2-0.3,0.2-0.6,0.4-0.9L401-4.8z"/>
	</g>
	<line class="st23" x1="546.3" y1="-14.3" x2="546.3" y2="121.3"/>
	<polygon class="st16" points="611.7,41.6 608,41.8 598.9,55.2 592.9,42.6 582.2,53.7 580.1,44 572.1,53.4 569.6,47.5 559.1,53.4 
		556.7,40.7 552.5,57.2 611.7,57.2 	"/>
	<polygon class="st16" points="611.7,3.5 608,3.6 598.9,17 592.9,4.4 582.2,15.5 580.1,5.9 572.1,15.2 569.6,9.3 559.1,15.2 
		556.7,2.5 552.5,19 611.7,19 	"/>
	<g>
		<g>
			<defs>
				<path id="SVGID_1_" d="M619,119.2V-14.3H370.3v133.5c0,1.2,0.9,2.1,2.1,2.1h244.5C618.1,121.3,619,120.4,619,119.2z"/>
			</defs>
			<clipPath id="SVGID_2_">
				<use xlink:href="#SVGID_1_"  style="overflow:visible;"/>
			</clipPath>
			<g class="st24">
				<rect x="423.7" y="104.5" class="st4" width="119.2" height="33.7"/>
				<rect x="427.6" y="108.3" class="st16" width="16.2" height="3.2"/>
				<rect x="427.6" y="115.4" class="st18" width="112.4" height="1.9"/>
				<rect x="427.6" y="119.1" class="st18" width="112.4" height="1.9"/>
				<rect x="427.6" y="122.8" class="st18" width="112.4" height="1.9"/>
				<rect x="427.6" y="126.5" class="st18" width="112.4" height="1.9"/>
			</g>
		</g>
	</g>
	<polygon class="st25" points="408.1,131.6 629.9,131.6 629.9,-20.9 	"/>
	<path class="st26" d="M619,119.1V-14.5H370.3v133.5c0,1.2,0.9,2.1,2.1,2.1h244.5C618.1,121.1,619,120.2,619,119.1z"/>
	<g>
		<path class="st4" d="M544.6,109.7H442.7c-1.3,0-2.3-1.1-2.3-2.3V-5.3c0-1.2,1-2.3,2.3-2.3h101.9c1.2,0,2.3,1.1,2.3,2.3v112.7
			C546.9,108.7,545.8,109.7,544.6,109.7z"/>
		<rect x="442.7" y="-5.3" class="st13" width="101.9" height="112.7"/>
		<path class="st4" d="M537.6,65.7h-88c-1.2,0-2.3,1.1-2.3,2.3v22.3c0,1.2,1.1,2.3,2.3,2.3h88c1.2,0,2.3-1.1,2.3-2.3V68
			C540,66.7,539,65.7,537.6,65.7z"/>
		<path class="st16" d="M516.3,101h21.3c1.2,0,2.3-1.1,2.3-2.3v-1.1c0-1.2-1.1-2.3-2.3-2.3h-21.3c-1.2,0-2.3,1.1-2.3,2.3v1.1
			C514,99.9,515.1,101,516.3,101z"/>
		<path class="st10" d="M512.1,53.3h-61.6c-1.1,0-1.9,0.8-1.9,1.9l0,0c0,1.1,0.8,1.9,1.9,1.9h61.6c1.1,0,1.9-0.8,1.9-1.9l0,0
			C514,54.2,513.2,53.3,512.1,53.3z"/>
		<path class="st10" d="M512.1,47h-61.6c-1.1,0-1.9,0.8-1.9,1.9l0,0c0,1.1,0.8,1.9,1.9,1.9h61.6c1.1,0,1.9-0.8,1.9-1.9l0,0
			C514,47.8,513.2,47,512.1,47z"/>
		<path class="st10" d="M475.2,40.6h-24.8c-1.1,0-1.9,0.8-1.9,1.9l0,0c0,1.1,0.8,1.9,1.9,1.9h24.8c1.1,0,1.9-0.8,1.9-1.9l0,0
			C477.2,41.5,476.3,40.6,475.2,40.6z"/>
		<path class="st27" d="M479.4,71.6h-24.8c-1.1,0-1.9,0.8-1.9,1.9l0,0c0,1.1,0.8,1.9,1.9,1.9h24.8c1.1,0,1.9-0.8,1.9-1.9l0,0
			C481.3,72.5,480.4,71.6,479.4,71.6z"/>
		<path class="st10" d="M512.1,28.4h-61.6c-1.1,0-1.9,0.8-1.9,1.9l0,0c0,1.1,0.8,1.9,1.9,1.9h61.6c1.1,0,1.9-0.8,1.9-1.9l0,0
			C514,29.3,513.2,28.4,512.1,28.4z"/>
		<path class="st10" d="M512.1,22h-61.6c-1.1,0-1.9,0.8-1.9,1.9l0,0c0,1.1,0.8,1.9,1.9,1.9h61.6c1.1,0,1.9-0.8,1.9-1.9l0,0
			C514,22.9,513.2,22,512.1,22z"/>
		<path class="st10" d="M475.2,15.7h-24.8c-1.1,0-1.9,0.8-1.9,1.9l0,0c0,1.1,0.8,1.9,1.9,1.9h24.8c1.1,0,1.9-0.8,1.9-1.9l0,0
			C477.2,16.5,476.3,15.7,475.2,15.7z"/>
		<path class="st10" d="M475.2,4.5h-24.8c-1.1,0-1.9,0.8-1.9,1.9l0,0c0,1.1,0.8,1.9,1.9,1.9h24.8c1.1,0,1.9-0.8,1.9-1.9l0,0
			C477.2,5.3,476.3,4.5,475.2,4.5z"/>
	</g>
</g>
<g>
	<rect x="654.1" y="-104.5" class="st4" width="124.4" height="178.3"/>
	<path class="st10" d="M781.3-99c0-4.4-3.6-8-8-8H659.8c-4.4,0-8,3.6-8,8V67.7c0,4.4,3.6,8,8,8h113.6c4.4,0,8-3.6,8-8V-99z
		 M774.6,67.7c0,0.7-0.6,1.3-1.3,1.3H659.8c-0.7,0-1.3-0.6-1.3-1.3V-99c0-0.7,0.6-1.3,1.3-1.3h113.6c0.7,0,1.3,0.6,1.3,1.3V67.7z"/>
	<rect x="666.2" y="-93" class="st28" width="100.7" height="137.1"/>
	<rect x="669.7" y="-89" class="st13" width="93.6" height="130.2"/>
	<circle class="st28" cx="715.9" cy="51.4" r="4.3"/>
	<path class="st4" d="M756.9-1.2h-80c-1.2,0-2.3,1.1-2.3,2.3v22.3c0,1.2,1.1,2.3,2.3,2.3h80c1.2,0,2.3-1.1,2.3-2.3V1.1
		C759.2-0.2,758.2-1.2,756.9-1.2z"/>
	<path class="st16" d="M743.6,34.1h13.3c1.2,0,2.3-1.1,2.3-2.3v-1.1c0-1.2-1.1-2.3-2.3-2.3h-13.3c-1.2,0-2.3,1.1-2.3,2.3v1.1
		C741.2,33,742.3,34.1,743.6,34.1z"/>
	<path class="st10" d="M739.3-13.6h-61.6c-1.1,0-1.9,0.8-1.9,1.9l0,0c0,1.1,0.8,1.9,1.9,1.9h61.6c1.1,0,1.9-0.8,1.9-1.9l0,0
		C741.2-12.6,740.4-13.6,739.3-13.6z"/>
	<path class="st10" d="M739.3-19.9h-61.6c-1.1,0-1.9,0.8-1.9,1.9l0,0c0,1.1,0.8,1.9,1.9,1.9h61.6c1.1,0,1.9-0.8,1.9-1.9l0,0
		C741.2-19,740.4-19.9,739.3-19.9z"/>
	<path class="st10" d="M702.4-26.3h-24.8c-1.1,0-1.9,0.8-1.9,1.9l0,0c0,1.1,0.8,1.9,1.9,1.9h24.8c1.1,0,1.9-0.8,1.9-1.9l0,0
		C704.4-25.3,703.5-26.3,702.4-26.3z"/>
	<path class="st10" d="M739.3-38.5h-61.6c-1.1,0-1.9,0.8-1.9,1.9l0,0c0,1.1,0.8,1.9,1.9,1.9h61.6c1.1,0,1.9-0.8,1.9-1.9l0,0
		C741.2-37.6,740.4-38.5,739.3-38.5z"/>
	<path class="st10" d="M739.3-44.8h-61.6c-1.1,0-1.9,0.8-1.9,1.9l0,0c0,1.1,0.8,1.9,1.9,1.9h61.6c1.1,0,1.9-0.8,1.9-1.9l0,0
		C741.2-44,740.4-44.8,739.3-44.8z"/>
	<path class="st10" d="M702.4-51.2h-24.8c-1.1,0-1.9,0.8-1.9,1.9l0,0c0,1.1,0.8,1.9,1.9,1.9h24.8c1.1,0,1.9-0.8,1.9-1.9l0,0
		C704.4-50.4,703.5-51.2,702.4-51.2z"/>
	<path class="st10" d="M702.4-62.4h-24.8c-1.1,0-1.9,0.8-1.9,1.9l0,0c0,1.1,0.8,1.9,1.9,1.9h24.8c1.1,0,1.9-0.8,1.9-1.9l0,0
		C704.4-61.5,703.5-62.4,702.4-62.4z"/>
</g>
<g>
	<path class="st16" d="M618.9-62.1h-79c-2.9,0-5.3,2.7-5.3,5.6V-4c0,2.9,2.4,5.3,5.3,5.3h3.2l-3.7,13.3c-0.3,1.1,1,1.9,1.8,1.3
		l22.3-14.7h55.3c2.9,0,5.1-2.4,5.1-5.3v-52.5C623.9-59.4,621.8-62.1,618.9-62.1z"/>
	<path class="st29" d="M617.7-57.8h-76.6c-1.3,0-2.2,1.2-2.2,2.6v50.2c0,1.3,0.9,3.2,2.2,3.2h7.3l-3,11.2l17-11.2h55.3
		c1.3,0,3-1.9,3-3.2v-50.2C620.7-56.6,619-57.8,617.7-57.8z"/>
	<path class="st16" d="M606.5-38.6h-56c-1.3,0-2.5-1.1-2.5-2.5l0,0c0-1.3,1.1-2.5,2.5-2.5h56c1.3,0,2.5,1.1,2.5,2.5l0,0
		C609-39.6,607.9-38.6,606.5-38.6z"/>
	<path class="st16" d="M606.5-28.8h-56c-1.3,0-2.5-1.1-2.5-2.5l0,0c0-1.3,1.1-2.5,2.5-2.5h56c1.3,0,2.5,1.1,2.5,2.5l0,0
		C609-29.8,607.9-28.8,606.5-28.8z"/>
	<path class="st16" d="M606.5-19h-56c-1.3,0-2.5-1.1-2.5-2.5l0,0c0-1.3,1.1-2.5,2.5-2.5h56c1.3,0,2.5,1.1,2.5,2.5l0,0
		C609-20,607.9-19,606.5-19z"/>
</g>
<g>
	<path class="st16" d="M725.7-164.7H614.9c-4.1,0-7.3,3-7.3,7.1v73.7c0,4.1,3.3,7.4,7.3,7.4h32.2L676.6-57c1.3,0.9,3-0.4,2.6-1.9
		l-4.8-17.6h51.3c4.1,0,7.5-3.3,7.5-7.4v-73.7C733.3-161.7,729.8-164.7,725.7-164.7z"/>
	<path class="st29" d="M724-158.7H616.7c-1.9,0-4.2,0.9-4.2,2.8v70.2c0,1.9,2.3,4,4.2,4h30.1l26.6,17.3l-7.1-17.3H724
		c1.9,0,4.5-2.1,4.5-4v-70.2C728.5-157.8,725.9-158.7,724-158.7z"/>
	<path class="st16" d="M709-132.5h-79.6c-1.6,0-2.8-1.3-2.8-2.8v-1.2c0-1.6,1.3-2.8,2.8-2.8H709c1.6,0,2.8,1.3,2.8,2.8v1.2
		C711.8-133.8,710.6-132.5,709-132.5z"/>
	<path class="st16" d="M709-118.8h-79.6c-1.6,0-2.8-1.3-2.8-2.8v-1.2c0-1.6,1.3-2.8,2.8-2.8H709c1.6,0,2.8,1.3,2.8,2.8v1.2
		C711.8-120.1,710.6-118.8,709-118.8z"/>
	<path class="st16" d="M709-105.1h-79.6c-1.6,0-2.8-1.3-2.8-2.8v-1.2c0-1.6,1.3-2.8,2.8-2.8H709c1.6,0,2.8,1.3,2.8,2.8v1.2
		C711.8-106.3,710.6-105.1,709-105.1z"/>
</g>
</svg>
