<?xml version="1.0" encoding="utf-8"?>
<!-- Generator: Adobe Illustrator 19.1.0, SVG Export Plug-In . SVG Version: 6.00 Build 0)  -->
<svg version="1.1" id="Layer_1" xmlns="http://www.w3.org/2000/svg" xmlns:xlink="http://www.w3.org/1999/xlink" x="0px" y="0px"
	 viewBox="50 -50 200 200" style="enable-background:new 50 -50 200 200;" xml:space="preserve">
<style type="text/css">
	.st0{fill:#CCCBCB;}
</style>
<g>
	<g>
		<path class="st0" d="M210.6,14.8V-0.5l-16.4-28.3h-88.4L89.3-0.5v15.3c0,6.5,3,12.2,7.6,16.1V85v7.6h7.6h91h7.6V85V30.9
			C207.8,27.1,210.6,21.3,210.6,14.8z M110.2-21.2h79.6L203,1.5H96.9L110.2-21.2z M104.6,85V69.8h91V85H104.6z M195.5,66h-91V34.9
			c1.8,0.5,3.7,0.8,5.7,0.8c5,0,9.7-1.8,13.3-4.8c3.6,3,8.2,4.8,13.3,4.8s9.7-1.8,13.3-4.8c3.6,3,8.2,4.8,13.3,4.8
			c5,0,9.7-1.8,13.3-4.8c3.6,3,8.2,4.8,13.3,4.8c2,0,3.9-0.3,5.7-0.8L195.5,66L195.5,66z M189.9,28.1c-7.3,0-13.3-5.9-13.3-13.3
			c0,7.3-5.9,13.3-13.3,13.3c-7.4,0-13.2-5.9-13.2-13.3c0,7.3-5.9,13.3-13.3,13.3c-7.3,0-13.3-5.9-13.3-13.3
			c0,7.3-5.9,13.3-13.3,13.3c-7.4,0-13.2-5.9-13.2-13.3V5.3h106.2v9.5C203.1,22.2,197.1,28.1,189.9,28.1z"/>
	</g>
</g>
</svg>
