<?xml version="1.0" encoding="utf-8"?>
<!-- Generator: Adobe Illustrator 19.1.0, SVG Export Plug-In . SVG Version: 6.00 Build 0)  -->
<svg version="1.1" id="Layer_1" xmlns="http://www.w3.org/2000/svg" xmlns:xlink="http://www.w3.org/1999/xlink" x="0px" y="0px"
	 viewBox="50 -50 200 200" style="enable-background:new 50 -50 200 200;" xml:space="preserve">
<style type="text/css">
	.st0{fill:#CCCBCB;}
</style>
<path class="st0" d="M110.9-28.8c-11.6,0-21,10-21,22.3s9.4,22.3,21,22.3s21-10,21-22.3S122.5-28.8,110.9-28.8z M110.9,9.5
	c-8.1,0-14.8-7.2-14.8-16.1s6.6-16.1,14.8-16.1s14.8,7.2,14.8,16.1S119.1,9.5,110.9,9.5z"/>
<path class="st0" d="M193.1-25.3c-14.3,0-25.9,12.3-25.9,27.5H219C219-13,207.4-25.3,193.1-25.3z M193.1-19.2
	c8.9,0,16.4,6.4,18.9,15.1h-37.7C176.6-12.8,184.2-19.2,193.1-19.2z"/>
<rect x="161.5" y="15.8" class="st0" width="63.1" height="1.6"/>
<path class="st0" d="M185.9-35c0-4.2,3.2-7.6,7.2-7.6c4,0,7.2,3.4,7.2,7.6"/>
<path class="st0" d="M199,26.8c-3.5-2.7-8.3-1.9-10.9,1.8l-19.8,28.7l-33.6-27.2c-1-0.8-10.2-4.1-14.1-4.1h-19.6
	c-14.2,0-25.8,12.4-25.8,27.5v42.8c0,0,0,10.4,0,10.4h71.3c0,0,0,0,0,0V60.4l18.6,15.1c1.4,1.1,3,1.7,4.7,1.7c0.4,0,0.7,0,1.1-0.1
	c2.1-0.3,3.9-1.5,5.2-3.3l24.5-35.5C203.3,34.7,202.5,29.5,199,26.8z M195.6,34.8l-24.5,35.5c-0.3,0.4-0.6,0.6-1,0.7
	c-0.1,0-0.2,0-0.2,0c-0.3,0-0.6-0.1-0.8-0.3l-22.2-18c-2.6-2.1-6.5-0.3-6.5,3.1v44.7H81.5v-47c0-11.7,8.8-21.3,19.7-21.3h19.6
	c2.1,0,8.5,2.1,10.5,3l38.4,31.1l23.6-34.2c0.4-0.6,0.9-0.7,1.2-0.7c0.3,0,0.5,0.1,0.8,0.3C196.1,32.4,196.3,33.8,195.6,34.8z"/>
</svg>
