<?xml version="1.0" encoding="utf-8"?>
<!-- Generator: Adobe Illustrator 19.1.0, SVG Export Plug-In . SVG Version: 6.00 Build 0)  -->
<svg version="1.1" id="Layer_1" xmlns="http://www.w3.org/2000/svg" xmlns:xlink="http://www.w3.org/1999/xlink" x="0px" y="0px"
	 viewBox="0 0 100 100" style="enable-background:new 0 0 100 100;" xml:space="preserve">
<style type="text/css">
	.st0{fill:#FFFFFF;}
</style>
<path class="st0" d="M56.9,50l28.5-28.5c1.9-1.9,1.9-5,0-6.9s-5-1.9-6.9,0L50,43.1L21.5,14.6c-1.9-1.9-5-1.9-6.9,0s-1.9,5,0,6.9
	L43.1,50L14.6,78.5c-1.9,1.9-1.9,5,0,6.9s5,1.9,6.9,0L50,56.9l28.5,28.5c1.9,1.9,5,1.9,6.9,0s1.9-5,0-6.9L56.9,50z"/>
</svg>
